<?xml version="1.0" encoding="utf-8"?>
<!-- Generator: Adobe Illustrator 17.0.0, SVG Export Plug-In . SVG Version: 6.00 Build 0)  -->
<!DOCTYPE svg PUBLIC "-//W3C//DTD SVG 1.1//EN" "http://www.w3.org/Graphics/SVG/1.1/DTD/svg11.dtd">
<svg version="1.1" id="图层_1" xmlns="http://www.w3.org/2000/svg" xmlns:xlink="http://www.w3.org/1999/xlink" x="0px" y="0px"
	 width="1076.923px" height="388.462px" viewBox="0 0 1076.923 388.462" enable-background="new 0 0 1076.923 388.462"
	 xml:space="preserve">
<text transform="matrix(1 0 0 1 451.1588 372.8283)" fill="#FFFFFF" font-family="'HYTieXianHei-EEJ'" font-size="20">周琦16-17赛季新疆队场均贡献</text>
<rect x="169.785" y="152.293" transform="matrix(-0.7071 0.7071 -0.7071 -0.7071 533.6921 150.4402)" fill="#DCDDDD" stroke="#FFFFFF" stroke-width="0.4056" width="131.807" height="66.917"/>
<g>
	
		<text transform="matrix(0.7071 -0.7071 0.7071 0.7071 241.2647 190.4407)" fill="#727171" font-family="'FZLTXHK'" font-size="5.7496">亚当斯</text>
</g>
<rect x="37.335" y="149.006" transform="matrix(-0.7071 0.7071 -0.7071 -0.7071 234.9627 225.4264)" fill="#DCDDDD" stroke="#FFFFFF" stroke-width="0.4056" width="66.917" height="24.739"/>
<g>
	
		<text transform="matrix(0.7071 -0.7071 0.7071 0.7071 76.3683 166.0645)" fill="#727171" font-family="'FZLTXHK'" font-size="5.7496">俞长栋</text>
</g>
<g transform="translate(5,5)">
	
		<rect x="25.996" y="153.441" transform="matrix(-0.7071 0.7071 -0.7071 -0.7071 163.4241 258.2503)" fill="#DCDDDD" stroke="#FFFFFF" stroke-width="0.4056" width="4.461" height="19.061"/>
</g>
<rect x="78.057" y="184.861" transform="matrix(-0.7071 0.7071 -0.7071 -0.7071 333.2739 266.1483)" fill="#DCDDDD" stroke="#FFFFFF" stroke-width="0.4056" width="66.917" height="34.473"/>
<g>
	
		<text transform="matrix(0.7071 -0.7071 0.7071 0.7071 115.9076 207.9695)" fill="#727171" font-family="'FZLTXHK'" font-size="5.7496">可兰白克</text>
</g>
<rect x="140.984" y="51.477" transform="matrix(-0.7071 0.7071 -0.7071 -0.7071 360.3083 17.7885)" fill="#F22525" width="70.973" height="64.078"/>
<text transform="matrix(0.7071 -0.7071 0.7071 0.7071 177.4783 94.4982)" fill="#FFFFFF" font-family="'FZLTXHK'" font-size="9.7744">周琦</text>
<g transform="translate(16,5)">
	
		<rect x="18.151" y="150.286" transform="matrix(-0.7071 0.7071 -0.7071 -0.7071 147.8004 258.4128)" fill="#DCDDDD" stroke="#FFFFFF" stroke-width="0.4056" width="4.461" height="19.061"/>
</g>
<rect x="38.756" y="140.948" transform="matrix(-0.7071 0.7071 -0.7071 -0.7071 192.9883 221.018)" fill="#DCDDDD" stroke="#FFFFFF" stroke-width="0.4056" width="23.928" height="19.061"/>
<g>
	
		<text transform="matrix(0.7071 -0.7071 0.7071 0.7071 53.995 156.8928)" fill="#727171" font-family="'FZLTXHK'" font-size="5.7496">孙鸣阳</text>
</g>
<rect x="128.92" y="120.553" transform="matrix(-0.7071 0.7071 -0.7071 -0.7071 435.0345 109.5749)" fill="#DCDDDD" stroke="#FFFFFF" stroke-width="0.4056" width="131.807" height="48.667"/>
<g>
	
		<text transform="matrix(0.7071 -0.7071 0.7071 0.7071 200.3999 149.5766)" fill="#727171" font-family="'FZLTXHK'" font-size="5.7496">布莱切</text>
</g>
<rect x="55.976" y="166.024" transform="matrix(-0.7071 0.7071 -0.7071 -0.7071 279.9643 244.0668)" fill="#DCDDDD" stroke="#FFFFFF" stroke-width="0.4056" width="66.917" height="27.984"/>
<g>
	
		<text transform="matrix(0.7071 -0.7071 0.7071 0.7071 95.0099 184.7061)" fill="#727171" font-family="'FZLTXHK'" font-size="5.7496">张桐林</text>
</g>
<rect x="99.452" y="98.078" transform="matrix(-0.7071 0.7071 -0.7071 -0.7071 313.7077 130.2925)" fill="#DCDDDD" stroke="#FFFFFF" stroke-width="0.4056" width="60.834" height="64.078"/>
<g>
	
		<text transform="matrix(0.7071 -0.7071 0.7071 0.7071 135.4448 134.8067)" fill="#727171" font-family="'FZLTXHK'" font-size="5.7496">本特尔</text>
</g>
<rect x="135.699" y="231.553" transform="matrix(-0.7071 0.7071 -0.7071 -0.7071 472.4329 323.7899)" fill="#DCDDDD" stroke="#FFFFFF" stroke-width="0.4056" width="66.917" height="56.373"/>
<g>
	
		<text transform="matrix(0.7071 -0.7071 0.7071 0.7071 175.9156 263.2461)" fill="#727171" font-family="'FZLTXHK'" font-size="5.7496">李根</text>
</g>
<rect x="123.705" y="39.573" transform="matrix(-0.7071 0.7071 -0.7071 -0.7071 294.3628 -23.7217)" fill="#DCDDDD" stroke="#FFFFFF" stroke-width="0.4056" width="56.778" height="19.061"/>
<g>
	
		<text transform="matrix(0.7071 -0.7071 0.7071 0.7071 157.6707 53.793)" fill="#727171" font-family="'FZLTXHK'" font-size="5.7496">王子瑞</text>
</g>
<g transform="translate(27,5)">
	
		<rect x="10.068" y="146.558" transform="matrix(-0.7071 0.7071 -0.7071 -0.7071 132.7503 257.1907)" fill="#DCDDDD" stroke="#FFFFFF" stroke-width="0.4056" width="6.083" height="19.061"/>
</g>
<rect x="83.557" y="79.721" transform="matrix(-0.7071 0.7071 -0.7071 -0.7071 254.2145 73.2049)" fill="#DCDDDD" stroke="#FFFFFF" stroke-width="0.4056" width="56.778" height="19.061"/>
<g>
	
		<text transform="matrix(0.7071 -0.7071 0.7071 0.7071 117.522 93.9416)" fill="#727171" font-family="'FZLTXHK'" font-size="5.7496">罗旭东</text>
</g>
<rect x="103.007" y="208.999" transform="matrix(-0.7071 0.7071 -0.7071 -0.7071 393.5069 291.0977)" fill="#DCDDDD" stroke="#FFFFFF" stroke-width="0.4056" width="66.917" height="36.095"/>
<g>
	
		<text transform="matrix(0.7071 -0.7071 0.7071 0.7071 140.8572 232.9192)" fill="#727171" font-family="'FZLTXHK'" font-size="5.7496">西热力江</text>
</g>
<rect x="52.409" y="116.142" transform="matrix(-0.7071 0.7071 -0.7071 -0.7071 217.7942 161.1312)" fill="#DCDDDD" stroke="#FFFFFF" stroke-width="0.4056" width="46.234" height="19.061"/>
<g>
	
		<text transform="matrix(0.7071 -0.7071 0.7071 0.7071 73.5274 138.5108)" fill="#727171" font-family="'FZLTXHK'" font-size="5.7496">阿布都沙拉木</text>
</g>
<rect x="488.227" y="58.393" transform="matrix(-0.7071 0.7071 -0.7071 -0.7071 955.305 -218.4868)" fill="#DCDDDD" stroke="#FFFFFF" stroke-width="0.4056" width="69.351" height="60.428"/>
<text transform="matrix(0.7071 -0.7071 0.7071 0.7071 528.4791 93.2957)" fill="#727171" font-family="'FZLTXHK'" font-size="5.7496">亚当斯</text>
<rect x="439.971" y="203.127" transform="matrix(-0.7071 0.7071 -0.7071 -0.7071 963.0161 50.7541)" fill="#DCDDDD" stroke="#FFFFFF" stroke-width="0.4056" width="62.051" height="43.395"/>
<text transform="matrix(0.7071 -0.7071 0.7071 0.7071 476.5731 229.5145)" fill="#727171" font-family="'FZLTXHK'" font-size="5.7496">俞长栋</text>
<rect x="374.927" y="157.626" fill="#BF6969" stroke="#FFFFFF" stroke-width="0.4056" width="0" height="30.011"/>
<rect x="462.137" y="39.188" transform="matrix(-0.7071 0.7071 -0.7071 -0.7071 880.5474 -256.3469)" fill="#DCDDDD" stroke="#FFFFFF" stroke-width="0.4056" width="62.456" height="30.011"/>
<text transform="matrix(0.7071 -0.7071 0.7071 0.7071 497.7587 60.0658)" fill="#727171" font-family="'FZLTXHK'" font-size="5.7496">可兰白克</text>
<rect x="470.912" y="125.993" transform="matrix(-0.7071 0.7071 -0.7071 -0.7071 1028.4293 -120.8749)" fill="#F22525" stroke="#FFFFFF" stroke-width="0.4056" width="136.673" height="53.128"/>
<text transform="matrix(0.7071 -0.7071 0.7071 0.7071 539.683 162.9643)" fill="#FFFFFF" font-family="'FZLTXHK'" font-size="9.7744">周琦</text>
<rect x="374.927" y="157.626" fill="#BF6969" stroke="#FFFFFF" stroke-width="0.4056" width="0" height="30.011"/>
<rect x="374.449" y="144.721" transform="matrix(-0.7071 0.7071 -0.7071 -0.7071 775.0146 -1.5684)" fill="#DCDDDD" stroke="#FFFFFF" stroke-width="0.4056" width="26.767" height="30.011"/>
<text transform="matrix(0.7071 -0.7071 0.7071 0.7071 391.6833 166.1411)" fill="#727171" font-family="'FZLTXHK'" font-size="5.7496">孙鸣阳</text>
<rect x="509.196" y="163.263" transform="matrix(-0.7071 0.7071 -0.7071 -0.7071 1120.8558 -82.5906)" fill="#DCDDDD" stroke="#FFFFFF" stroke-width="0.4056" width="136.673" height="55.156"/>
<text transform="matrix(0.7071 -0.7071 0.7071 0.7071 583.1097 195.5309)" fill="#727171" font-family="'FZLTXHK'" font-size="5.7496">布莱切</text>
<rect x="440.92" y="106.714" transform="matrix(-0.7071 0.7071 -0.7071 -0.7071 906.9836 -101.8288)" fill="#DCDDDD" stroke="#FFFFFF" stroke-width="0.4056" width="67.323" height="60.428"/>
<text transform="matrix(0.7071 -0.7071 0.7071 0.7071 480.1577 141.6171)" fill="#727171" font-family="'FZLTXHK'" font-size="5.7496">张桐林</text>
<rect x="475.531" y="231.792" transform="matrix(-0.7071 0.7071 -0.7071 -0.7071 1048.8654 86.314)" fill="#DCDDDD" stroke="#FFFFFF" stroke-width="0.4056" width="62.051" height="57.184"/>
<text transform="matrix(0.7071 -0.7071 0.7071 0.7071 512.1335 265.075)" fill="#727171" font-family="'FZLTXHK'" font-size="5.7496">本特尔</text>
<rect x="387.635" y="156.671" transform="matrix(-0.7071 0.7071 -0.7071 -0.7071 836.6653 -1.5821)" fill="#DCDDDD" stroke="#FFFFFF" stroke-width="0.4056" width="62.051" height="31.634"/>
<text transform="matrix(0.7071 -0.7071 0.7071 0.7071 425.4194 175.9943)" fill="#727171" font-family="'FZLTXHK'" font-size="5.7496">李根</text>
<rect x="393.019" y="124.934" transform="matrix(-0.7071 0.7071 -0.7071 -0.7071 794.8021 -49.3394)" fill="#DCDDDD" stroke="#FFFFFF" stroke-width="0.4056" width="29.2" height="30.011"/>
<text transform="matrix(0.7071 -0.7071 0.7071 0.7071 411.4709 146.3535)" fill="#727171" font-family="'FZLTXHK'" font-size="5.7496">王子瑞</text>
<rect x="374.215" y="155.905" transform="matrix(-0.7071 0.7071 -0.7071 -0.7071 763.8305 25.4325)" fill="#DCDDDD" stroke="#FFFFFF" stroke-width="0.4056" width="4.867" height="30.011"/>
<rect x="438.051" y="75.035" transform="matrix(-0.7071 0.7071 -0.7071 -0.7071 844.7007 -169.8053)" fill="#DCDDDD" stroke="#FFFFFF" stroke-width="0.4056" width="38.934" height="30.011"/>
<text transform="matrix(0.7071 -0.7071 0.7071 0.7071 460.2195 97.6049)" fill="#727171" font-family="'FZLTXHK'" font-size="5.7496">罗旭东</text>
<rect x="411.724" y="178.327" transform="matrix(-0.7071 0.7071 -0.7071 -0.7071 894.8214 22.5069)" fill="#DCDDDD" stroke="#FFFFFF" stroke-width="0.4056" width="62.051" height="36.5"/>
<text transform="matrix(0.7071 -0.7071 0.7071 0.7071 447.1436 202.4501)" fill="#727171" font-family="'FZLTXHK'" font-size="5.7496">西热力江</text>
<rect x="412.598" y="101.705" transform="matrix(-0.7071 0.7071 -0.7071 -0.7071 818.0307 -105.4183)" fill="#DCDDDD" stroke="#FFFFFF" stroke-width="0.4056" width="36.5" height="30.011"/>
<text transform="matrix(0.7071 -0.7071 0.7071 0.7071 427.6995 129.549)" fill="#727171" font-family="'FZLTXHK'" font-size="5.7496">阿布都沙拉木</text>
<rect x="810.987" y="60.866" transform="matrix(-0.7071 0.7071 -0.7071 -0.7071 1468.1428 -467.3314)" fill="#DCDDDD" stroke="#FFFFFF" stroke-width="0.4056" width="39.745" height="19.061"/>
<g>
	
		<text transform="matrix(0.7071 -0.7071 0.7071 0.7071 836.4366 75.0863)" fill="#727171" font-family="'FZLTXHK'" font-size="5.7496">亚当斯</text>
</g>
<rect x="839.328" y="237.483" transform="matrix(-0.7071 0.7071 -0.7071 -0.7071 1654.6523 -149.9855)" fill="#DCDDDD" stroke="#FFFFFF" stroke-width="0.4056" width="38.123" height="60.428"/>
<g>
	
		<text transform="matrix(0.7071 -0.7071 0.7071 0.7071 860.5176 275.8376)" fill="#727171" font-family="'FZLTXHK'" font-size="5.7496">俞长栋</text>
</g>
<rect x="732.495" y="159.229" fill="#BF6969" stroke="#FFFFFF" stroke-width="0.4056" width="0" height="19.061"/>
<rect x="775.807" y="184.304" transform="matrix(-0.7071 0.7071 -0.7071 -0.7071 1501.3005 -213.506)" fill="#DCDDDD" stroke="#FFFFFF" stroke-width="0.4056" width="38.123" height="39.745"/>
<g>
	
		<text transform="matrix(0.7071 -0.7071 0.7071 0.7071 795.8132 213.499)" fill="#727171" font-family="'FZLTXHK'" font-size="5.7496">可兰白克</text>
</g>
<rect x="860.194" y="43.082" transform="matrix(-0.7071 0.7071 -0.7071 -0.7071 1645.5072 -415.7648)" fill="#F22525" stroke="#FFFFFF" stroke-width="0.4056" width="97.334" height="179.663"/>
<text transform="matrix(0.7071 -0.7071 0.7071 0.7071 912.173 139.8708)" fill="#FFFFFF" font-family="'FZLTXHK'" font-size="9.7744">周琦</text>
<rect x="732.495" y="159.229" fill="#BF6969" stroke="#FFFFFF" stroke-width="0.4056" width="0" height="19.061"/>
<rect x="754.779" y="117.074" transform="matrix(-0.7071 0.7071 -0.7071 -0.7071 1411.9352 -331.6341)" fill="#DCDDDD" stroke="#FFFFFF" stroke-width="0.4056" width="39.745" height="19.061"/>
<g>
	
		<text transform="matrix(0.7071 -0.7071 0.7071 0.7071 780.2292 131.2937)" fill="#727171" font-family="'FZLTXHK'" font-size="5.7496">孙鸣阳</text>
</g>
<rect x="820.446" y="99.863" transform="matrix(-0.7071 0.7071 -0.7071 -0.7071 1588.726 -278.6829)" fill="#DCDDDD" stroke="#FFFFFF" stroke-width="0.4056" width="63.267" height="179.663"/>
<g>
	
		<text transform="matrix(0.7071 -0.7071 0.7071 0.7071 857.6588 194.385)" fill="#727171" font-family="'FZLTXHK'" font-size="5.7496">布莱切</text>
</g>
<rect x="839.09" y="32.762" transform="matrix(-0.7071 0.7071 -0.7071 -0.7071 1496.2465 -535.18)" fill="#DCDDDD" stroke="#FFFFFF" stroke-width="0.4056" width="39.745" height="19.061"/>
<g>
	
		<text transform="matrix(0.7071 -0.7071 0.7071 0.7071 864.5406 46.9822)" fill="#727171" font-family="'FZLTXHK'" font-size="5.7496">张桐林</text>
</g>
<rect x="747.704" y="156.2" transform="matrix(-0.7071 0.7071 -0.7071 -0.7071 1433.452 -241.6098)" fill="#DCDDDD" stroke="#FFFFFF" stroke-width="0.4056" width="38.123" height="39.745"/>
<g>
	
		<text transform="matrix(0.7071 -0.7071 0.7071 0.7071 769.4672 183.0623)" fill="#727171" font-family="'FZLTXHK'" font-size="5.7496">本特尔</text>
</g>
<rect x="782.883" y="88.97" transform="matrix(-0.7071 0.7071 -0.7071 -0.7071 1440.0388 -399.4827)" fill="#DCDDDD" stroke="#FFFFFF" stroke-width="0.4056" width="39.745" height="19.061"/>
<g>
	
		<text transform="matrix(0.7071 -0.7071 0.7071 0.7071 809.5154 102.0061)" fill="#727171" font-family="'FZLTXHK'" font-size="5.7496">李根</text>
</g>
<rect x="732.495" y="159.229" fill="#BF6969" stroke="#FFFFFF" stroke-width="0.4056" width="0" height="19.061"/>
<rect x="732.495" y="159.229" fill="#BF6969" stroke="#FFFFFF" stroke-width="0.4056" width="0" height="19.061"/>
<rect x="732.495" y="159.229" fill="#BF6969" stroke="#FFFFFF" stroke-width="0.4056" width="0" height="19.061"/>
<rect x="803.911" y="212.408" transform="matrix(-0.7071 0.7071 -0.7071 -0.7071 1569.1493 -185.4022)" fill="#DCDDDD" stroke="#FFFFFF" stroke-width="0.4056" width="38.123" height="39.745"/>
<g>
	
		<text transform="matrix(0.7071 -0.7071 0.7071 0.7071 823.9175 241.6027)" fill="#727171" font-family="'FZLTXHK'" font-size="5.7496">西热力江</text>
</g>
<rect x="726.675" y="145.177" transform="matrix(-0.7071 0.7071 -0.7071 -0.7071 1383.8312 -263.7855)" fill="#DCDDDD" stroke="#FFFFFF" stroke-width="0.4056" width="39.745" height="19.061"/>
<g>
	
		<text transform="matrix(0.7071 -0.7071 0.7071 0.7071 743.4006 168.1209)" fill="#727171" font-family="'FZLTXHK'" font-size="5.7496">阿布都沙拉木</text>
</g>
<text transform="matrix(1 0 0 1 290.9467 299.2106)" fill="#FFFFFF" font-family="'HYTieXianHei-EEJ'" font-size="13.7991">场均得分</text>
<g>
	<g>
		<path fill="none" stroke="#FFFFFF" stroke-width="0.575" d="M294.776,278.684c-1.135-24.15-24.737-43.486-54.019-44.118"/>
		<g>
			<path fill="#FFFFFF" d="M294.757,278.479c-0.551-0.518-1.615-0.741-2.349-0.739c1.007,0.703,1.895,1.629,2.411,2.766
				c0.426-1.166,1.309-2.104,2.238-2.908C296.273,277.684,295.326,277.905,294.757,278.479z"/>
		</g>
		<g>
			
				<rect x="239.276" y="233.059" transform="matrix(0.0417 -0.9991 0.9991 0.0417 -3.6287 465.4462)" fill="#FFFFFF" width="3.112" height="3.113"/>
		</g>
	</g>
</g>
<text transform="matrix(1 0 0 1 641.4818 299.2106)" fill="#FFFFFF" font-family="'HYTieXianHei-EEJ'" font-size="13.7991">场均篮板</text>
<g>
	<g>
		<path fill="none" stroke="#FFFFFF" stroke-width="0.575" d="M645.312,278.684c-1.134-24.15-24.737-43.486-54.019-44.118"/>
		<g>
			<path fill="#FFFFFF" d="M645.293,278.479c-0.551-0.518-1.615-0.741-2.349-0.739c1.007,0.703,1.895,1.629,2.411,2.766
				c0.426-1.166,1.309-2.104,2.238-2.908C646.81,277.684,645.862,277.905,645.293,278.479z"/>
		</g>
		<g>
			
				<rect x="589.812" y="233.059" transform="matrix(0.0417 -0.9991 0.9991 0.0417 332.2791 815.6772)" fill="#FFFFFF" width="3.112" height="3.113"/>
		</g>
	</g>
</g>
<text transform="matrix(1 0 0 1 998.1107 299.2106)" fill="#FFFFFF" font-family="'HYTieXianHei-EEJ'" font-size="13.7991">场均封盖</text>
<g>
	<g>
		<path fill="none" stroke="#FFFFFF" stroke-width="0.575" d="M1001.941,278.684c-1.134-24.15-24.737-43.486-54.019-44.118"/>
		<g>
			<path fill="#FFFFFF" d="M1001.922,278.479c-0.551-0.518-1.615-0.741-2.349-0.739c1.007,0.703,1.895,1.629,2.411,2.766
				c0.426-1.166,1.309-2.104,2.238-2.908C1003.439,277.684,1002.491,277.905,1001.922,278.479z"/>
		</g>
		<g>
			
				<rect x="946.441" y="233.059" transform="matrix(0.0417 -0.9991 0.9991 0.0417 674.0253 1171.9955)" fill="#FFFFFF" width="3.112" height="3.113"/>
		</g>
	</g>
</g>
<text transform="matrix(1 0 0 1 259.7318 57.0465)"><tspan x="0" y="0" fill="#FFFFFF" font-family="'FZLTXHK'" font-size="11.4992">16-17赛季</tspan><tspan x="0" y="13.799" fill="#FFFFFF" font-family="'FZLTXHK'" font-size="11.4992">周琦场均贡献15.9分</tspan><tspan x="0" y="27.598" fill="#FFFFFF" font-family="'FZLTXHK'" font-size="11.4992">位列新疆队第三</tspan></text>
<text transform="matrix(1 0 0 1 600.5814 57.0465)"><tspan x="0" y="0" fill="#FFFFFF" font-family="'FZLTXHK'" font-size="11.4992">16-17赛季</tspan><tspan x="0" y="13.799" fill="#FFFFFF" font-family="'FZLTXHK'" font-size="11.4992">周琦场均贡献10个篮板</tspan><tspan x="0" y="27.598" fill="#FFFFFF" font-family="'FZLTXHK'" font-size="11.4992">位列新疆队第二</tspan></text>
<text transform="matrix(1 0 0 1 945.9691 57.0465)"><tspan x="0" y="0" fill="#FFFFFF" font-family="'FZLTXHK'" font-size="11.4992">16-17赛季</tspan><tspan x="0" y="13.799" fill="#FFFFFF" font-family="'FZLTXHK'" font-size="11.4992">周琦场均贡献2.3次封盖</tspan><tspan x="0" y="27.598" fill="#FFFFFF" font-family="'FZLTXHK'" font-size="11.4992">位列新疆队第一</tspan></text>
</svg>
