<?xml version="1.0" encoding="utf-8"?>
<!-- Generator: Adobe Illustrator 17.0.0, SVG Export Plug-In . SVG Version: 6.00 Build 0)  -->
<!DOCTYPE svg PUBLIC "-//W3C//DTD SVG 1.1//EN" "http://www.w3.org/Graphics/SVG/1.1/DTD/svg11.dtd">
<svg version="1.1" id="图层_1" xmlns="http://www.w3.org/2000/svg" xmlns:xlink="http://www.w3.org/1999/xlink" x="0px" y="0px"
	 width="1205.769px" height="388.462px" viewBox="0 0 1205.769 388.462" enable-background="new 0 0 1205.769 388.462"
	 xml:space="preserve">
<text transform="matrix(1 0 0 1 384.6757 378.4613)" fill="#FFFFFF" font-family="'HYTieXianHei-EEJ'" font-size="20">周琦16-17赛季场均数据与联盟同位置球员对比</text>
<line fill="none" stroke="#FFFFFF" stroke-width="0.2843" x1="66.859" y1="31.808" x2="66.859" y2="242.169"/>
<text transform="matrix(1 0 0 1 63.4481 262.11)" fill="#FFFFFF" font-family="'ArialMT'" font-size="10.4724">0</text>
<line fill="none" stroke="#FFFFFF" stroke-width="0.2843" x1="151.572" y1="31.808" x2="151.572" y2="242.169"/>
<text transform="matrix(1 0 0 1 148.161 262.11)" fill="#FFFFFF" font-family="'ArialMT'" font-size="10.4724">2</text>
<line fill="none" stroke="#FFFFFF" stroke-width="0.2843" x1="236.853" y1="31.808" x2="236.853" y2="242.169"/>
<text transform="matrix(1 0 0 1 233.4433 262.11)" fill="#FFFFFF" font-family="'ArialMT'" font-size="10.4724">4</text>
<line fill="none" stroke="#FFFFFF" stroke-width="0.2843" x1="321.566" y1="31.808" x2="321.566" y2="242.169"/>
<text transform="matrix(1 0 0 1 318.1552 262.11)" fill="#FFFFFF" font-family="'ArialMT'" font-size="10.4724">6</text>
<line fill="none" stroke="#FFFFFF" stroke-width="0.2843" x1="406.848" y1="31.808" x2="406.848" y2="242.169"/>
<text transform="matrix(1 0 0 1 403.4364 262.11)" fill="#FFFFFF" font-family="'ArialMT'" font-size="10.4724">8</text>
<line fill="none" stroke="#FFFFFF" stroke-width="0.2843" x1="492.129" y1="31.808" x2="492.129" y2="242.169"/>
<text transform="matrix(1 0 0 1 488.7186 262.11)" fill="#FFFFFF" font-family="'ArialMT'" font-size="10.4724">10</text>
<line fill="none" stroke="#FFFFFF" stroke-width="0.2843" x1="576.842" y1="31.808" x2="576.842" y2="242.169"/>
<text transform="matrix(1 0 0 1 573.4296 262.11)" fill="#FFFFFF" font-family="'ArialMT'" font-size="10.4724">12</text>
<line fill="none" stroke="#FFFFFF" stroke-width="0.2843" x1="662.123" y1="31.808" x2="662.123" y2="242.169"/>
<text transform="matrix(1 0 0 1 658.7118 262.11)" fill="#FFFFFF" font-family="'ArialMT'" font-size="10.4724">14</text>
<line fill="none" stroke="#FFFFFF" stroke-width="0.2843" x1="746.836" y1="31.808" x2="746.836" y2="242.169"/>
<text transform="matrix(1 0 0 1 743.4227 262.11)" fill="#FFFFFF" font-family="'ArialMT'" font-size="10.4724">16</text>
<line fill="none" stroke="#FFFFFF" stroke-width="0.3092" x1="832.117" y1="33.698" x2="832.117" y2="242.169"/>
<text transform="matrix(1 0 0 1 828.7059 262.11)" fill="#FFFFFF" font-family="'ArialMT'" font-size="10.4724">18</text>
<line fill="none" stroke="#FFFFFF" stroke-width="0.3106" x1="917.398" y1="31.808" x2="917.398" y2="242.169"/>
<text transform="matrix(1 0 0 1 913.9872 262.11)" fill="#FFFFFF" font-family="'ArialMT'" font-size="10.4724">20</text>
<line fill="none" stroke="#FFFFFF" stroke-width="0.3106" x1="1002.111" y1="31.808" x2="1002.111" y2="242.169"/>
<text transform="matrix(1 0 0 1 998.6991 262.11)" fill="#FFFFFF" font-family="'ArialMT'" font-size="10.4724">22</text>
<line fill="none" stroke="#FFFFFF" stroke-width="0.3106" x1="1087.392" y1="31.808" x2="1087.392" y2="242.169"/>
<text transform="matrix(1 0 0 1 1083.9803 262.11)" fill="#FFFFFF" font-family="'ArialMT'" font-size="10.4724">24</text>
<line fill="none" stroke="#FFFFFF" stroke-width="0.2511" x1="1172.105" y1="33.698" x2="1172.105" y2="242.169"/>
<text transform="matrix(1 0 0 1 1168.6942 262.11)" fill="#FFFFFF" font-family="'ArialMT'" font-size="10.4724">26</text>
<text transform="matrix(1 0 0 1 78.7997 33.6989)" fill="#FFFFFF" font-family="'ArialMT'" font-size="11.4245">Min</text>
<text transform="matrix(1 0 0 1 257.8895 20.0573)" fill="#716D6D" font-family="'ArialMT'" font-size="6.8225">Avg</text>
<text transform="matrix(1 0 0 1 769.0087 34.652)" fill="#FFFFFF" font-family="'ArialMT'" font-size="11.4245">Max</text>
<text transform="matrix(1 0 0 1 486.4442 12.609)" fill="#716D6D" font-family="'AdobeSongStd-Light-GBpc-EUC-H'" font-size="6.8225">周琦</text>
<g>
	<text transform="matrix(1 0 0 1 11.2138 35.7897)" fill="#FFFFFF" font-family="'HYTieXianHei-EEJ'" font-size="11.4245">篮板</text>
</g>
<line fill="none" stroke="#FFFFFF" stroke-width="1.1371" x1="102.109" y1="31.808" x2="763.892" y2="31.808"/>
<line fill="none" stroke="#DCDDDD" stroke-width="10.5636" x1="153.278" y1="31.808" x2="464.839" y2="31.808"/>
<circle fill="#FFFFFF" stroke="#FFFFFF" stroke-width="0.2843" cx="102.109" cy="31.808" r="2.843"/>
<circle fill="#595757" stroke="#FFFFFF" stroke-width="1.4085" cx="263.575" cy="31.808" r="5.117"/>
<circle fill="#FFFFFF" stroke="#FFFFFF" stroke-width="0.2843" cx="763.892" cy="31.808" r="2.843"/>
<circle fill="#3261C7" stroke="#FFFFFF" stroke-width="0.2843" cx="492.129" cy="31.808" r="2.843"/>
<g>
	<text transform="matrix(1 0 0 1 11.2138 69.902)" fill="#FFFFFF" font-family="'HYTieXianHei-EEJ'" font-size="11.4245">得分</text>
</g>
<line fill="none" stroke="#FFFFFF" stroke-width="1.1371" x1="123.145" y1="65.921" x2="1130.033" y2="65.921"/>
<line fill="none" stroke="#DCDDDD" stroke-width="10.5636" x1="184.548" y1="65.921" x2="769.009" y2="65.921"/>
<circle fill="#FFFFFF" stroke="#FFFFFF" stroke-width="0.2843" cx="123.145" cy="65.921" r="2.843"/>
<circle fill="#595757" stroke="#FFFFFF" stroke-width="1.4085" cx="384.674" cy="65.921" r="5.117"/>
<circle fill="#595757" stroke="#FFFFFF" stroke-width="2.2383" cx="969.343" cy="308.28" r="8.131"/>
<circle fill="#FFFFFF" stroke="#FFFFFF" stroke-width="0.2843" cx="1130.033" cy="65.921" r="2.843"/>
<circle fill="#3261C7" stroke="#FFFFFF" stroke-width="0.2843" cx="746.836" cy="65.921" r="2.843"/>
<g>
	<text transform="matrix(1 0 0 1 11.2138 104.0143)" fill="#FFFFFF" font-family="'HYTieXianHei-EEJ'" font-size="11.4245">助攻</text>
</g>
<line fill="none" stroke="#FFFFFF" stroke-width="1.1371" x1="66.859" y1="100.033" x2="270.966" y2="100.033"/>
<line fill="none" stroke="#DCDDDD" stroke-width="10.5636" x1="77.093" y1="100.033" x2="116.323" y2="100.033"/>
<circle fill="#FFFFFF" stroke="#FFFFFF" stroke-width="0.2843" cx="66.859" cy="100.033" r="2.843"/>
<circle fill="#595757" stroke="#FFFFFF" stroke-width="1.4085" cx="93.581" cy="100.033" r="5.117"/>
<circle fill="#FFFFFF" stroke="#FFFFFF" stroke-width="0.2843" cx="270.966" cy="100.033" r="2.843"/>
<circle fill="#3261C7" stroke="#FFFFFF" stroke-width="0.2843" cx="117.46" cy="100.033" r="2.843"/>
<g>
	<text transform="matrix(1 0 0 1 11.2138 138.1266)" fill="#FFFFFF" font-family="'HYTieXianHei-EEJ'" font-size="11.4245">抢断</text>
</g>
<line fill="none" stroke="#FFFFFF" stroke-width="1.1371" x1="66.859" y1="134.146" x2="164.649" y2="134.146"/>
<line fill="none" stroke="#DCDDDD" stroke-width="10.5636" x1="77.093" y1="134.146" x2="104.383" y2="134.146"/>
<circle fill="#FFFFFF" stroke="#FFFFFF" stroke-width="0.2843" cx="66.859" cy="134.146" r="2.843"/>
<circle fill="#595757" stroke="#FFFFFF" stroke-width="1.4085" cx="86.758" cy="134.146" r="5.117"/>
<circle fill="#FFFFFF" stroke="#FFFFFF" stroke-width="0.2843" cx="164.649" cy="134.146" r="2.843"/>
<circle fill="#3261C7" stroke="#FFFFFF" stroke-width="0.2843" cx="117.46" cy="134.146" r="2.843"/>
<g>
	<text transform="matrix(1 0 0 1 11.2138 172.2379)" fill="#FFFFFF" font-family="'HYTieXianHei-EEJ'" font-size="11.4245">盖帽</text>
</g>
<line fill="none" stroke="#FFFFFF" stroke-width="1.1371" x1="66.859" y1="168.258" x2="168.628" y2="168.258"/>
<line fill="none" stroke="#DCDDDD" stroke-width="10.5636" x1="71.976" y1="168.258" x2="100.972" y2="168.258"/>
<circle fill="#FFFFFF" stroke="#FFFFFF" stroke-width="0.2843" cx="66.859" cy="168.258" r="2.843"/>
<circle fill="#595757" stroke="#FFFFFF" stroke-width="1.4085" cx="83.347" cy="168.258" r="5.117"/>
<circle stroke="#FFFFFF" stroke-width="0.2843" cx="168.628" cy="168.258" r="2.843"/>
<circle fill="#3261C7" stroke="#FFFFFF" stroke-width="0.2843" cx="164.649" cy="168.258" r="2.843"/>
<g>
	<text transform="matrix(1 0 0 1 11.2138 206.3512)" fill="#FFFFFF" font-family="'HYTieXianHei-EEJ'" font-size="11.4245">失误</text>
</g>
<line fill="none" stroke="#FFFFFF" stroke-width="1.1371" x1="66.859" y1="202.371" x2="215.249" y2="202.371"/>
<line fill="none" stroke="#DCDDDD" stroke-width="10.5636" x1="91.875" y1="202.371" x2="156.12" y2="202.371"/>
<circle fill="#FFFFFF" stroke="#FFFFFF" stroke-width="0.2843" cx="66.859" cy="202.371" r="2.843"/>
<circle fill="#FFFFFF" stroke="#FFFFFF" stroke-width="0.2843" cx="215.249" cy="202.371" r="2.843"/>
<circle fill="#3261C7" stroke="#FFFFFF" stroke-width="0.2843" cx="151.572" cy="202.371" r="2.843"/>
<g>
	<text transform="matrix(1 0 0 1 11.2138 240.4635)" fill="#FFFFFF" font-family="'HYTieXianHei-EEJ'" font-size="11.4245">犯规</text>
</g>
<line fill="none" stroke="#FFFFFF" stroke-width="1.1371" x1="81.641" y1="236.483" x2="240.833" y2="236.483"/>
<line fill="none" stroke="#DCDDDD" stroke-width="10.5636" x1="141.907" y1="236.483" x2="199.898" y2="236.483"/>
<line fill="none" stroke="#DCDDDD" stroke-width="11.0215" x1="1070.043" y1="307.472" x2="1128.034" y2="307.472"/>
<circle fill="#FFFFFF" stroke="#FFFFFF" stroke-width="0.2843" cx="81.641" cy="236.483" r="2.843"/>
<circle fill="#595757" stroke="#FFFFFF" stroke-width="0.2843" cx="167.491" cy="236.483" r="5.117"/>
<circle fill="#FFFFFF" stroke="#FFFFFF" stroke-width="0.2843" cx="240.833" cy="236.483" r="2.843"/>
<circle fill="#3261C7" stroke="#FFFFFF" stroke-width="0.2843" cx="168.628" cy="236.483" r="2.843"/>
<rect x="485.652" y="25.71" transform="matrix(0.7071 -0.7071 0.7071 0.7071 121.3811 357.4152)" fill="#E52C2C" stroke="#F7F8F8" stroke-width="0.7042" width="12.955" height="12.955"/>
<rect x="111.267" y="93.556" transform="matrix(0.7071 -0.7071 0.7071 0.7071 -36.2478 112.5566)" fill="#E52C2C" stroke="#F7F8F8" stroke-width="0.7042" width="12.955" height="12.955"/>
<rect x="145.095" y="195.894" transform="matrix(0.7071 -0.7071 0.7071 0.7071 -98.7033 166.4507)" fill="#E52C2C" stroke="#F7F8F8" stroke-width="0.7042" width="12.955" height="12.955"/>
<rect x="162.435" y="230.006" transform="matrix(0.7071 -0.7071 0.7071 0.7071 -117.7456 188.7037)" fill="#E52C2C" stroke="#F7F8F8" stroke-width="0.7042" width="12.955" height="12.955"/>
<rect x="158.171" y="161.781" transform="matrix(0.7071 -0.7071 0.7071 0.7071 -70.7521 165.7059)" fill="#E52C2C" stroke="#F7F8F8" stroke-width="0.7042" width="12.955" height="12.955"/>
<rect x="110.982" y="127.668" transform="matrix(0.7071 -0.7071 0.7071 0.7071 -60.4523 122.3469)" fill="#E52C2C" stroke="#F7F8F8" stroke-width="0.7042" width="12.955" height="12.955"/>
<rect x="740.358" y="59.443" transform="matrix(0.7071 -0.7071 0.7071 0.7071 172.1301 547.4003)" fill="#E52C2C" stroke="#F7F8F8" stroke-width="0.7042" width="12.955" height="12.955"/>
<rect x="962.865" y="328.353" transform="matrix(0.7071 -0.7071 0.7071 0.7071 47.153 783.4984)" fill="#E52C2C" stroke="#F7F8F8" stroke-width="0.7042" width="12.955" height="12.955"/>
<circle fill="#595757" stroke="#FFFFFF" stroke-width="1.4085" cx="108.931" cy="202.371" r="5.117"/>
<text transform="matrix(1 0 0 1 991.0455 311.4816)" fill="#FFFFFF" font-family="'HYTieXianHei-EEJ'" font-size="9.1551"> 联盟中值</text>
<text transform="matrix(1 0 0 1 991.0455 339.9657)" fill="#FFFFFF" font-family="'HYTieXianHei-EEJ'" font-size="9.1551"> 周琦数据</text>
<text transform="matrix(1 0 0 1 1069.6022 339.9657)" fill="#FFFFFF" font-family="'HYTieXianHei-EEJ'" font-size="9.1551">同位置球员正常范围</text>
<rect x="852.373" y="284.678" fill="none" width="111.903" height="18.007"/>
</svg>
