<?xml version="1.0" encoding="utf-8"?>
<!-- Generator: Adobe Illustrator 17.0.0, SVG Export Plug-In . SVG Version: 6.00 Build 0)  -->
<!DOCTYPE svg PUBLIC "-//W3C//DTD SVG 1.1//EN" "http://www.w3.org/Graphics/SVG/1.1/DTD/svg11.dtd">
<svg version="1.1" id="图层_1" xmlns="http://www.w3.org/2000/svg" xmlns:xlink="http://www.w3.org/1999/xlink" x="0px" y="0px"
	 width="1205.769px" height="380.769px" viewBox="0 0 1205.769 380.769" enable-background="new 0 0 1205.769 380.769"
	 xml:space="preserve">
<line fill="none" stroke="#FFFFFF" stroke-width="0.2843" x1="72.316" y1="46.211" x2="72.316" y2="256.571"/>
<text transform="matrix(1 0 0 1 68.9034 276.5117)" fill="#FFFFFF" font-family="'ArialMT'" font-size="10.4724">0</text>
<line fill="none" stroke="#FFFFFF" stroke-width="0.2843" x1="157.028" y1="46.211" x2="157.028" y2="256.571"/>
<text transform="matrix(1 0 0 1 153.6163 276.5117)" fill="#FFFFFF" font-family="'ArialMT'" font-size="10.4724">2</text>
<line fill="none" stroke="#FFFFFF" stroke-width="0.2843" x1="242.31" y1="46.211" x2="242.31" y2="256.571"/>
<text transform="matrix(1 0 0 1 238.8985 276.5117)" fill="#FFFFFF" font-family="'ArialMT'" font-size="10.4724">4</text>
<line fill="none" stroke="#FFFFFF" stroke-width="0.2843" x1="327.022" y1="46.211" x2="327.022" y2="256.571"/>
<text transform="matrix(1 0 0 1 323.6105 276.5117)" fill="#FFFFFF" font-family="'ArialMT'" font-size="10.4724">6</text>
<line fill="none" stroke="#FFFFFF" stroke-width="0.2843" x1="412.304" y1="46.211" x2="412.304" y2="256.571"/>
<text transform="matrix(1 0 0 1 408.8917 276.5117)" fill="#FFFFFF" font-family="'ArialMT'" font-size="10.4724">8</text>
<line fill="none" stroke="#FFFFFF" stroke-width="0.2843" x1="497.585" y1="46.211" x2="497.585" y2="256.571"/>
<text transform="matrix(1 0 0 1 494.174 276.5117)" fill="#FFFFFF" font-family="'ArialMT'" font-size="10.4724">10</text>
<line fill="none" stroke="#FFFFFF" stroke-width="0.2843" x1="582.298" y1="46.211" x2="582.298" y2="256.571"/>
<text transform="matrix(1 0 0 1 578.8849 276.5117)" fill="#FFFFFF" font-family="'ArialMT'" font-size="10.4724">12</text>
<line fill="none" stroke="#FFFFFF" stroke-width="0.2843" x1="667.579" y1="46.211" x2="667.579" y2="256.571"/>
<text transform="matrix(1 0 0 1 664.1671 276.5117)" fill="#FFFFFF" font-family="'ArialMT'" font-size="10.4724">14</text>
<line fill="none" stroke="#FFFFFF" stroke-width="0.2843" x1="752.292" y1="46.211" x2="752.292" y2="256.571"/>
<text transform="matrix(1 0 0 1 748.8781 276.5117)" fill="#FFFFFF" font-family="'ArialMT'" font-size="10.4724">16</text>
<line fill="none" stroke="#FFFFFF" stroke-width="0.3092" x1="837.573" y1="48.101" x2="837.573" y2="256.571"/>
<text transform="matrix(1 0 0 1 834.1613 276.5117)" fill="#FFFFFF" font-family="'ArialMT'" font-size="10.4724">18</text>
<line fill="none" stroke="#FFFFFF" stroke-width="0.3106" x1="922.855" y1="46.211" x2="922.855" y2="256.571"/>
<text transform="matrix(1 0 0 1 919.4425 276.5117)" fill="#FFFFFF" font-family="'ArialMT'" font-size="10.4724">20</text>
<line fill="none" stroke="#FFFFFF" stroke-width="0.3106" x1="1007.567" y1="46.211" x2="1007.567" y2="256.571"/>
<text transform="matrix(1 0 0 1 1004.1544 276.5117)" fill="#FFFFFF" font-family="'ArialMT'" font-size="10.4724">22</text>
<line fill="none" stroke="#FFFFFF" stroke-width="0.3106" x1="1092.849" y1="46.211" x2="1092.849" y2="256.571"/>
<text transform="matrix(1 0 0 1 1089.4357 276.5117)" fill="#FFFFFF" font-family="'ArialMT'" font-size="10.4724">24</text>
<line fill="none" stroke="#FFFFFF" stroke-width="0.2511" x1="1177.561" y1="48.1" x2="1177.561" y2="256.571"/>
<text transform="matrix(1 0 0 1 1174.1495 276.5117)" fill="#FFFFFF" font-family="'ArialMT'" font-size="10.4724">26</text>
<text transform="matrix(1 0 0 1 84.255 48.1006)" fill="#FFFFFF" font-family="'ArialMT'" font-size="11.4244">Min</text>
<text transform="matrix(1 0 0 1 263.3448 34.459)" fill="#FFFFFF" font-family="'ArialMT'" font-size="13">Avg</text>
<text transform="matrix(1 0 0 1 774.464 49.0537)" fill="#FFFFFF" font-family="'ArialMT'" font-size="11.4244">Max</text>
<text transform="matrix(1 0 0 1 488.899 34.0115)" fill="#FFFFFF" font-family="'AdobeSongStd-Light-GBpc-EUC-H'" font-size="13">周琦</text>
<g>
	<text transform="matrix(1 0 0 1 16.6691 50.1914)" fill="#FFFFFF" font-family="'HYTieXianHei-EEJ'" font-size="11.4244">篮板</text>
</g>
<line fill="none" stroke="#FFFFFF" stroke-width="1.1371" x1="107.565" y1="46.211" x2="769.348" y2="46.211"/>
<line fill="none" stroke="#DCDDDD" stroke-width="10.5636" x1="158.734" y1="46.211" x2="470.295" y2="46.211"/>
<circle fill="#FFFFFF" stroke="#FFFFFF" stroke-width="0.2843" cx="107.565" cy="46.211" r="2.843"/>
<circle fill="#595757" stroke="#FFFFFF" stroke-width="1.4085" cx="269.031" cy="46.211" r="5.117"/>
<circle fill="#FFFFFF" stroke="#FFFFFF" stroke-width="0.2843" cx="769.348" cy="46.211" r="2.843"/>
<circle fill="#3261C7" stroke="#FFFFFF" stroke-width="0.2843" cx="497.585" cy="46.211" r="2.843"/>
<g>
	<text transform="matrix(1 0 0 1 16.6691 84.3037)" fill="#FFFFFF" font-family="'HYTieXianHei-EEJ'" font-size="11.4244">得分</text>
</g>
<line fill="none" stroke="#FFFFFF" stroke-width="1.1371" x1="128.601" y1="80.323" x2="1135.489" y2="80.323"/>
<line fill="none" stroke="#DCDDDD" stroke-width="10.5636" x1="190.004" y1="80.323" x2="774.465" y2="80.323"/>
<circle fill="#FFFFFF" stroke="#FFFFFF" stroke-width="0.2843" cx="128.601" cy="80.323" r="2.843"/>
<circle fill="#595757" stroke="#FFFFFF" stroke-width="1.4085" cx="390.131" cy="80.323" r="5.117"/>
<circle fill="#595757" stroke="#FFFFFF" stroke-width="2.2383" cx="974.799" cy="322.683" r="8.131"/>
<circle fill="#FFFFFF" stroke="#FFFFFF" stroke-width="0.2843" cx="1135.489" cy="80.323" r="2.843"/>
<circle fill="#3261C7" stroke="#FFFFFF" stroke-width="0.2843" cx="752.292" cy="80.323" r="2.843"/>
<g>
	<text transform="matrix(1 0 0 1 16.6691 118.416)" fill="#FFFFFF" font-family="'HYTieXianHei-EEJ'" font-size="11.4244">助攻</text>
</g>
<line fill="none" stroke="#FFFFFF" stroke-width="1.1371" x1="72.316" y1="114.436" x2="276.422" y2="114.436"/>
<line fill="none" stroke="#DCDDDD" stroke-width="10.5636" x1="82.549" y1="114.436" x2="121.779" y2="114.436"/>
<circle fill="#FFFFFF" stroke="#FFFFFF" stroke-width="0.2843" cx="72.316" cy="114.436" r="2.843"/>
<circle fill="#595757" stroke="#FFFFFF" stroke-width="1.4085" cx="99.037" cy="114.436" r="5.117"/>
<circle fill="#FFFFFF" stroke="#FFFFFF" stroke-width="0.2843" cx="276.422" cy="114.436" r="2.843"/>
<circle fill="#3261C7" stroke="#FFFFFF" stroke-width="0.2843" cx="122.916" cy="114.436" r="2.843"/>
<g>
	<text transform="matrix(1 0 0 1 16.6691 152.5283)" fill="#FFFFFF" font-family="'HYTieXianHei-EEJ'" font-size="11.4244">抢断</text>
</g>
<line fill="none" stroke="#FFFFFF" stroke-width="1.1371" x1="72.316" y1="148.548" x2="170.105" y2="148.548"/>
<line fill="none" stroke="#DCDDDD" stroke-width="10.5636" x1="82.549" y1="148.548" x2="109.839" y2="148.548"/>
<circle fill="#FFFFFF" stroke="#FFFFFF" stroke-width="0.2843" cx="72.316" cy="148.548" r="2.843"/>
<circle fill="#595757" stroke="#FFFFFF" stroke-width="1.4085" cx="92.215" cy="148.548" r="5.117"/>
<circle fill="#FFFFFF" stroke="#FFFFFF" stroke-width="0.2843" cx="170.105" cy="148.548" r="2.843"/>
<circle fill="#3261C7" stroke="#FFFFFF" stroke-width="0.2843" cx="122.916" cy="148.548" r="2.843"/>
<g>
	<text transform="matrix(1 0 0 1 16.6691 186.6396)" fill="#FFFFFF" font-family="'HYTieXianHei-EEJ'" font-size="11.4244">盖帽</text>
</g>
<line fill="none" stroke="#FFFFFF" stroke-width="1.1371" x1="72.316" y1="182.661" x2="174.085" y2="182.661"/>
<line fill="none" stroke="#DCDDDD" stroke-width="10.5636" x1="77.432" y1="182.661" x2="106.428" y2="182.661"/>
<circle fill="#FFFFFF" stroke="#FFFFFF" stroke-width="0.2843" cx="72.316" cy="182.661" r="2.843"/>
<circle fill="#595757" stroke="#FFFFFF" stroke-width="1.4085" cx="88.803" cy="182.661" r="5.117"/>
<circle stroke="#FFFFFF" stroke-width="0.2843" cx="174.085" cy="182.661" r="2.843"/>
<circle fill="#3261C7" stroke="#FFFFFF" stroke-width="0.2843" cx="170.105" cy="182.661" r="2.843"/>
<g>
	<text transform="matrix(1 0 0 1 16.6691 220.7529)" fill="#FFFFFF" font-family="'HYTieXianHei-EEJ'" font-size="11.4244">失误</text>
</g>
<line fill="none" stroke="#FFFFFF" stroke-width="1.1371" x1="72.316" y1="216.773" x2="220.705" y2="216.773"/>
<line fill="none" stroke="#DCDDDD" stroke-width="10.5636" x1="97.331" y1="216.773" x2="161.577" y2="216.773"/>
<circle fill="#FFFFFF" stroke="#FFFFFF" stroke-width="0.2843" cx="72.316" cy="216.773" r="2.843"/>
<circle fill="#FFFFFF" stroke="#FFFFFF" stroke-width="0.2843" cx="220.705" cy="216.773" r="2.843"/>
<circle fill="#3261C7" stroke="#FFFFFF" stroke-width="0.2843" cx="157.028" cy="216.773" r="2.843"/>
<g>
	<text transform="matrix(1 0 0 1 16.6691 254.8652)" fill="#FFFFFF" font-family="'HYTieXianHei-EEJ'" font-size="11.4244">犯规</text>
</g>
<line fill="none" stroke="#FFFFFF" stroke-width="1.1371" x1="87.098" y1="250.886" x2="246.29" y2="250.886"/>
<line fill="none" stroke="#DCDDDD" stroke-width="10.5636" x1="147.363" y1="250.886" x2="205.354" y2="250.886"/>
<line fill="none" stroke="#DCDDDD" stroke-width="11.0215" x1="1075.499" y1="321.875" x2="1133.491" y2="321.875"/>
<circle fill="#FFFFFF" stroke="#FFFFFF" stroke-width="0.2843" cx="87.098" cy="250.886" r="2.843"/>
<circle fill="#595757" stroke="#FFFFFF" stroke-width="0.2843" cx="172.948" cy="250.886" r="5.117"/>
<circle fill="#FFFFFF" stroke="#FFFFFF" stroke-width="0.2843" cx="246.289" cy="250.886" r="2.843"/>
<circle fill="#3261C7" stroke="#FFFFFF" stroke-width="0.2843" cx="174.085" cy="250.886" r="2.843"/>
<rect x="491.108" y="40.113" transform="matrix(0.7071 -0.7071 0.7071 0.7071 112.7951 365.4918)" fill="#E52C2C" stroke="#F7F8F8" stroke-width="0.7042" width="12.955" height="12.955"/>
<rect x="116.723" y="107.958" transform="matrix(0.7071 -0.7071 0.7071 0.7071 -44.8339 120.6331)" fill="#E52C2C" stroke="#F7F8F8" stroke-width="0.7042" width="12.955" height="12.955"/>
<rect x="150.551" y="210.296" transform="matrix(0.7071 -0.7071 0.7071 0.7071 -107.2894 174.5273)" fill="#E52C2C" stroke="#F7F8F8" stroke-width="0.7042" width="12.955" height="12.955"/>
<rect x="167.892" y="244.409" transform="matrix(0.7071 -0.7071 0.7071 0.7071 -126.3316 196.7803)" fill="#E52C2C" stroke="#F7F8F8" stroke-width="0.7042" width="12.955" height="12.955"/>
<rect x="163.628" y="176.184" transform="matrix(0.7071 -0.7071 0.7071 0.7071 -79.3382 173.7824)" fill="#E52C2C" stroke="#F7F8F8" stroke-width="0.7042" width="12.955" height="12.955"/>
<rect x="116.439" y="142.071" transform="matrix(0.7071 -0.7071 0.7071 0.7071 -69.0383 130.4234)" fill="#E52C2C" stroke="#F7F8F8" stroke-width="0.7042" width="12.955" height="12.955"/>
<rect x="745.815" y="73.846" transform="matrix(0.7071 -0.7071 0.7071 0.7071 163.5441 555.4769)" fill="#E52C2C" stroke="#F7F8F8" stroke-width="0.7042" width="12.955" height="12.955"/>
<rect x="968.322" y="342.756" transform="matrix(0.7071 -0.7071 0.7071 0.7071 38.5669 791.575)" fill="#E52C2C" stroke="#F7F8F8" stroke-width="0.7042" width="12.955" height="12.955"/>
<circle fill="#595757" stroke="#FFFFFF" stroke-width="1.4085" cx="114.388" cy="216.773" r="5.117"/>
<text transform="matrix(1 0 0 1 996.5009 325.8833)" fill="#FFFFFF" font-family="'HYTieXianHei-EEJ'" font-size="9.1551"> 联盟中值</text>
<text transform="matrix(1 0 0 1 996.5009 354.3674)" fill="#FFFFFF" font-family="'HYTieXianHei-EEJ'" font-size="9.1551"> 周琦数据</text>
<text transform="matrix(1 0 0 1 1075.0573 354.3674)" fill="#FFFFFF" font-family="'HYTieXianHei-EEJ'" font-size="9.1551">同位置球员正常范围</text>
<rect x="857.83" y="299.081" fill="none" width="111.903" height="18.007"/>
</svg>
