<?xml version="1.0" encoding="utf-8"?>
<!-- Generator: Adobe Illustrator 17.0.0, SVG Export Plug-In . SVG Version: 6.00 Build 0)  -->
<!DOCTYPE svg PUBLIC "-//W3C//DTD SVG 1.1//EN" "http://www.w3.org/Graphics/SVG/1.1/DTD/svg11.dtd">
<svg version="1.1" id="图层_1" xmlns="http://www.w3.org/2000/svg" xmlns:xlink="http://www.w3.org/1999/xlink" x="0px" y="0px"
	 width="1475px" height="434.615px" viewBox="0 0 1475 434.615" enable-background="new 0 0 1475 434.615" xml:space="preserve">
<rect x="217.612" y="202.08" transform="matrix(-0.7071 0.7071 -0.7071 -0.7071 704.5505 205.7855)" fill="#DCDDDD" stroke="#FFFFFF" stroke-width="0.5664" width="184.087" height="93.459"/>
<g>
	
		<text transform="matrix(0.7071 -0.7071 0.7071 0.7071 317.5179 255.3906)" fill="#727171" font-family="'FZLTXHK'" font-size="8.0302">亚当斯</text>
</g>
<rect x="32.627" y="197.49" transform="matrix(-0.7071 0.7071 -0.7071 -0.7071 287.3325 310.5143)" fill="#DCDDDD" stroke="#FFFFFF" stroke-width="0.5664" width="93.459" height="34.552"/>
<g>
	
		<text transform="matrix(0.7071 -0.7071 0.7071 0.7071 87.2148 221.3448)" fill="#727171" font-family="'FZLTXHK'" font-size="8.0302">俞长栋</text>
</g>
<g transform="translate(5,5)">
	
		<rect x="18.773" y="205.667" transform="matrix(-0.7071 0.7071 -0.7071 -0.7071 192.2065 358.3407)" fill="#DCDDDD" stroke="#FFFFFF" stroke-width="0.5664" width="6.231" height="26.622"/>
	<title>卡米然斯地克江:</title>
</g>
<rect x="89.501" y="247.567" transform="matrix(-0.7071 0.7071 -0.7071 -0.7071 424.6381 367.3882)" fill="#DCDDDD" stroke="#FFFFFF" stroke-width="0.5664" width="93.459" height="48.146"/>
<g>
	
		<text transform="matrix(0.7071 -0.7071 0.7071 0.7071 142.4378 279.8721)" fill="#727171" font-family="'FZLTXHK'" font-size="8.0302">可兰白克</text>
</g>
<rect x="177.386" y="61.277" transform="matrix(-0.7071 0.7071 -0.7071 -0.7071 462.3955 20.5184)" fill="#F22525" width="99.124" height="89.495"/>
<text transform="matrix(0.7071 -0.7071 0.7071 0.7071 228.4303 121.3928)" fill="#FFFFFF" font-family="'FZLTXHK'" font-size="13.6514">周琦</text>
<g transform="translate(16,5)">
	
		<rect x="12.179" y="201.261" transform="matrix(-0.7071 0.7071 -0.7071 -0.7071 177.8341 355.4825)" fill="#DCDDDD" stroke="#FFFFFF" stroke-width="0.5664" width="6.231" height="26.622"/>
	<title>唐才育:</title>
</g>
<rect x="34.611" y="186.235" transform="matrix(-0.7071 0.7071 -0.7071 -0.7071 228.7093 304.3573)" fill="#DCDDDD" stroke="#FFFFFF" stroke-width="0.5664" width="33.419" height="26.622"/>
<g>
	
		<text transform="matrix(0.7071 -0.7071 0.7071 0.7071 45.337 213.261)" fill="#727171" font-family="'FZLTXHK'" font-size="8.0302">孙鸣阳</text>
</g>
<rect x="160.538" y="157.751" transform="matrix(-0.7071 0.7071 -0.7071 -0.7071 566.7613 148.7113)" fill="#DCDDDD" stroke="#FFFFFF" stroke-width="0.5664" width="184.087" height="67.971"/>
<g>
	
		<text transform="matrix(0.7071 -0.7071 0.7071 0.7071 260.4431 198.3173)" fill="#727171" font-family="'FZLTXHK'" font-size="8.0302">布莱切</text>
</g>
<rect x="58.661" y="221.258" transform="matrix(-0.7071 0.7071 -0.7071 -0.7071 350.1836 336.5481)" fill="#DCDDDD" stroke="#FFFFFF" stroke-width="0.5664" width="93.459" height="39.083"/>
<g>
	
		<text transform="matrix(0.7071 -0.7071 0.7071 0.7071 113.2513 247.3814)" fill="#727171" font-family="'FZLTXHK'" font-size="8.0302">张桐林</text>
</g>
<rect x="119.382" y="126.362" transform="matrix(-0.7071 0.7071 -0.7071 -0.7071 397.311 177.6463)" fill="#DCDDDD" stroke="#FFFFFF" stroke-width="0.5664" width="84.963" height="89.495"/>
<g>
	
		<text transform="matrix(0.7071 -0.7071 0.7071 0.7071 169.7239 177.6893)" fill="#727171" font-family="'FZLTXHK'" font-size="8.0302">本特尔</text>
</g>
<rect x="170.005" y="312.778" transform="matrix(-0.7071 0.7071 -0.7071 -0.7071 618.9933 447.8927)" fill="#DCDDDD" stroke="#FFFFFF" stroke-width="0.5664" width="93.459" height="78.733"/>
<g>
	
		<text transform="matrix(0.7071 -0.7071 0.7071 0.7071 226.2476 357.0741)" fill="#727171" font-family="'FZLTXHK'" font-size="8.0302">李根</text>
</g>
<rect x="153.255" y="44.651" transform="matrix(-0.7071 0.7071 -0.7071 -0.7071 370.2932 -37.4563)" fill="#DCDDDD" stroke="#FFFFFF" stroke-width="0.5664" width="79.299" height="26.622"/>
<g>
	
		<text transform="matrix(0.7071 -0.7071 0.7071 0.7071 193.6792 70.4473)" fill="#727171" font-family="'FZLTXHK'" font-size="8.0302">王子瑞</text>
</g>
<g transform="translate(27,5)">
	
		<rect x="5.253" y="196.054" transform="matrix(-0.7071 0.7071 -0.7071 -0.7071 164.2627 350.6905)" fill="#DCDDDD" stroke="#FFFFFF" stroke-width="0.5664" width="8.496" height="26.622"/>
	<title>王政博:</title>
</g>
<rect x="97.182" y="100.724" transform="matrix(-0.7071 0.7071 -0.7071 -0.7071 314.2204 97.9154)" fill="#DCDDDD" stroke="#FFFFFF" stroke-width="0.5664" width="79.299" height="26.622"/>
<g>
	
		<text transform="matrix(0.7071 -0.7071 0.7071 0.7071 131.6989 126.5209)" fill="#727171" font-family="'FZLTXHK'" font-size="8.0302">罗旭东</text>
</g>
<rect x="124.346" y="281.279" transform="matrix(-0.7071 0.7071 -0.7071 -0.7071 508.762 402.2334)" fill="#DCDDDD" stroke="#FFFFFF" stroke-width="0.5664" width="93.459" height="50.411"/>
<g>
	
		<text transform="matrix(0.7071 -0.7071 0.7071 0.7071 177.2835 314.7178)" fill="#727171" font-family="'FZLTXHK'" font-size="8.0302">西热力江</text>
</g>
<rect x="53.679" y="151.59" transform="matrix(-0.7071 0.7071 -0.7071 -0.7071 263.3543 220.7169)" fill="#DCDDDD" stroke="#FFFFFF" stroke-width="0.5664" width="64.572" height="26.622"/>
<g>
	
		<text transform="matrix(0.7071 -0.7071 0.7071 0.7071 74.9794 184.044)" fill="#727171" font-family="'FZLTXHK'" font-size="8.0302">阿布都沙拉木</text>
</g>
<rect x="662.361" y="70.935" transform="matrix(-0.7071 0.7071 -0.7071 -0.7071 1293.3927 -309.4735)" fill="#DCDDDD" stroke="#FFFFFF" stroke-width="0.5664" width="96.858" height="84.397"/>
<text transform="matrix(0.7071 -0.7071 0.7071 0.7071 718.6549 119.7128)" fill="#727171" font-family="'FZLTXHK'" font-size="8.0302">亚当斯</text>
<rect x="594.965" y="273.077" transform="matrix(-0.7071 0.7071 -0.7071 -0.7071 1304.1625 66.5595)" fill="#DCDDDD" stroke="#FFFFFF" stroke-width="0.5664" width="86.662" height="60.607"/>
<text transform="matrix(0.7071 -0.7071 0.7071 0.7071 636.7123 317.0505)" fill="#727171" font-family="'FZLTXHK'" font-size="8.0302">俞长栋</text>
<rect x="504.122" y="209.528" fill="#BF6969" stroke="#FFFFFF" stroke-width="0.5664" width="0" height="41.915"/>
<rect x="625.922" y="44.114" transform="matrix(-0.7071 0.7071 -0.7071 -0.7071 1188.9832 -362.3505)" fill="#DCDDDD" stroke="#FFFFFF" stroke-width="0.5664" width="87.229" height="41.915"/>
<text transform="matrix(0.7071 -0.7071 0.7071 0.7071 675.7489 73.3023)" fill="#727171" font-family="'FZLTXHK'" font-size="8.0302">可兰白克</text>
<rect x="638.178" y="165.349" transform="matrix(-0.7071 0.7071 -0.7071 -0.7071 1395.5212 -173.1446)" fill="#F22525" stroke="#FFFFFF" stroke-width="0.5664" width="190.884" height="74.201"/>
<text transform="matrix(0.7071 -0.7071 0.7071 0.7071 734.3027 217.0155)" fill="#FFFFFF" font-family="'FZLTXHK'" font-size="13.6514">周琦</text>
<rect x="504.122" y="209.528" fill="#BF6969" stroke="#FFFFFF" stroke-width="0.5664" width="0" height="41.915"/>
<rect x="503.454" y="191.505" transform="matrix(-0.7071 0.7071 -0.7071 -0.7071 1041.5917 -6.5162)" fill="#DCDDDD" stroke="#FFFFFF" stroke-width="0.5664" width="37.384" height="41.915"/>
<text transform="matrix(0.7071 -0.7071 0.7071 0.7071 522.8743 221.4522)" fill="#727171" font-family="'FZLTXHK'" font-size="8.0302">孙鸣阳</text>
<rect x="691.648" y="217.402" transform="matrix(-0.7071 0.7071 -0.7071 -0.7071 1524.6079 -119.6752)" fill="#DCDDDD" stroke="#FFFFFF" stroke-width="0.5664" width="190.884" height="77.033"/>
<text transform="matrix(0.7071 -0.7071 0.7071 0.7071 794.954 262.4993)" fill="#727171" font-family="'FZLTXHK'" font-size="8.0302">布莱切</text>
<rect x="596.29" y="138.423" transform="matrix(-0.7071 0.7071 -0.7071 -0.7071 1225.905 -146.5439)" fill="#DCDDDD" stroke="#FFFFFF" stroke-width="0.5664" width="94.026" height="84.397"/>
<text transform="matrix(0.7071 -0.7071 0.7071 0.7071 651.1666 187.201)" fill="#727171" font-family="'FZLTXHK'" font-size="8.0302">张桐林</text>
<rect x="644.63" y="313.112" transform="matrix(-0.7071 0.7071 -0.7071 -0.7071 1424.0631 116.224)" fill="#DCDDDD" stroke="#FFFFFF" stroke-width="0.5664" width="86.662" height="79.865"/>
<text transform="matrix(0.7071 -0.7071 0.7071 0.7071 687.558 365.5339)" fill="#727171" font-family="'FZLTXHK'" font-size="8.0302">本特尔</text>
<rect x="521.87" y="208.195" transform="matrix(-0.7071 0.7071 -0.7071 -0.7071 1127.6957 -6.5353)" fill="#DCDDDD" stroke="#FFFFFF" stroke-width="0.5664" width="86.662" height="44.181"/>
<text transform="matrix(0.7071 -0.7071 0.7071 0.7071 574.7162 235.2139)" fill="#727171" font-family="'FZLTXHK'" font-size="8.0302">李根</text>
<rect x="529.39" y="163.869" transform="matrix(-0.7071 0.7071 -0.7071 -0.7071 1069.2277 -73.2352)" fill="#DCDDDD" stroke="#FFFFFF" stroke-width="0.5664" width="40.782" height="41.915"/>
<text transform="matrix(0.7071 -0.7071 0.7071 0.7071 549.3297 193.8161)" fill="#727171" font-family="'FZLTXHK'" font-size="8.0302">王子瑞</text>
<rect x="503.127" y="207.125" transform="matrix(-0.7071 0.7071 -0.7071 -0.7071 1025.9716 31.1945)" fill="#DCDDDD" stroke="#FFFFFF" stroke-width="0.5664" width="6.797" height="41.915"/>
<rect x="592.284" y="94.179" transform="matrix(-0.7071 0.7071 -0.7071 -0.7071 1138.9182 -241.4829)" fill="#DCDDDD" stroke="#FFFFFF" stroke-width="0.5664" width="54.376" height="41.915"/>
<text transform="matrix(0.7071 -0.7071 0.7071 0.7071 623.3198 125.7314)" fill="#727171" font-family="'FZLTXHK'" font-size="8.0302">罗旭东</text>
<rect x="555.514" y="238.44" transform="matrix(-0.7071 0.7071 -0.7071 -0.7071 1208.9187 27.1083)" fill="#DCDDDD" stroke="#FFFFFF" stroke-width="0.5664" width="86.662" height="50.978"/>
<text transform="matrix(0.7071 -0.7071 0.7071 0.7071 605.0576 272.1637)" fill="#727171" font-family="'FZLTXHK'" font-size="8.0302">西热力江</text>
<rect x="556.735" y="131.427" transform="matrix(-0.7071 0.7071 -0.7071 -0.7071 1101.6698 -151.5574)" fill="#DCDDDD" stroke="#FFFFFF" stroke-width="0.5664" width="50.978" height="41.915"/>
<text transform="matrix(0.7071 -0.7071 0.7071 0.7071 571.9957 170.3462)" fill="#727171" font-family="'FZLTXHK'" font-size="8.0302">阿布都沙拉木</text>
<rect x="1113.14" y="74.39" transform="matrix(-0.7071 0.7071 -0.7071 -0.7071 2009.6433 -657.0202)" fill="#DCDDDD" stroke="#FFFFFF" stroke-width="0.5664" width="55.509" height="26.622"/>
<g>
	
		<text transform="matrix(0.7071 -0.7071 0.7071 0.7071 1148.7622 94.2804)" fill="#727171" font-family="'FZLTXHK'" font-size="8.0302">亚当斯</text>
</g>
<rect x="1152.723" y="321.06" transform="matrix(-0.7071 0.7071 -0.7071 -0.7071 2270.1304 -213.8017)" fill="#DCDDDD" stroke="#FFFFFF" stroke-width="0.5664" width="53.244" height="84.397"/>
<g>
	
		<text transform="matrix(0.7071 -0.7071 0.7071 0.7071 1182.395 374.6596)" fill="#727171" font-family="'FZLTXHK'" font-size="8.0302">俞长栋</text>
</g>
<rect x="1003.517" y="211.768" fill="#BF6969" stroke="#FFFFFF" stroke-width="0.5664" width="0" height="26.622"/>
<rect x="1064.008" y="246.789" transform="matrix(-0.7071 0.7071 -0.7071 -0.7071 2055.9529 -302.5169)" fill="#DCDDDD" stroke="#FFFFFF" stroke-width="0.5664" width="53.244" height="55.509"/>
<g>
	
		<text transform="matrix(0.7071 -0.7071 0.7071 0.7071 1092.027 287.595)" fill="#727171" font-family="'FZLTXHK'" font-size="8.0302">可兰白克</text>
</g>
<rect x="1181.866" y="49.552" transform="matrix(-0.7071 0.7071 -0.7071 -0.7071 2257.3579 -585.0002)" fill="#F22525" stroke="#FFFFFF" stroke-width="0.5664" width="135.941" height="250.924"/>
<text transform="matrix(0.7071 -0.7071 0.7071 0.7071 1254.5406 184.7628)" fill="#FFFFFF" font-family="'FZLTXHK'" font-size="13.6514">周琦</text>
<rect x="1003.517" y="211.768" fill="#BF6969" stroke="#FFFFFF" stroke-width="0.5664" width="0" height="26.622"/>
<rect x="1034.639" y="152.892" transform="matrix(-0.7071 0.7071 -0.7071 -0.7071 1931.1416 -467.4998)" fill="#DCDDDD" stroke="#FFFFFF" stroke-width="0.5664" width="55.509" height="26.622"/>
<g>
	
		<text transform="matrix(0.7071 -0.7071 0.7071 0.7071 1070.2606 172.782)" fill="#727171" font-family="'FZLTXHK'" font-size="8.0302">孙鸣阳</text>
</g>
<rect x="1126.353" y="128.855" transform="matrix(-0.7071 0.7071 -0.7071 -0.7071 2178.0549 -393.5458)" fill="#DCDDDD" stroke="#FFFFFF" stroke-width="0.5664" width="88.362" height="250.924"/>
<g>
	
		<text transform="matrix(0.7071 -0.7071 0.7071 0.7071 1178.4034 260.9)" fill="#727171" font-family="'FZLTXHK'" font-size="8.0302">布莱切</text>
</g>
<rect x="1152.391" y="35.139" transform="matrix(-0.7071 0.7071 -0.7071 -0.7071 2048.8943 -751.7804)" fill="#DCDDDD" stroke="#FFFFFF" stroke-width="0.5664" width="55.509" height="26.622"/>
<g>
	
		<text transform="matrix(0.7071 -0.7071 0.7071 0.7071 1188.0139 55.0287)" fill="#727171" font-family="'FZLTXHK'" font-size="8.0302">张桐林</text>
</g>
<rect x="1024.757" y="207.538" transform="matrix(-0.7071 0.7071 -0.7071 -0.7071 1961.1926 -341.7679)" fill="#DCDDDD" stroke="#FFFFFF" stroke-width="0.5664" width="53.244" height="55.509"/>
<g>
	
		<text transform="matrix(0.7071 -0.7071 0.7071 0.7071 1055.2301 245.0854)" fill="#727171" font-family="'FZLTXHK'" font-size="8.0302">本特尔</text>
</g>
<rect x="1073.889" y="113.641" transform="matrix(-0.7071 0.7071 -0.7071 -0.7071 1970.3923 -562.2599)" fill="#DCDDDD" stroke="#FFFFFF" stroke-width="0.5664" width="55.509" height="26.622"/>
<g>
	
		<text transform="matrix(0.7071 -0.7071 0.7071 0.7071 1111.1633 131.8779)" fill="#727171" font-family="'FZLTXHK'" font-size="8.0302">李根</text>
</g>
<rect x="1003.517" y="211.768" fill="#BF6969" stroke="#FFFFFF" stroke-width="0.5664" width="0" height="26.622"/>
<rect x="1003.517" y="211.768" fill="#BF6969" stroke="#FFFFFF" stroke-width="0.5664" width="0" height="26.622"/>
<rect x="1003.517" y="211.768" fill="#BF6969" stroke="#FFFFFF" stroke-width="0.5664" width="0" height="26.622"/>
<rect x="1103.259" y="286.04" transform="matrix(-0.7071 0.7071 -0.7071 -0.7071 2150.7131 -263.266)" fill="#DCDDDD" stroke="#FFFFFF" stroke-width="0.5664" width="53.244" height="55.509"/>
<g>
	
		<text transform="matrix(0.7071 -0.7071 0.7071 0.7071 1131.2786 326.846)" fill="#727171" font-family="'FZLTXHK'" font-size="8.0302">西热力江</text>
</g>
<rect x="995.388" y="192.143" transform="matrix(-0.7071 0.7071 -0.7071 -0.7071 1891.8906 -372.7396)" fill="#DCDDDD" stroke="#FFFFFF" stroke-width="0.5664" width="55.509" height="26.622"/>
<g>
	
		<text transform="matrix(0.7071 -0.7071 0.7071 0.7071 1018.8242 224.2171)" fill="#727171" font-family="'FZLTXHK'" font-size="8.0302">阿布都沙拉木</text>
</g>
<text transform="matrix(1 0 0 1 386.8303 407.2712)" fill="#FFFFFF" font-family="'HYTieXianHei-EEJ'" font-size="19.2724">场均得分</text>
<g>
	<g>
		<path fill="none" stroke="#FFFFFF" stroke-width="0.803" d="M392.179,378.604c-1.585-33.729-34.55-60.735-75.446-61.617"/>
		<g>
			<path fill="#FFFFFF" d="M392.153,378.316c-0.769-0.724-2.256-1.034-3.281-1.032c1.406,0.981,2.646,2.275,3.368,3.863
				c0.595-1.629,1.828-2.939,3.126-4.061C394.271,377.207,392.948,377.516,392.153,378.316z"/>
		</g>
		<g>
			
				<rect x="314.665" y="314.881" transform="matrix(0.0417 -0.9991 0.9991 0.0417 -13.144 620.4056)" fill="#FFFFFF" width="4.347" height="4.347"/>
		</g>
	</g>
</g>
<text transform="matrix(1 0 0 1 876.4026 407.2712)" fill="#FFFFFF" font-family="'HYTieXianHei-EEJ'" font-size="19.2724">场均篮板</text>
<g>
	<g>
		<path fill="none" stroke="#FFFFFF" stroke-width="0.803" d="M881.753,378.604c-1.585-33.729-34.55-60.735-75.446-61.617"/>
		<g>
			<path fill="#FFFFFF" d="M881.726,378.316c-0.769-0.724-2.256-1.034-3.281-1.032c1.406,0.981,2.646,2.275,3.368,3.863
				c0.595-1.629,1.828-2.939,3.126-4.061C883.844,377.207,882.521,377.516,881.726,378.316z"/>
		</g>
		<g>
			
				<rect x="804.239" y="314.881" transform="matrix(0.0417 -0.9991 0.9991 0.0417 456.0274 1109.5538)" fill="#FFFFFF" width="4.347" height="4.347"/>
		</g>
	</g>
</g>
<text transform="matrix(1 0 0 1 1374.4866 407.2712)" fill="#FFFFFF" font-family="'HYTieXianHei-EEJ'" font-size="19.2724">场均封盖</text>
<g>
	<g>
		<path fill="none" stroke="#FFFFFF" stroke-width="0.803" d="M1379.836,378.604c-1.585-33.729-34.55-60.735-75.446-61.617"/>
		<g>
			<path fill="#FFFFFF" d="M1379.809,378.316c-0.769-0.724-2.256-1.034-3.281-1.032c1.406,0.981,2.646,2.275,3.368,3.863
				c0.595-1.629,1.828-2.939,3.126-4.061C1381.927,377.207,1380.604,377.516,1379.809,378.316z"/>
		</g>
		<g>
			
				<rect x="1302.322" y="314.881" transform="matrix(0.0417 -0.9991 0.9991 0.0417 933.3535 1607.204)" fill="#FFFFFF" width="4.347" height="4.347"/>
		</g>
	</g>
</g>
<text transform="matrix(1 0 0 1 343.2356 69.0554)"><tspan x="0" y="0" fill="#FFFFFF" font-family="'FZLTXHK'" font-size="16.0603">16-17赛季</tspan><tspan x="0" y="19.272" fill="#FFFFFF" font-family="'FZLTXHK'" font-size="16.0603">周琦场均贡献15.9分</tspan><tspan x="0" y="38.545" fill="#FFFFFF" font-family="'FZLTXHK'" font-size="16.0603">位列新疆队第三</tspan></text>
<text transform="matrix(1 0 0 1 819.2795 69.0554)"><tspan x="0" y="0" fill="#FFFFFF" font-family="'FZLTXHK'" font-size="16.0603">16-17赛季</tspan><tspan x="0" y="19.272" fill="#FFFFFF" font-family="'FZLTXHK'" font-size="16.0603">周琦场均贡献10个篮板</tspan><tspan x="0" y="38.545" fill="#FFFFFF" font-family="'FZLTXHK'" font-size="16.0603">位列新疆队第二</tspan></text>
<text transform="matrix(1 0 0 1 1301.6633 69.0554)"><tspan x="0" y="0" fill="#FFFFFF" font-family="'FZLTXHK'" font-size="16.0603">16-17赛季</tspan><tspan x="0" y="19.272" fill="#FFFFFF" font-family="'FZLTXHK'" font-size="16.0603">周琦场均贡献2.3次封盖</tspan><tspan x="0" y="38.545" fill="#FFFFFF" font-family="'FZLTXHK'" font-size="16.0603">位列新疆队第一</tspan></text>
</svg>
