<?xml version="1.0" encoding="utf-8"?>
<!-- Generator: Adobe Illustrator 17.0.0, SVG Export Plug-In . SVG Version: 6.00 Build 0)  -->
<!DOCTYPE svg PUBLIC "-//W3C//DTD SVG 1.1//EN" "http://www.w3.org/Graphics/SVG/1.1/DTD/svg11.dtd">
<svg version="1.1" id="图层_1" xmlns="http://www.w3.org/2000/svg" xmlns:xlink="http://www.w3.org/1999/xlink" x="0px" y="0px"
	 width="1157.453px" height="332.31px" viewBox="0 0 1157.453 332.31" enable-background="new 0 0 1157.453 332.31"
	 xml:space="preserve">
<rect x="185.392" y="154.939" transform="matrix(-0.7071 0.7071 -0.7071 -0.7071 570.0767 144.5308)" fill="#DCDDDD" stroke="#FFFFFF" stroke-width="0.429" width="139.426" height="70.785"/>
<g>
	
		<text transform="matrix(0.7071 -0.7071 0.7071 0.7071 249.0356 207.2609)" fill="#727171" font-family="'FZLTXHK'" font-size="9.5202">亚当斯</text>
</g>
<rect x="45.286" y="151.463" transform="matrix(-0.7071 0.7071 -0.7071 -0.7071 254.0792 223.8516)" fill="#DCDDDD" stroke="#FFFFFF" stroke-width="0.429" width="70.785" height="26.169"/>
<g>
	
		<text transform="matrix(0.7071 -0.7071 0.7071 0.7071 74.6074 181.4757)" fill="#727171" font-family="'FZLTXHK'" font-size="9.5202">俞长栋</text>
</g>
<g transform="translate(5,5)">
	
		<rect x="33.58" y="156.443" transform="matrix(-0.7071 0.7071 -0.7071 -0.7071 179.1031 258.8619)" fill="#DCDDDD" stroke="#FFFFFF" stroke-width="0.429" width="4.719" height="20.163"/>
	<title>卡米然斯地克江:</title>
</g>
<rect x="88.361" y="189.391" transform="matrix(-0.7071 0.7071 -0.7071 -0.7071 358.0734 266.9275)" fill="#DCDDDD" stroke="#FFFFFF" stroke-width="0.429" width="70.785" height="36.465"/>
<g>
	
		<text transform="matrix(0.7071 -0.7071 0.7071 0.7071 116.4324 225.8031)" fill="#727171" font-family="'FZLTXHK'" font-size="9.5202">可兰白克</text>
</g>
<rect x="154.925" y="48.296" transform="matrix(-0.7071 0.7071 -0.7071 -0.7071 386.6705 4.2111)" fill="#F22525" width="75.075" height="67.782"/>
<text transform="matrix(0.7071 -0.7071 0.7071 0.7071 193.5295 93.8044)" fill="#FFFFFF" font-family="'FZLTXHK'" font-size="10.5781">周琦</text>
<g transform="translate(16,5)">
	
		<rect x="25.917" y="153.106" transform="matrix(-0.7071 0.7071 -0.7071 -0.7071 163.6617 258.5842)" fill="#DCDDDD" stroke="#FFFFFF" stroke-width="0.429" width="4.719" height="20.163"/>
	<title>唐才育:</title>
</g>
<rect x="46.788" y="142.938" transform="matrix(-0.7071 0.7071 -0.7071 -0.7071 209.6785 219.1883)" fill="#DCDDDD" stroke="#FFFFFF" stroke-width="0.429" width="25.311" height="20.163"/>
<rect x="142.165" y="121.365" transform="matrix(-0.7071 0.7071 -0.7071 -0.7071 465.7163 101.3034)" fill="#DCDDDD" stroke="#FFFFFF" stroke-width="0.429" width="139.426" height="51.48"/>
<g>
	
		<text transform="matrix(0.7071 -0.7071 0.7071 0.7071 205.8085 164.0345)" fill="#727171" font-family="'FZLTXHK'" font-size="9.5202">布莱切</text>
</g>
<rect x="65.003" y="169.465" transform="matrix(-0.7071 0.7071 -0.7071 -0.7071 301.6822 243.5694)" fill="#DCDDDD" stroke="#FFFFFF" stroke-width="0.429" width="70.785" height="29.601"/>
<g>
	
		<text transform="matrix(0.7071 -0.7071 0.7071 0.7071 94.3263 201.1945)" fill="#727171" font-family="'FZLTXHK'" font-size="9.5202">张桐林</text>
</g>
<rect x="110.993" y="97.591" transform="matrix(-0.7071 0.7071 -0.7071 -0.7071 337.376 123.2185)" fill="#DCDDDD" stroke="#FFFFFF" stroke-width="0.429" width="64.35" height="67.782"/>
<g>
	
		<text transform="matrix(0.7071 -0.7071 0.7071 0.7071 140.091 145.4185)" fill="#727171" font-family="'FZLTXHK'" font-size="8.4624">本特尔</text>
</g>
<rect x="149.335" y="238.781" transform="matrix(-0.7071 0.7071 -0.7071 -0.7071 505.2763 327.9009)" fill="#DCDDDD" stroke="#FFFFFF" stroke-width="0.429" width="70.785" height="59.631"/>
<g>
	
		<text transform="matrix(0.7071 -0.7071 0.7071 0.7071 179.909 284.2748)" fill="#727171" font-family="'FZLTXHK'" font-size="9.5202">李根</text>
</g>
<rect x="136.648" y="35.704" transform="matrix(-0.7071 0.7071 -0.7071 -0.7071 316.9129 -39.6985)" fill="#DCDDDD" stroke="#FFFFFF" stroke-width="0.429" width="60.06" height="20.163"/>
<g>
	
		<text transform="matrix(0.7071 -0.7071 0.7071 0.7071 157.6177 59.7222)" fill="#727171" font-family="'FZLTXHK'" font-size="9.5202">王子瑞</text>
</g>
<g transform="translate(27,5)">
	
		<rect x="18.002" y="149.162" transform="matrix(-0.7071 0.7071 -0.7071 -0.7071 148.8271 256.8418)" fill="#DCDDDD" stroke="#FFFFFF" stroke-width="0.429" width="6.435" height="20.163"/>
	<title>王政博:</title>
</g>
<rect x="94.179" y="78.173" transform="matrix(-0.7071 0.7071 -0.7071 -0.7071 274.4439 62.8309)" fill="#DCDDDD" stroke="#FFFFFF" stroke-width="0.429" width="60.06" height="20.163"/>
<g>
	
		<text transform="matrix(0.7071 -0.7071 0.7071 0.7071 115.1485 102.1914)" fill="#727171" font-family="'FZLTXHK'" font-size="9.5202">罗旭东</text>
</g>
<rect x="114.753" y="214.924" transform="matrix(-0.7071 0.7071 -0.7071 -0.7071 421.7881 293.3189)" fill="#DCDDDD" stroke="#FFFFFF" stroke-width="0.429" width="70.785" height="38.181"/>
<g>
	
		<text transform="matrix(0.7071 -0.7071 0.7071 0.7071 142.8239 252.1946)" fill="#727171" font-family="'FZLTXHK'" font-size="9.5202">西热力江</text>
</g>
<rect x="61.231" y="116.699" transform="matrix(-0.7071 0.7071 -0.7071 -0.7071 235.9183 155.8398)" fill="#DCDDDD" stroke="#FFFFFF" stroke-width="0.429" width="48.906" height="20.163"/>
<g>
	
		<text transform="matrix(0.7071 -0.7071 0.7071 0.7071 72.3507 145.5969)" fill="#727171" font-family="'FZLTXHK'" font-size="7.4046">阿布都沙拉木</text>
</g>
<rect x="519.162" y="57.09" transform="matrix(-0.7071 0.7071 -0.7071 -0.7071 1011.8491 -241.0199)" fill="#DCDDDD" stroke="#FFFFFF" stroke-width="0.429" width="73.359" height="63.921"/>
<text transform="matrix(0.7071 -0.7071 0.7071 0.7071 553.5121 102.2381)" fill="#727171" font-family="'FZLTXHK'" font-size="9.5202">亚当斯</text>
<rect x="468.116" y="210.191" transform="matrix(-0.7071 0.7071 -0.7071 -0.7071 1020.006 43.7845)" fill="#DCDDDD" stroke="#FFFFFF" stroke-width="0.429" width="65.637" height="45.903"/>
<text transform="matrix(0.7071 -0.7071 0.7071 0.7071 497.1096 247.8273)" fill="#727171" font-family="'FZLTXHK'" font-size="9.5202">俞长栋</text>
<rect x="399.312" y="162.06" fill="#BF6969" stroke="#FFFFFF" stroke-width="0.429" width="0" height="31.746"/>
<rect x="491.563" y="36.776" transform="matrix(-0.7071 0.7071 -0.7071 -0.7071 932.7702 -281.0686)" fill="#DCDDDD" stroke="#FFFFFF" stroke-width="0.429" width="66.066" height="31.746"/>
<text transform="matrix(0.7071 -0.7071 0.7071 0.7071 515.7803 66.3398)" fill="#727171" font-family="'FZLTXHK'" font-size="9.5202">可兰白克</text>
<rect x="500.846" y="128.598" transform="matrix(-0.7071 0.7071 -0.7071 -0.7071 1089.2006 -137.7655)" fill="#F22525" stroke="#FFFFFF" stroke-width="0.429" width="144.574" height="56.199"/>
<text transform="matrix(0.7071 -0.7071 0.7071 0.7071 566.8594 169.9498)" fill="#FFFFFF" font-family="'FZLTXHK'" font-size="10.5781">周琦</text>
<rect x="399.312" y="162.06" fill="#BF6969" stroke="#FFFFFF" stroke-width="0.429" width="0" height="31.746"/>
<rect x="398.806" y="148.409" transform="matrix(-0.7071 0.7071 -0.7071 -0.7071 821.1371 -11.5626)" fill="#DCDDDD" stroke="#FFFFFF" stroke-width="0.429" width="28.314" height="31.746"/>
<text transform="matrix(0.7071 -0.7071 0.7071 0.7071 408.0611 174.0589)" fill="#727171" font-family="'FZLTXHK'" font-size="7.4046">孙鸣阳</text>
<rect x="541.343" y="168.023" transform="matrix(-0.7071 0.7071 -0.7071 -0.7071 1186.9696 -97.2682)" fill="#DCDDDD" stroke="#FFFFFF" stroke-width="0.429" width="144.574" height="58.344"/>
<text transform="matrix(0.7071 -0.7071 0.7071 0.7071 603.0731 211.1312)" fill="#727171" font-family="'FZLTXHK'" font-size="9.5202">布莱切</text>
<rect x="469.12" y="108.205" transform="matrix(-0.7071 0.7071 -0.7071 -0.7071 960.7346 -117.6184)" fill="#DCDDDD" stroke="#FFFFFF" stroke-width="0.429" width="71.214" height="63.921"/>
<text transform="matrix(0.7071 -0.7071 0.7071 0.7071 502.3975 153.3528)" fill="#727171" font-family="'FZLTXHK'" font-size="9.5202">张桐林</text>
<rect x="505.732" y="240.513" transform="matrix(-0.7071 0.7071 -0.7071 -0.7071 1110.8177 81.3999)" fill="#DCDDDD" stroke="#FFFFFF" stroke-width="0.429" width="65.637" height="60.489"/>
<text transform="matrix(0.7071 -0.7071 0.7071 0.7071 534.7257 285.4435)" fill="#727171" font-family="'FZLTXHK'" font-size="9.5202">本特尔</text>
<rect x="412.755" y="161.05" transform="matrix(-0.7071 0.7071 -0.7071 -0.7071 886.3516 -11.577)" fill="#DCDDDD" stroke="#FFFFFF" stroke-width="0.429" width="65.637" height="33.462"/>
<text transform="matrix(0.7071 -0.7071 0.7071 0.7071 444.4951 189.7174)" fill="#727171" font-family="'FZLTXHK'" font-size="9.5202">李根</text>
<rect x="418.45" y="127.478" transform="matrix(-0.7071 0.7071 -0.7071 -0.7071 842.0684 -62.0949)" fill="#DCDDDD" stroke="#FFFFFF" stroke-width="0.429" width="30.888" height="31.746"/>
<text transform="matrix(0.7071 -0.7071 0.7071 0.7071 428.2447 153.8753)" fill="#727171" font-family="'FZLTXHK'" font-size="7.4046">王子瑞</text>
<rect x="398.559" y="160.239" transform="matrix(-0.7071 0.7071 -0.7071 -0.7071 809.3065 16.9992)" fill="#DCDDDD" stroke="#FFFFFF" stroke-width="0.429" width="5.148" height="31.746"/>
<rect x="466.085" y="74.695" transform="matrix(-0.7071 0.7071 -0.7071 -0.7071 894.8514 -189.5244)" fill="#DCDDDD" stroke="#FFFFFF" stroke-width="0.429" width="41.184" height="31.746"/>
<text transform="matrix(0.7071 -0.7071 0.7071 0.7071 479.811 102.309)" fill="#727171" font-family="'FZLTXHK'" font-size="9.5202">罗旭东</text>
<rect x="438.236" y="183.957" transform="matrix(-0.7071 0.7071 -0.7071 -0.7071 947.8693 13.9044)" fill="#DCDDDD" stroke="#FFFFFF" stroke-width="0.429" width="65.637" height="38.61"/>
<text transform="matrix(0.7071 -0.7071 0.7071 0.7071 464.4837 220.6944)" fill="#727171" font-family="'FZLTXHK'" font-size="9.5202">西热力江</text>
<rect x="439.161" y="102.906" transform="matrix(-0.7071 0.7071 -0.7071 -0.7071 866.6398 -121.4155)" fill="#DCDDDD" stroke="#FFFFFF" stroke-width="0.429" width="38.61" height="31.746"/>
<text transform="matrix(0.7071 -0.7071 0.7071 0.7071 447.6545 133.8551)" fill="#727171" font-family="'FZLTXHK'" font-size="6.3468">阿布都沙拉木</text>
<rect x="860.092" y="54.935" transform="matrix(-0.7071 0.7071 -0.7071 -0.7071 1550.1271 -512.0513)" fill="#DCDDDD" stroke="#FFFFFF" stroke-width="0.429" width="42.042" height="20.163"/>
<g>
	
		<text transform="matrix(0.7071 -0.7071 0.7071 0.7071 875.7937 76.7081)" fill="#727171" font-family="'FZLTXHK'" font-size="9.5202">亚当斯</text>
</g>
<rect x="890.071" y="241.761" transform="matrix(-0.7071 0.7071 -0.7071 -0.7071 1747.4178 -176.3614)" fill="#DCDDDD" stroke="#FFFFFF" stroke-width="0.429" width="40.326" height="63.921"/>
<g>
	
		<text transform="matrix(0.7071 -0.7071 0.7071 0.7071 902.7621 287.5678)" fill="#727171" font-family="'FZLTXHK'" font-size="9.5202">俞长栋</text>
</g>
<rect x="777.064" y="158.984" fill="#BF6969" stroke="#FFFFFF" stroke-width="0.429" width="0" height="20.163"/>
<rect x="822.879" y="185.508" transform="matrix(-0.7071 0.7071 -0.7071 -0.7071 1585.2017 -243.5536)" fill="#DCDDDD" stroke="#FFFFFF" stroke-width="0.429" width="40.326" height="42.042"/>
<g>
	
		<text transform="matrix(0.7071 -0.7071 0.7071 0.7071 832.8221 223.1217)" fill="#727171" font-family="'FZLTXHK'" font-size="9.5202">可兰白克</text>
</g>
<rect x="912.144" y="36.123" transform="matrix(-0.7071 0.7071 -0.7071 -0.7071 1737.744 -457.504)" fill="#F22525" stroke="#FFFFFF" stroke-width="0.429" width="102.961" height="190.048"/>
<text transform="matrix(0.7071 -0.7071 0.7071 0.7071 961.8915 143.7417)" fill="#FFFFFF" font-family="'FZLTXHK'" font-size="10.5781">周琦</text>
<rect x="777.064" y="158.984" fill="#BF6969" stroke="#FFFFFF" stroke-width="0.429" width="0" height="20.163"/>
<rect x="800.635" y="114.391" transform="matrix(-0.7071 0.7071 -0.7071 -0.7071 1490.6704 -368.5102)" fill="#DCDDDD" stroke="#FFFFFF" stroke-width="0.429" width="42.042" height="20.163"/>
<g>
	
		<text transform="matrix(0.7071 -0.7071 0.7071 0.7071 816.337 136.1648)" fill="#727171" font-family="'FZLTXHK'" font-size="9.5202">孙鸣阳</text>
</g>
<rect x="870.099" y="96.186" transform="matrix(-0.7071 0.7071 -0.7071 -0.7071 1677.6808 -312.4981)" fill="#DCDDDD" stroke="#FFFFFF" stroke-width="0.429" width="66.924" height="190.048"/>
<g>
	
		<text transform="matrix(0.7071 -0.7071 0.7071 0.7071 898.2422 202.9025)" fill="#727171" font-family="'FZLTXHK'" font-size="9.5202">布莱切</text>
</g>
<rect x="889.82" y="25.206" transform="matrix(-0.7071 0.7071 -0.7071 -0.7071 1579.8555 -583.822)" fill="#DCDDDD" stroke="#FFFFFF" stroke-width="0.429" width="42.042" height="20.163"/>
<g>
	
		<text transform="matrix(0.7071 -0.7071 0.7071 0.7071 905.5222 46.9796)" fill="#727171" font-family="'FZLTXHK'" font-size="9.5202">张桐林</text>
</g>
<rect x="793.151" y="155.78" transform="matrix(-0.7071 0.7071 -0.7071 -0.7071 1513.4309 -273.282)" fill="#DCDDDD" stroke="#FFFFFF" stroke-width="0.429" width="40.326" height="42.042"/>
<g>
	
		<text transform="matrix(0.7071 -0.7071 0.7071 0.7071 804.9528 190.9255)" fill="#727171" font-family="'FZLTXHK'" font-size="9.5202">本特尔</text>
</g>
<rect x="830.363" y="84.663" transform="matrix(-0.7071 0.7071 -0.7071 -0.7071 1520.3989 -440.2808)" fill="#DCDDDD" stroke="#FFFFFF" stroke-width="0.429" width="42.042" height="20.163"/>
<g>
	
		<text transform="matrix(0.7071 -0.7071 0.7071 0.7071 847.3164 105.184)" fill="#727171" font-family="'FZLTXHK'" font-size="9.5202">李根</text>
</g>
<rect x="777.064" y="158.984" fill="#BF6969" stroke="#FFFFFF" stroke-width="0.429" width="0" height="20.163"/>
<rect x="777.064" y="158.984" fill="#BF6969" stroke="#FFFFFF" stroke-width="0.429" width="0" height="20.163"/>
<rect x="777.064" y="158.984" fill="#BF6969" stroke="#FFFFFF" stroke-width="0.429" width="0" height="20.163"/>
<rect x="852.608" y="215.236" transform="matrix(-0.7071 0.7071 -0.7071 -0.7071 1656.972 -213.8252)" fill="#DCDDDD" stroke="#FFFFFF" stroke-width="0.429" width="40.326" height="42.042"/>
<g>
	
		<text transform="matrix(0.7071 -0.7071 0.7071 0.7071 862.5506 252.8495)" fill="#727171" font-family="'FZLTXHK'" font-size="9.5202">西热力江</text>
</g>
<rect x="770.907" y="144.12" transform="matrix(-0.7071 0.7071 -0.7071 -0.7071 1460.942 -296.7395)" fill="#DCDDDD" stroke="#FFFFFF" stroke-width="0.429" width="42.042" height="20.163"/>
<g>
	
		<text transform="matrix(0.7071 -0.7071 0.7071 0.7071 781.8675 170.6329)" fill="#727171" font-family="'FZLTXHK'" font-size="6.3468">阿布都沙拉木</text>
</g>
<text transform="matrix(1 0 0 1 313.5567 310.3503)" fill="#FFFFFF" font-family="'HYTieXianHei-EEJ'" font-size="14.5967">场均得分</text>
<g>
	<g>
		<path fill="none" stroke="#FFFFFF" stroke-width="0.6082" d="M317.608,288.637c-1.2-25.546-26.167-46-57.142-46.669"/>
		<g>
			<path fill="#FFFFFF" d="M317.588,288.419c-0.583-0.548-1.709-0.783-2.485-0.782c1.065,0.743,2.004,1.723,2.551,2.926
				c0.451-1.234,1.384-2.226,2.367-3.076C319.192,287.579,318.19,287.813,317.588,288.419z"/>
		</g>
		<g>
			
				<rect x="258.899" y="240.374" transform="matrix(0.0417 -0.9991 0.9991 0.0417 7.8775 492.2533)" fill="#FFFFFF" width="3.292" height="3.292"/>
		</g>
	</g>
</g>
<text transform="matrix(1 0 0 1 681.275 311.8288)" fill="#FFFFFF" font-family="'HYTieXianHei-EEJ'" font-size="14.5967">场均篮板</text>
<g>
	<g>
		<path fill="none" stroke="#FFFFFF" stroke-width="0.6082" d="M685.327,290.116c-1.2-25.546-26.167-46-57.142-46.669"/>
		<g>
			<path fill="#FFFFFF" d="M685.307,289.898c-0.583-0.548-1.709-0.784-2.485-0.782c1.065,0.743,2.004,1.723,2.551,2.926
				c0.45-1.234,1.384-2.226,2.367-3.076C686.911,289.058,685.909,289.292,685.307,289.898z"/>
		</g>
		<g>
			
				<rect x="626.619" y="241.853" transform="matrix(0.0417 -0.9991 0.9991 0.0417 358.7947 861.0702)" fill="#FFFFFF" width="3.292" height="3.292"/>
		</g>
	</g>
</g>
<text transform="matrix(1 0 0 1 1058.0328 307.0564)" fill="#FFFFFF" font-family="'HYTieXianHei-EEJ'" font-size="14.5967">场均封盖</text>
<g>
	<g>
		<path fill="none" stroke="#FFFFFF" stroke-width="0.6082" d="M1062.085,285.344c-1.2-25.546-26.167-46-57.142-46.669"/>
		<g>
			<path fill="#FFFFFF" d="M1062.064,285.126c-0.583-0.548-1.709-0.784-2.485-0.782c1.065,0.743,2.004,1.723,2.551,2.926
				c0.45-1.234,1.384-2.226,2.367-3.076C1063.669,284.286,1062.667,284.52,1062.064,285.126z"/>
		</g>
		<g>
			
				<rect x="1003.376" y="237.081" transform="matrix(0.0417 -0.9991 0.9991 0.0417 724.619 1232.9274)" fill="#FFFFFF" width="3.292" height="3.292"/>
		</g>
	</g>
</g>
<text transform="matrix(1 0 0 1 280.5372 54.1876)"><tspan x="0" y="0" fill="#FFFFFF" font-family="'FZLTXHK'" font-size="12.164">16-17赛季</tspan><tspan x="0" y="14.597" fill="#FFFFFF" font-family="'FZLTXHK'" font-size="12.164">周琦场均贡献15.9分</tspan><tspan x="0" y="29.193" fill="#FFFFFF" font-family="'FZLTXHK'" font-size="12.164">位列新疆队第三</tspan></text>
<text transform="matrix(1 0 0 1 638.0104 55.6657)"><tspan x="0" y="0" fill="#FFFFFF" font-family="'FZLTXHK'" font-size="12.164">16-17赛季</tspan><tspan x="0" y="14.597" fill="#FFFFFF" font-family="'FZLTXHK'" font-size="12.164">周琦场均贡献10个篮板</tspan><tspan x="0" y="29.193" fill="#FFFFFF" font-family="'FZLTXHK'" font-size="12.164">位列新疆队第二</tspan></text>
<text transform="matrix(1 0 0 1 1002.8765 50.8942)"><tspan x="0" y="0" fill="#FFFFFF" font-family="'FZLTXHK'" font-size="12.164">16-17赛季</tspan><tspan x="0" y="14.597" fill="#FFFFFF" font-family="'FZLTXHK'" font-size="12.164">周琦场均贡献2.3次封盖</tspan><tspan x="0" y="29.193" fill="#FFFFFF" font-family="'FZLTXHK'" font-size="12.164">位列新疆队第一</tspan></text>
</svg>
