<?xml version="1.0" encoding="utf-8"?>
<!-- Generator: Adobe Illustrator 17.0.0, SVG Export Plug-In . SVG Version: 6.00 Build 0)  -->
<!DOCTYPE svg PUBLIC "-//W3C//DTD SVG 1.1//EN" "http://www.w3.org/Graphics/SVG/1.1/DTD/svg11.dtd">
<svg version="1.1" id="图层_1" xmlns="http://www.w3.org/2000/svg" xmlns:xlink="http://www.w3.org/1999/xlink" x="0px" y="0px"
	 width="1080px" height="507.408px" viewBox="0 0 1080 507.408" enable-background="new 0 0 1080 507.408" xml:space="preserve">
<text transform="matrix(1 0 0 1 1010.2921 350.5641)" fill="#3E3A39" font-family="'HYYuanLongHei-CEJ-GBpc-EUC-H'" font-size="9.3602">新疆队比分</text>
<text transform="matrix(1 0 0 1 1006.4796 408.9289)" fill="#3E3A39" font-family="'HYYuanLongHei-CEJ-GBpc-EUC-H'" font-size="9.3602">周琦得分</text>
<line fill="none" stroke="#727171" stroke-width="0.3649" x1="999.468" y1="337.154" x2="1005.539" y2="343.225"/>
<text transform="matrix(1 0 0 1 272.8766 287.6359)" font-family="'ArialMT'" font-size="6.7434">10</text>
<text transform="matrix(1.0542 0 0 1 547.1598 287.6359)" font-family="'ArialMT'" font-size="6.7434">20</text>
<text transform="matrix(1 0 0 1 821.3375 287.6359)" font-family="'ArialMT'" font-size="6.7434">30</text>
<g>
	<rect y="0" fill="#F7F8F8" width="1080" height="507.408"/>
	<line fill="none" stroke="#CCCCCC" stroke-width="0.4857" x1="276.463" y1="460.763" x2="276.463" y2="59.884"/>
	<line fill="none" stroke="#CCCCCC" stroke-width="0.4857" x1="550.693" y1="460.763" x2="550.693" y2="59.884"/>
	<line fill="none" stroke="#CCCCCC" stroke-width="0.4857" x1="824.924" y1="460.763" x2="824.924" y2="59.884"/>
	<line fill="none" stroke="#CCCCCC" stroke-width="0.4484" x1="24.736" y1="310.442" x2="824.636" y2="310.442"/>
	<line fill="none" stroke="#CCCCCC" stroke-width="0.4806" x1="24.736" y1="360.549" x2="823.86" y2="360.549"/>
	<line fill="none" stroke="#005FAF" stroke-width="1.276" x1="24.736" y1="410.656" x2="823.86" y2="410.656"/>
	<line fill="none" stroke="#CCCCCC" stroke-width="0.5503" x1="24.736" y1="460.763" x2="1072.325" y2="460.763"/>
	<line fill="none" stroke="#CCCCCC" stroke-width="0.4808" x1="24.736" y1="260.332" x2="824.636" y2="260.332"/>
	<line fill="none" stroke="#CCCCCC" stroke-width="0.5503" x1="24.736" y1="210.22" x2="1072.325" y2="210.22"/>
	<line fill="none" stroke="#CCCCCC" stroke-width="0.5503" x1="24.736" y1="160.108" x2="1072.325" y2="160.108"/>
	<line fill="none" stroke="#CCCCCC" stroke-width="0.5503" x1="24.736" y1="109.996" x2="1072.325" y2="109.996"/>
	<line fill="none" stroke="#CCCCCC" stroke-width="0.5503" x1="24.736" y1="59.884" x2="1072.325" y2="59.884"/>
</g>
<g>
	<circle cx="331.021" cy="310.442" r="0.593"/>
</g>
<rect x="327.986" y="313.597" transform="matrix(0.7071 -0.7071 0.7071 0.7071 -126.9388 326.8068)" fill="#727171" width="6.07" height="6.07"/>
<text transform="matrix(1 0 0 1 58.7203 438.1096)" fill="#9FA0A0" font-family="'HYTieXianHei-EEJ'" font-size="22"> 常规赛晋级资格</text>
<g>
	<circle fill="#BF6969" fill-opacity="0.9" cx="56.791" cy="60.23" r="7.88"/>
</g>
<g>
	<circle fill="#BF6969" fill-opacity="0.9" cx="84.214" cy="60.23" r="8.199"/>
</g>
<g>
	<circle fill="#BF6969" fill-opacity="0.9" cx="111.637" cy="60.23" r="7.88"/>
</g>
<g>
	<circle fill="#BF6969" fill-opacity="0.9" cx="139.06" cy="60.23" r="8.233"/>
</g>
<g>
	<circle fill="#BF6969" fill-opacity="0.9" cx="166.483" cy="60.23" r="8.094"/>
</g>
<g>
	<circle fill="#BF6969" fill-opacity="0.9" cx="193.906" cy="60.23" r="7.511"/>
</g>
<g>
	<circle fill="#69BFBF" fill-opacity="0.9" cx="248.752" cy="210.22" r="7.202"/>
</g>
<g>
	<circle fill="#BF6969" fill-opacity="0.9" cx="303.598" cy="160.108" r="7.988"/>
</g>
<g>
	<circle fill="#69BFBF" fill-opacity="0.9" cx="331.021" cy="310.442" r="7.435"/>
</g>
<g>
	<circle fill="#BF6969" fill-opacity="0.9" cx="358.444" cy="259.084" r="8.059"/>
</g>
<g>
	<circle fill="#BF6969" fill-opacity="0.9" cx="385.867" cy="210.424" r="7.162"/>
</g>
<g>
	<circle fill="#BF6969" fill-opacity="0.9" cx="413.29" cy="210.424" r="8.302"/>
</g>
<g>
	<circle fill="#BF6969" fill-opacity="0.9" cx="440.714" cy="210.424" r="8.438"/>
</g>
<g>
	<circle fill="#BF6969" fill-opacity="0.9" cx="468.137" cy="210.424" r="7.952"/>
</g>
<g>
	<circle fill="#BF6969" fill-opacity="0.9" cx="495.56" cy="159.764" r="8.268"/>
</g>
<g>
	<circle fill="#BF6969" fill-opacity="0.9" cx="522.983" cy="159.764" r="7.698"/>
</g>
<g>
	<circle fill="#69BFBF" fill-opacity="0.9" cx="550.406" cy="159.764" r="7.358"/>
</g>
<g>
	<circle fill="#BF6969" fill-opacity="0.9" cx="577.829" cy="159.764" r="8.638"/>
</g>
<g>
	<circle fill="#69BFBF" fill-opacity="0.9" cx="605.252" cy="159.764" r="7.435"/>
</g>
<g>
	<circle fill="#BF6969" fill-opacity="0.9" cx="632.675" cy="159.764" r="8.769"/>
</g>
<g>
	<circle fill="#BF6969" fill-opacity="0.9" cx="660.479" cy="159.764" r="7.698"/>
</g>
<g>
	<circle fill="#BF6969" fill-opacity="0.9" cx="687.521" cy="159.764" r="7.88"/>
</g>
<g>
	<circle fill="#BF6969" fill-opacity="0.9" cx="714.944" cy="110.104" r="8.769"/>
</g>
<g>
	<circle fill="#BF6969" fill-opacity="0.9" cx="742.367" cy="110.104" r="8.572"/>
</g>
<g>
	<circle fill="#BF6969" fill-opacity="0.9" cx="769.79" cy="110.104" r="8.024"/>
</g>
<g>
	<circle fill="#BF6969" fill-opacity="0.9" cx="797.213" cy="110.104" r="8.769"/>
</g>
<g>
	<circle fill="#69BFBF" fill-opacity="0.9" cx="824.636" cy="110.104" r="7.549"/>
</g>
<g>
	<circle fill="#BF6969" fill-opacity="0.9" cx="852.059" cy="110.104" r="7.88"/>
</g>
<g>
	<circle fill="#BF6969" fill-opacity="0.9" cx="879.482" cy="61.444" r="8.865"/>
</g>
<g>
	<circle fill="#BF6969" fill-opacity="0.9" cx="906.906" cy="61.444" r="7.844"/>
</g>
<g>
	<circle fill="#BF6969" fill-opacity="0.9" cx="934.329" cy="61.444" r="8.572"/>
</g>
<g>
	<circle fill="#BF6969" fill-opacity="0.9" cx="961.752" cy="61.444" r="7.916"/>
</g>
<g>
	<circle fill="#BF6969" fill-opacity="0.9" cx="989.175" cy="61.444" r="7.549"/>
</g>
<g>
	<circle fill="#BF6969" fill-opacity="0.9" cx="1016.598" cy="61.444" r="8.199"/>
</g>
<g>
	<circle fill="#BF6969" fill-opacity="0.9" cx="1044.021" cy="61.444" r="8.37"/>
</g>
<g>
	<circle fill="#BF6969" fill-opacity="0.9" cx="29.368" cy="60.23" r="7.916"/>
</g>
<g>
	<circle cx="56.791" cy="60.23" r="0.593"/>
</g>
<g>
	<circle cx="1071.444" cy="61.444" r="0.593"/>
</g>
<g>
	<circle cx="84.214" cy="60.23" r="0.593"/>
</g>
<g>
	<circle cx="111.637" cy="60.23" r="0.593"/>
</g>
<g>
	<circle cx="139.06" cy="60.23" r="0.593"/>
</g>
<g>
	<circle cx="166.483" cy="60.23" r="0.593"/>
</g>
<g>
	<circle cx="193.906" cy="60.23" r="0.593"/>
</g>
<g>
	<circle cx="248.752" cy="210.22" r="0.593"/>
</g>
<g>
	<circle cx="303.598" cy="160.108" r="0.593"/>
</g>
<g>
	<circle cx="358.444" cy="259.084" r="0.593"/>
</g>
<g>
	<circle cx="385.867" cy="210.424" r="0.593"/>
</g>
<g>
	<circle cx="413.29" cy="210.424" r="0.593"/>
</g>
<g>
	<circle cx="440.714" cy="210.424" r="0.593"/>
</g>
<g>
	<circle cx="468.137" cy="210.424" r="0.593"/>
</g>
<g>
	<circle cx="495.56" cy="159.764" r="0.593"/>
</g>
<g>
	<circle cx="522.983" cy="159.764" r="0.593"/>
</g>
<g>
	<circle cx="550.406" cy="159.764" r="0.593"/>
</g>
<g>
	<circle cx="577.829" cy="159.764" r="0.593"/>
</g>
<g>
	<circle cx="605.252" cy="159.764" r="0.593"/>
</g>
<g>
	<circle cx="632.675" cy="159.764" r="0.593"/>
</g>
<g>
	<circle cx="660.098" cy="159.764" r="0.593"/>
</g>
<g>
	<circle cx="687.521" cy="159.764" r="0.593"/>
</g>
<g>
	<circle cx="714.944" cy="110.104" r="0.593"/>
</g>
<g>
	<circle cx="742.367" cy="110.104" r="0.593"/>
</g>
<g>
	<circle cx="769.79" cy="110.104" r="0.593"/>
</g>
<g>
	<circle cx="797.213" cy="110.104" r="0.593"/>
</g>
<g>
	<circle cx="824.636" cy="110.104" r="0.593"/>
</g>
<g>
	<circle cx="852.059" cy="110.104" r="0.593"/>
</g>
<g>
	<circle cx="879.482" cy="61.444" r="0.593"/>
</g>
<g>
	<circle cx="906.906" cy="61.444" r="0.593"/>
</g>
<g>
	<circle cx="934.329" cy="61.444" r="0.593"/>
</g>
<g>
	<circle cx="961.752" cy="61.444" r="0.593"/>
</g>
<g>
	<circle cx="989.175" cy="61.444" r="0.593"/>
</g>
<g>
	<circle cx="1016.598" cy="61.444" r="0.593"/>
</g>
<g>
	<circle cx="1044.021" cy="61.444" r="0.593"/>
</g>
<g>
	<circle cx="29.368" cy="60.23" r="0.593"/>
</g>
<rect x="214.368" y="153.147" transform="matrix(0.7071 -0.7071 0.7071 0.7071 -48.3877 203.3978)" fill="#DCDDDD" width="13.922" height="13.922"/>
<rect x="241.55" y="203.018" transform="matrix(0.7071 -0.7071 0.7071 0.7071 -75.7902 237.4663)" fill="#DCDDDD" width="14.404" height="14.404"/>
<rect x="323.586" y="303.007" transform="matrix(0.7071 -0.7071 0.7071 0.7071 -122.5616 324.9937)" fill="#DCDDDD" width="14.87" height="14.87"/>
<rect x="543.048" y="152.406" transform="matrix(0.7071 -0.7071 0.7071 0.7071 48.2401 435.9894)" fill="#DCDDDD" width="14.716" height="14.716"/>
<rect x="597.817" y="152.329" transform="matrix(0.7071 -0.7071 0.7071 0.7071 64.3042 474.7714)" fill="#DCDDDD" width="14.87" height="14.87"/>
<rect x="817.088" y="102.555" transform="matrix(0.7071 -0.7071 0.7071 0.7071 163.6753 615.3547)" fill="#DCDDDD" width="15.098" height="15.098"/>
<rect x="21.451" y="52.349" transform="matrix(0.7071 -0.7071 0.7071 0.7071 -34.0129 38.4175)" fill="#F22525" width="15.833" height="15.833"/>
<rect x="48.91" y="52.421" transform="matrix(-0.7071 0.7071 -0.7071 -0.7071 139.5877 62.7848)" fill="#F22525" width="15.761" height="15.761"/>
<rect x="76.015" y="52.031" transform="matrix(0.7071 -0.7071 0.7071 0.7071 -17.9305 77.2064)" fill="#F22525" width="16.432" height="16.432"/>
<rect x="103.756" y="52.349" transform="matrix(0.7071 -0.7071 0.7071 0.7071 -9.8913 96.5801)" fill="#F22525" width="15.761" height="15.761"/>
<rect x="130.826" y="51.997" transform="matrix(0.7071 -0.7071 0.7071 0.7071 -1.8593 115.9711)" fill="#F22525" width="16.467" height="16.467"/>
<rect x="158.389" y="52.136" transform="matrix(0.7071 -0.7071 0.7071 0.7071 6.1727 135.3622)" fill="#F22525" width="16.188" height="16.188"/>
<rect x="186.395" y="52.719" transform="matrix(0.7071 -0.7071 0.7071 0.7071 14.2047 154.7532)" fill="#F22525" width="15.022" height="15.022"/>
<rect x="267.278" y="201.916" transform="matrix(0.7071 -0.7071 0.7071 0.7071 -68.1776 257.0311)" fill="#F22525" width="17.795" height="17.795"/>
<rect x="295.61" y="152.12" transform="matrix(0.7071 -0.7071 0.7071 0.7071 -24.2915 261.5709)" fill="#F22525" width="15.976" height="15.976"/>
<rect x="350.385" y="251.025" transform="matrix(0.7071 -0.7071 0.7071 0.7071 -78.2139 329.3423)" fill="#F22525" width="16.118" height="16.118"/>
<rect x="378.705" y="203.262" transform="matrix(0.7071 -0.7071 0.7071 0.7071 -35.7742 334.4812)" fill="#F22525" width="14.324" height="14.324"/>
<rect x="404.988" y="202.122" transform="matrix(0.7071 -0.7071 0.7071 0.7071 -27.7421 353.8722)" fill="#F22525" width="16.604" height="16.604"/>
<rect x="432.275" y="201.986" transform="matrix(0.7071 -0.7071 0.7071 0.7071 -19.7101 373.2633)" fill="#F22525" width="16.876" height="16.876"/>
<rect x="460.184" y="202.471" transform="matrix(0.7071 -0.7071 0.7071 0.7071 -11.6781 392.6543)" fill="#F22525" width="15.905" height="15.905"/>
<rect x="487.292" y="151.496" transform="matrix(0.7071 -0.7071 0.7071 0.7071 32.1761 397.2073)" fill="#F22525" width="16.536" height="16.536"/>
<rect x="515.285" y="152.066" transform="matrix(0.7071 -0.7071 0.7071 0.7071 40.2081 416.5984)" fill="#F22525" width="15.396" height="15.396"/>
<rect x="569.191" y="151.126" transform="matrix(0.7071 -0.7071 0.7071 0.7071 56.2722 455.3804)" fill="#F22525" width="17.276" height="17.276"/>
<rect x="623.906" y="150.995" transform="matrix(0.7071 -0.7071 0.7071 0.7071 72.3362 494.1625)" fill="#F22525" width="17.537" height="17.537"/>
<rect x="652.781" y="152.066" transform="matrix(0.7071 -0.7071 0.7071 0.7071 80.48 513.8232)" fill="#F22525" width="15.396" height="15.396"/>
<rect x="679.641" y="151.883" transform="matrix(0.7071 -0.7071 0.7071 0.7071 88.4003 532.9445)" fill="#F22525" width="15.761" height="15.761"/>
<rect x="706.176" y="101.335" transform="matrix(0.7071 -0.7071 0.7071 0.7071 131.5472 537.7905)" fill="#F22525" width="17.537" height="17.537"/>
<rect x="733.795" y="101.532" transform="matrix(0.7071 -0.7071 0.7071 0.7071 139.5792 557.1815)" fill="#F22525" width="17.144" height="17.144"/>
<rect x="761.767" y="102.08" transform="matrix(0.7071 -0.7071 0.7071 0.7071 147.6113 576.5726)" fill="#F22525" width="16.047" height="16.047"/>
<rect x="788.445" y="101.335" transform="matrix(0.7071 -0.7071 0.7071 0.7071 155.6433 595.9636)" fill="#F22525" width="17.537" height="17.537"/>
<rect x="844.179" y="102.223" transform="matrix(0.7071 -0.7071 0.7071 0.7071 171.7074 634.7457)" fill="#F22525" width="15.761" height="15.761"/>
<rect x="870.617" y="52.578" transform="matrix(0.7071 -0.7071 0.7071 0.7071 214.1471 639.8845)" fill="#F22525" width="17.731" height="17.731"/>
<rect x="899.061" y="53.599" transform="matrix(0.7071 -0.7071 0.7071 0.7071 222.1792 659.2756)" fill="#F22525" width="15.689" height="15.689"/>
<rect x="925.757" y="52.872" transform="matrix(0.7071 -0.7071 0.7071 0.7071 230.2112 678.6666)" fill="#F22525" width="17.144" height="17.144"/>
<rect x="953.835" y="53.527" transform="matrix(0.7071 -0.7071 0.7071 0.7071 238.2432 698.0577)" fill="#F22525" width="15.833" height="15.833"/>
<rect x="981.626" y="53.895" transform="matrix(0.7071 -0.7071 0.7071 0.7071 246.2753 717.4487)" fill="#F22525" width="15.098" height="15.098"/>
<rect x="1008.399" y="53.245" transform="matrix(0.7071 -0.7071 0.7071 0.7071 254.3073 736.8397)" fill="#F22525" width="16.398" height="16.398"/>
<rect x="1035.65" y="53.073" transform="matrix(0.7071 -0.7071 0.7071 0.7071 262.3393 756.2307)" fill="#F22525" width="16.741" height="16.741"/>
<rect x="245.199" y="211.827" transform="matrix(0.7071 -0.7071 0.7071 0.7071 -79.4389 238.9778)" fill="#727171" width="7.106" height="7.106"/>
<rect x="328.016" y="313.627" transform="matrix(0.7071 -0.7071 0.7071 0.7071 -126.9388 326.8068)" fill="#727171" width="6.01" height="6.01"/>
<rect x="547.882" y="164.077" transform="matrix(0.7071 -0.7071 0.7071 0.7071 43.4056 437.9919)" fill="#727171" width="5.047" height="5.047"/>
<rect x="602.217" y="162.951" transform="matrix(0.7071 -0.7071 0.7071 0.7071 59.9044 476.594)" fill="#727171" width="6.07" height="6.07"/>
<rect x="822.003" y="114.421" transform="matrix(0.7071 -0.7071 0.7071 0.7071 158.7603 617.3906)" fill="#727171" width="5.267" height="5.267"/>
<rect x="26.734" y="65.088" transform="matrix(0.7071 -0.7071 0.7071 0.7071 -39.2851 40.6014)" fill="#F49A9A" width="5.267" height="5.267"/>
<rect x="54.504" y="65.94" transform="matrix(0.7071 -0.7071 0.7071 0.7071 -31.6103 60.1404)" fill="#F49A9A" width="4.574" height="4.574"/>
<rect x="81.291" y="64.769" transform="matrix(0.7071 -0.7071 0.7071 0.7071 -23.2068 79.3919)" fill="#F49A9A" width="5.88" height="5.88"/>
<rect x="108.165" y="62.992" transform="matrix(0.7071 -0.7071 0.7071 0.7071 -14.2998 98.4062)" fill="#F49A9A" width="6.944" height="6.944"/>
<rect x="191.272" y="64.494" transform="matrix(0.7071 -0.7071 0.7071 0.7071 9.3275 156.7734)" fill="#F49A9A" width="5.267" height="5.267"/>
<rect x="272.1" y="213.558" transform="matrix(0.7071 -0.7071 0.7071 0.7071 -73.0001 259.0287)" fill="#F49A9A" width="8.15" height="8.15"/>
<rect x="301.19" y="165.591" transform="matrix(0.7071 -0.7071 0.7071 0.7071 -29.8714 263.8822)" fill="#F49A9A" width="4.816" height="4.816"/>
<rect x="355.811" y="264.122" transform="matrix(0.7071 -0.7071 0.7071 0.7071 -83.6391 331.5895)" fill="#F49A9A" width="5.267" height="5.267"/>
<rect x="437.774" y="215.26" transform="matrix(0.7071 -0.7071 0.7071 0.7071 -25.2083 375.5407)" fill="#F49A9A" width="5.88" height="5.88"/>
<rect x="465.009" y="214.12" transform="matrix(0.7071 -0.7071 0.7071 0.7071 -16.5031 394.6529)" fill="#F49A9A" width="6.255" height="6.255"/>
<rect x="492.926" y="165.098" transform="matrix(0.7071 -0.7071 0.7071 0.7071 26.5419 399.5411)" fill="#F49A9A" width="5.267" height="5.267"/>
<rect x="520.349" y="164.292" transform="matrix(0.7071 -0.7071 0.7071 0.7071 35.1439 418.696)" fill="#F49A9A" width="5.267" height="5.267"/>
<rect x="574.357" y="163.597" transform="matrix(0.7071 -0.7071 0.7071 0.7071 51.1063 457.5202)" fill="#F49A9A" width="6.944" height="6.944"/>
<rect x="629.286" y="163.982" transform="matrix(0.7071 -0.7071 0.7071 0.7071 66.9567 496.3907)" fill="#F49A9A" width="6.778" height="6.778"/>
<rect x="657.444" y="163.323" transform="matrix(0.7071 -0.7071 0.7071 0.7071 75.817 515.7546)" fill="#F49A9A" width="6.07" height="6.07"/>
<rect x="684.486" y="163.581" transform="matrix(0.7071 -0.7071 0.7071 0.7071 83.5548 534.9516)" fill="#F49A9A" width="6.07" height="6.07"/>
<rect x="712.536" y="116.691" transform="matrix(0.7071 -0.7071 0.7071 0.7071 125.1867 540.4251)" fill="#F49A9A" width="4.816" height="4.816"/>
<rect x="738.814" y="113.648" transform="matrix(0.7071 -0.7071 0.7071 0.7071 134.5604 559.2604)" fill="#F49A9A" width="7.106" height="7.106"/>
<rect x="767.267" y="115.359" transform="matrix(0.7071 -0.7071 0.7071 0.7071 142.1112 578.8508)" fill="#F49A9A" width="5.047" height="5.047"/>
<rect x="793.504" y="113.538" transform="matrix(0.7071 -0.7071 0.7071 0.7071 150.5915 598.0562)" fill="#F49A9A" width="7.419" height="7.419"/>
<rect x="848.587" y="112.866" transform="matrix(0.7071 -0.7071 0.7071 0.7071 167.2989 636.5717)" fill="#F49A9A" width="6.944" height="6.944"/>
<rect x="876.447" y="66.654" transform="matrix(0.7071 -0.7071 0.7071 0.7071 208.3168 642.2996)" fill="#F49A9A" width="6.07" height="6.07"/>
<rect x="904.382" y="66.442" transform="matrix(0.7071 -0.7071 0.7071 0.7071 216.8604 661.4787)" fill="#F49A9A" width="5.047" height="5.047"/>
<rect x="957.892" y="63.321" transform="matrix(0.7071 -0.7071 0.7071 0.7071 234.1866 699.738)" fill="#F49A9A" width="7.72" height="7.72"/>
<rect x="986.047" y="64.569" transform="matrix(0.7071 -0.7071 0.7071 0.7071 241.8538 719.2801)" fill="#F49A9A" width="6.255" height="6.255"/>
<rect x="1013.858" y="66.425" transform="matrix(0.7071 -0.7071 0.7071 0.7071 248.8481 739.101)" fill="#F49A9A" width="5.479" height="5.479"/>
<rect x="1040.717" y="65.304" transform="matrix(0.7071 -0.7071 0.7071 0.7071 257.273 758.3292)" fill="#F49A9A" width="6.608" height="6.608"/>
<path fill="none" stroke="#727171" stroke-width="1.4948" d="M40.563,60.266"/>
<rect x="922.301" y="284.97" transform="matrix(0.7071 -0.7071 0.7071 0.7071 53.0268 773.3035)" fill="#F22525" width="75.345" height="75.345"/>
<line fill="none" stroke="#727171" stroke-width="0.3649" x1="959.973" y1="414.625" x2="986.258" y2="414.625"/>
<line fill="none" stroke="#727171" stroke-width="0.3649" x1="986.258" y1="414.625" x2="993.433" y2="407.45"/>
<rect x="922.3" y="323.879" transform="matrix(0.7071 -0.7071 0.7071 0.7071 25.5144 784.6992)" fill="#DCDDDD" width="75.345" height="75.345"/>
<rect x="941.388" y="369.958" transform="matrix(0.7071 -0.7071 0.7071 0.7071 6.4278 792.6055)" fill="#727171" width="37.171" height="37.171"/>
<line fill="none" stroke="#727171" stroke-width="0.3649" x1="961.41" y1="337.154" x2="999.468" y2="337.154"/>
<text transform="matrix(1 0 0 1 883.0265 322.1393)" fill="#3E3A39" font-family="'HYYuanLongHei-CEJ-GBpc-EUC-H'" font-size="8.7576">胜</text>
<text transform="matrix(1 0 0 1 883.0265 364.486)" fill="#3E3A39" font-family="'HYYuanLongHei-CEJ-GBpc-EUC-H'" font-size="8.7576">负</text>
<g>
	<g>
		<line fill="none" stroke="#C9CACA" stroke-width="0.67" x1="868.06" y1="268.256" x2="868.06" y2="422.087"/>
		<g>
			<polygon fill="#C9CACA" points="865.579,270.138 868.06,269.084 870.541,270.138 868.06,264.257 			"/>
		</g>
	</g>
</g>
<g>
	<g>
		<line fill="none" stroke="#C9CACA" stroke-width="0.67" x1="868.06" y1="422.087" x2="1058.579" y2="422.087"/>
		<g>
			<polygon fill="#C9CACA" points="1056.698,424.568 1057.751,422.087 1056.698,419.606 1062.579,422.087 			"/>
		</g>
	</g>
</g>
<text transform="matrix(1 0 0 1 903.6061 443.5744)" font-family="'HYYuanLongHei-CEJ-GBpc-EUC-H'" font-size="20">常规赛轮次</text>
<text transform="matrix(0 -1 1 0 856.7238 374.6313)" font-family="'HYYuanLongHei-CEJ-GBpc-EUC-H'" font-size="20">实时排名</text>
<g>
	<text transform="matrix(1 0 0 1 890.0099 249.7182)" fill="#231815" font-family="'FZLTXHK'" font-size="20">如何阅读图表：</text>
</g>
<g>
	<text transform="matrix(1 0 0 1 10.3629 109.9958)" font-family="'ArialMT'" font-size="10">2</text>
</g>
<g>
	<text transform="matrix(1 0 0 1 10.3632 61.5541)" font-family="'ArialMT'" font-size="10">1</text>
</g>
<g>
	<text transform="matrix(1 0 0 1 10.3629 310.4416)" font-family="'ArialMT'" font-size="10">6</text>
</g>
<g>
	<text transform="matrix(1 0 0 1 10.3629 360.549)" font-family="'ArialMT'" font-size="10">7</text>
</g>
<g>
	<text transform="matrix(1 0 0 1 10.3629 410.6562)" font-family="'ArialMT'" font-size="10">8</text>
</g>
<g>
	<text transform="matrix(1 0 0 1 10.3629 461.6664)" font-family="'ArialMT'" font-size="10">9</text>
</g>
<g>
	<text transform="matrix(1 0 0 1 10.3629 260.3234)" font-family="'ArialMT'" font-size="10">5</text>
</g>
<g>
	<text transform="matrix(1 0 0 1 10.3629 210.2199)" font-family="'ArialMT'" font-size="10">4</text>
</g>
<g>
	<text transform="matrix(1 0 0 1 10.3629 160.1078)" font-family="'ArialMT'" font-size="10">3</text>
</g>
</svg>
