<?xml version="1.0" encoding="utf-8"?>
<!-- Generator: Adobe Illustrator 17.0.0, SVG Export Plug-In . SVG Version: 6.00 Build 0)  -->
<!DOCTYPE svg PUBLIC "-//W3C//DTD SVG 1.1//EN" "http://www.w3.org/Graphics/SVG/1.1/DTD/svg11.dtd">
<svg version="1.1" id="图层_1" xmlns="http://www.w3.org/2000/svg" xmlns:xlink="http://www.w3.org/1999/xlink" x="0px" y="0px"
	 width="601.93px" height="488.794px" viewBox="0 0 601.93 488.794" enable-background="new 0 0 601.93 488.794"
	 xml:space="preserve">
<rect x="256.974" y="226.106" transform="matrix(-0.7071 0.7071 -0.7071 -0.7071 835.3839 222.5701)" opacity="0.8" fill="#DCDDDD" stroke="#FFFFFF" stroke-width="0.7054" width="229.244" height="116.386"/>
<g>
	<text transform="matrix(0.7071 -0.7071 0.7071 0.7071 367.3791 292.4541)" fill="#727171" font-family="'FZLTXHK'" font-size="10">亚当斯</text>
</g>
<rect x="26.611" y="220.39" transform="matrix(-0.7071 0.7071 -0.7071 -0.7071 315.8203 352.9895)" opacity="0.8" fill="#DCDDDD" stroke="#FFFFFF" stroke-width="0.7054" width="116.386" height="43.027"/>
<g>
	<text transform="matrix(0.7071 -0.7071 0.7071 0.7071 80.5845 250.0585)" fill="#727171" font-family="'FZLTXHK'" font-size="10">俞长栋</text>
</g>
<g transform="translate(5,5)" opacity="0.8">
	
		<rect x="10.585" y="231.799" transform="matrix(-0.7071 0.7071 -0.7071 -0.7071 200.3206 413.7745)" fill="#DCDDDD" stroke="#FFFFFF" stroke-width="0.7054" width="7.759" height="33.152"/>
	<title>卡米然斯地克江:</title>
</g>
<rect x="97.436" y="282.75" transform="matrix(-0.7071 0.7071 -0.7071 -0.7071 486.8077 423.8148)" opacity="0.8" fill="#DCDDDD" stroke="#FFFFFF" stroke-width="0.7054" width="116.386" height="59.956"/>
<g>
	<text transform="matrix(0.7071 -0.7071 0.7071 0.7071 149.353 322.9413)" fill="#727171" font-family="'FZLTXHK'" font-size="10">可兰白克</text>
</g>
<rect x="206.881" y="50.763" transform="matrix(-0.7071 0.7071 -0.7071 -0.7071 533.8273 -8.1439)" opacity="0.9" fill="#F22525" width="123.439" height="111.448"/>
<text transform="matrix(0.7071 -0.7071 0.7071 0.7071 256.4391 125.586)" fill="#FFFFFF" font-family="'FZLTXHK'" font-size="17">周琦</text>
<g transform="translate(16,5)" opacity="0.8">
	
		<rect x="5.072" y="226.312" transform="matrix(-0.7071 0.7071 -0.7071 -0.7071 187.0289 408.3071)" fill="#DCDDDD" stroke="#FFFFFF" stroke-width="0.7054" width="7.759" height="33.152"/>
	<title>唐才育:</title>
</g>
<rect x="29.081" y="206.374" transform="matrix(-0.7071 0.7071 -0.7071 -0.7071 242.8166 345.3221)" opacity="0.8" fill="#DCDDDD" stroke="#FFFFFF" stroke-width="0.7054" width="41.617" height="33.152"/>
<g>
	<text transform="matrix(0.7071 -0.7071 0.7071 0.7071 41.6704 234.1057)" fill="#727171" font-family="'FZLTXHK'" font-size="10">孙鸣阳</text>
</g>
<rect x="185.899" y="170.902" transform="matrix(-0.7071 0.7071 -0.7071 -0.7071 663.7945 151.4953)" opacity="0.8" fill="#DCDDDD" stroke="#FFFFFF" stroke-width="0.7054" width="229.244" height="84.644"/>
<g>
	<text transform="matrix(0.7071 -0.7071 0.7071 0.7071 296.3042 221.3805)" fill="#727171" font-family="'FZLTXHK'" font-size="10">布莱切</text>
</g>
<rect x="59.031" y="249.988" transform="matrix(-0.7071 0.7071 -0.7071 -0.7071 394.0892 385.4095)" opacity="0.8" fill="#DCDDDD" stroke="#FFFFFF" stroke-width="0.7054" width="116.386" height="48.67"/>
<g>
	<text transform="matrix(0.7071 -0.7071 0.7071 0.7071 113.0052 282.4792)" fill="#727171" font-family="'FZLTXHK'" font-size="10">张桐林</text>
</g>
<rect x="134.648" y="131.813" transform="matrix(-0.7071 0.7071 -0.7071 -0.7071 452.7772 187.5284)" opacity="0.8" fill="#DCDDDD" stroke="#FFFFFF" stroke-width="0.7054" width="105.805" height="111.448"/>
<g>
	<text transform="matrix(0.7071 -0.7071 0.7071 0.7071 183.3323 195.6926)" fill="#727171" font-family="'FZLTXHK'" font-size="10">本特尔</text>
</g>
<rect x="197.689" y="363.958" transform="matrix(-0.7071 0.7071 -0.7071 -0.7071 728.8392 524.0675)" opacity="0.8" fill="#DCDDDD" stroke="#FFFFFF" stroke-width="0.7054" width="116.386" height="98.046"/>
<g>
	<text transform="matrix(0.7071 -0.7071 0.7071 0.7071 253.7215 419.0799)" fill="#727171" font-family="'FZLTXHK'" font-size="10">李根</text>
</g>
<rect x="176.829" y="30.059" transform="matrix(-0.7071 0.7071 -0.7071 -0.7071 419.1317 -80.3401)" opacity="0.8" fill="#DCDDDD" stroke="#FFFFFF" stroke-width="0.7054" width="98.751" height="33.152"/>
<g>
	<text transform="matrix(0.7071 -0.7071 0.7071 0.7071 221.9865 54.7891)" fill="#727171" font-family="'FZLTXHK'" font-size="10">王子瑞</text>
</g>
<g transform="translate(27,5)" opacity="0.8">
	
		<rect x="-0.855" y="219.828" transform="matrix(-0.7071 0.7071 -0.7071 -0.7071 174.7348 400.4316)" fill="#DCDDDD" stroke="#FFFFFF" stroke-width="0.7054" width="10.581" height="33.152"/>
	<title>王政博:</title>
</g>
<rect x="107.001" y="99.887" transform="matrix(-0.7071 0.7071 -0.7071 -0.7071 349.304 88.239)" opacity="0.8" fill="#DCDDDD" stroke="#FFFFFF" stroke-width="0.7054" width="98.751" height="33.152"/>
<g>
	<text transform="matrix(0.7071 -0.7071 0.7071 0.7071 152.1587 124.6169)" fill="#727171" font-family="'FZLTXHK'" font-size="10">罗旭东</text>
</g>
<rect x="140.829" y="324.733" transform="matrix(-0.7071 0.7071 -0.7071 -0.7071 591.5676 467.2077)" opacity="0.8" fill="#DCDDDD" stroke="#FFFFFF" stroke-width="0.7054" width="116.386" height="62.778"/>
<g>
	<text transform="matrix(0.7071 -0.7071 0.7071 0.7071 192.7464 366.3346)" fill="#727171" font-family="'FZLTXHK'" font-size="10">西热力江</text>
</g>
<rect x="52.827" y="163.23" transform="matrix(-0.7071 0.7071 -0.7071 -0.7071 285.9602 241.1643)" opacity="0.8" fill="#DCDDDD" stroke="#FFFFFF" stroke-width="0.7054" width="80.412" height="33.152"/>
<g>
	<text transform="matrix(0.7071 -0.7071 0.7071 0.7071 75.6416 202.1343)" fill="#727171" font-family="'FZLTXHK'" font-size="10">阿布都沙拉木</text>
</g>
<text transform="matrix(1 0 0 1 453.7845 481.6302)" fill="#3E3A39" font-family="'HYTieXianHei-EEJ'" font-size="24">场均得分</text>
<g>
	<g>
		<path fill="none" stroke="#898989" d="M474.363,445.932c-1.973-42.002-43.024-75.633-93.952-76.733"/>
		<g>
			<path fill="#898989" d="M474.33,445.574c-0.958-0.901-2.81-1.288-4.086-1.286c1.751,1.222,3.295,2.833,4.194,4.811
				c0.741-2.028,2.276-3.66,3.893-5.058C476.968,444.193,475.32,444.577,474.33,445.574z"/>
		</g>
		<g>
			
				<rect x="377.837" y="366.521" transform="matrix(0.0209 -0.9998 0.9998 0.0209 3.4493 741.9783)" fill="#898989" width="5.413" height="5.413"/>
		</g>
	</g>
</g>
<text transform="matrix(1 0 0 1 399.4955 60.4486)"><tspan x="0" y="0" font-family="'FZLTXHK'" font-size="20">16-17赛季</tspan><tspan x="0" y="24" font-family="'FZLTXHK'" font-size="20">周琦场均贡献15.9分</tspan><tspan x="0" y="48" font-family="'FZLTXHK'" font-size="20">位列新疆队第三</tspan></text>
</svg>
