<?xml version="1.0" encoding="utf-8"?>
<!-- Generator: Adobe Illustrator 17.0.0, SVG Export Plug-In . SVG Version: 6.00 Build 0)  -->
<!DOCTYPE svg PUBLIC "-//W3C//DTD SVG 1.1//EN" "http://www.w3.org/Graphics/SVG/1.1/DTD/svg11.dtd">
<svg version="1.1" id="图层_1" xmlns="http://www.w3.org/2000/svg" xmlns:xlink="http://www.w3.org/1999/xlink" x="0px" y="0px"
	 width="601.93px" height="488.794px" viewBox="0 0 601.93 488.794" enable-background="new 0 0 601.93 488.794"
	 xml:space="preserve">
<rect x="216.511" y="64.162" transform="matrix(-0.7071 0.7071 -0.7071 -0.7071 555.0887 3.4989)" opacity="0.8" fill="#DCDDDD" stroke="#FFFFFF" stroke-width="0.7054" width="120.618" height="105.1"/>
<text transform="matrix(0.7071 -0.7071 0.7071 0.7071 272.603 124.8664)" fill="#727171" font-family="'FZLTXHK'" font-size="10">亚当斯</text>
<rect x="132.582" y="315.891" transform="matrix(-0.7071 0.7071 -0.7071 -0.7071 568.5004 471.7748)" opacity="0.8" fill="#DCDDDD" stroke="#FFFFFF" stroke-width="0.7054" width="107.921" height="75.474"/>
<text transform="matrix(0.7071 -0.7071 0.7071 0.7071 182.3257 361.7835)" fill="#727171" font-family="'FZLTXHK'" font-size="10">俞长栋</text>
<rect x="19.455" y="236.753" fill="#BF6969" stroke="#FFFFFF" stroke-width="0.7054" width="0" height="52.197"/>
<rect x="171.133" y="30.761" transform="matrix(-0.7071 0.7071 -0.7071 -0.7071 425.0671 -62.3491)" opacity="0.8" fill="#DCDDDD" stroke="#FFFFFF" stroke-width="0.7054" width="108.626" height="52.197"/>
<text transform="matrix(0.7071 -0.7071 0.7071 0.7071 219.172 67.0712)" fill="#727171" font-family="'FZLTXHK'" font-size="10">可兰白克</text>
<rect x="186.395" y="181.736" transform="matrix(-0.7071 0.7071 -0.7071 -0.7071 682.27 173.2701)" opacity="0.9" fill="#F22525" stroke="#FFFFFF" stroke-width="0.7054" width="237.709" height="92.403"/>
<text transform="matrix(0.7071 -0.7071 0.7071 0.7071 292.0892 246.0365)" fill="#FFFFFF" font-family="'FZLTXHK'" font-size="17">周琦</text>
<rect x="19.455" y="236.753" fill="#BF6969" stroke="#FFFFFF" stroke-width="0.7054" width="0" height="52.197"/>
<rect x="18.622" y="214.308" transform="matrix(-0.7071 0.7071 -0.7071 -0.7071 241.5198 380.7732)" opacity="0.8" fill="#DCDDDD" stroke="#FFFFFF" stroke-width="0.7054" width="46.554" height="52.197"/>
<text transform="matrix(0.7071 -0.7071 0.7071 0.7071 34.6814 251.5626)" fill="#727171" font-family="'FZLTXHK'" font-size="10">孙鸣阳</text>
<rect x="252.981" y="246.559" transform="matrix(-0.7071 0.7071 -0.7071 -0.7071 843.0222 239.8558)" opacity="0.8" fill="#DCDDDD" stroke="#FFFFFF" stroke-width="0.7054" width="237.709" height="95.93"/>
<text transform="matrix(0.7071 -0.7071 0.7071 0.7071 367.6196 302.6783)" fill="#727171" font-family="'FZLTXHK'" font-size="10">布莱切</text>
<rect x="134.232" y="148.205" transform="matrix(-0.7071 0.7071 -0.7071 -0.7071 471.0461 206.3959)" opacity="0.8" fill="#DCDDDD" stroke="#FFFFFF" stroke-width="0.7054" width="117.091" height="105.1"/>
<text transform="matrix(0.7071 -0.7071 0.7071 0.7071 188.5598 208.9096)" fill="#727171" font-family="'FZLTXHK'" font-size="10">张桐林</text>
<rect x="194.429" y="365.747" transform="matrix(-0.7071 0.7071 -0.7071 -0.7071 717.8132 533.6223)" opacity="0.8" fill="#DCDDDD" stroke="#FFFFFF" stroke-width="0.7054" width="107.921" height="99.457"/>
<text transform="matrix(0.7071 -0.7071 0.7071 0.7071 244.1738 423.6321)" fill="#727171" font-family="'FZLTXHK'" font-size="10">本特尔</text>
<rect x="41.556" y="235.093" transform="matrix(-0.7071 0.7071 -0.7071 -0.7071 348.7455 380.7494)" opacity="0.8" fill="#DCDDDD" stroke="#FFFFFF" stroke-width="0.7054" width="107.921" height="55.019"/>
<text transform="matrix(0.7071 -0.7071 0.7071 0.7071 93.3568 268.6991)" fill="#727171" font-family="'FZLTXHK'" font-size="10">李根</text>
<rect x="50.921" y="179.893" transform="matrix(-0.7071 0.7071 -0.7071 -0.7071 275.935 297.6878)" opacity="0.8" fill="#DCDDDD" stroke="#FFFFFF" stroke-width="0.7054" width="50.786" height="52.197"/>
<text transform="matrix(0.7071 -0.7071 0.7071 0.7071 69.097 217.1469)" fill="#727171" font-family="'FZLTXHK'" font-size="10">王子瑞</text>
<rect x="18.215" y="233.76" transform="matrix(-0.7071 0.7071 -0.7071 -0.7071 222.0678 427.7345)" opacity="0.8" fill="#DCDDDD" stroke="#FFFFFF" stroke-width="0.7054" width="8.464" height="52.197"/>
<rect x="129.243" y="93.107" transform="matrix(-0.7071 0.7071 -0.7071 -0.7071 362.7209 88.168)" opacity="0.8" fill="#DCDDDD" stroke="#FFFFFF" stroke-width="0.7054" width="67.715" height="52.197"/>
<text transform="matrix(0.7071 -0.7071 0.7071 0.7071 153.8828 132.3609)" fill="#727171" font-family="'FZLTXHK'" font-size="10">罗旭东</text>
<rect x="83.453" y="272.757" transform="matrix(-0.7071 0.7071 -0.7071 -0.7071 449.8929 422.646)" opacity="0.8" fill="#DCDDDD" stroke="#FFFFFF" stroke-width="0.7054" width="107.921" height="63.483"/>
<text transform="matrix(0.7071 -0.7071 0.7071 0.7071 131.1391 314.7116)" fill="#727171" font-family="'FZLTXHK'" font-size="10">西热力江</text>
<rect x="84.973" y="139.493" transform="matrix(-0.7071 0.7071 -0.7071 -0.7071 316.3353 200.1527)" opacity="0.8" fill="#DCDDDD" stroke="#FFFFFF" stroke-width="0.7054" width="63.483" height="52.197"/>
<text transform="matrix(0.7071 -0.7071 0.7071 0.7071 97.3235 187.9198)" fill="#727171" font-family="'FZLTXHK'" font-size="10">阿布都沙拉木</text>
<text transform="matrix(1 0 0 1 469.141 483.002)" fill="#3E3A39" font-family="'HYTieXianHei-EEJ'" font-size="24">场均篮板</text>
<g>
	<g>
		<path fill="none" stroke="#898989" d="M489.72,447.304c-1.974-42.002-43.024-75.633-93.953-76.733"/>
		<g>
			<path fill="#898989" d="M489.687,446.946c-0.958-0.901-2.81-1.288-4.086-1.286c1.751,1.222,3.295,2.833,4.194,4.811
				c0.741-2.028,2.276-3.66,3.893-5.058C492.325,445.564,490.677,445.949,489.687,446.946z"/>
		</g>
		<g>
			
				<rect x="393.193" y="367.893" transform="matrix(0.0209 -0.9998 0.9998 0.0209 17.0965 758.6577)" fill="#898989" width="5.413" height="5.413"/>
		</g>
	</g>
</g>
<text transform="matrix(1 0 0 1 398.0065 61.8204)"><tspan x="0" y="0" font-family="'FZLTXHK'" font-size="20">16-17赛季</tspan><tspan x="0" y="24" font-family="'FZLTXHK'" font-size="20">周琦场均贡献10个篮板</tspan><tspan x="0" y="48" font-family="'FZLTXHK'" font-size="20">位列新疆队第二</tspan></text>
</svg>
