<?xml version="1.0" encoding="utf-8"?>
<!-- Generator: Adobe Illustrator 17.0.0, SVG Export Plug-In . SVG Version: 6.00 Build 0)  -->
<!DOCTYPE svg PUBLIC "-//W3C//DTD SVG 1.1//EN" "http://www.w3.org/Graphics/SVG/1.1/DTD/svg11.dtd">
<svg version="1.1" id="图层_1" xmlns="http://www.w3.org/2000/svg" xmlns:xlink="http://www.w3.org/1999/xlink" x="0px" y="0px"
	 width="301.961px" height="84.314px" viewBox="0 0 301.961 84.314" enable-background="new 0 0 301.961 84.314"
	 xml:space="preserve">
<g>
	<text transform="matrix(1 0 0 1 14.3307 63.7148)" font-family="'AdobeSongStd-Light-GBpc-EUC-H'" font-size="12">中锋</text>
	<rect x="14.331" y="17.647" fill="#E80F4C" width="22.471" height="22.471"/>
	<rect x="64.41" y="17.647" fill="#F7931E" width="22.471" height="22.471"/>
	<rect x="113.49" y="17.647" fill="#FCDB3D" width="22.471" height="22.471"/>
	<rect x="163.569" y="17.647" fill="#BBCD2A" width="22.471" height="22.471"/>
	<rect x="212.648" y="17.647" fill="#69C9BB" width="22.471" height="22.471"/>
	
		<rect x="262.728" y="17.647" transform="matrix(0.7071 -0.7071 0.7071 0.7071 59.8189 202.1811)" fill="#005FAF" width="22.471" height="22.471"/>
	<text transform="matrix(1 0 0 1 47.1539 63.7148)" font-family="'AdobeSongStd-Light-GBpc-EUC-H'" font-size="12">中锋&amp;大前</text>
	<text transform="matrix(1 0 0 1 107.0421 63.7148)" font-family="'AdobeSongStd-Light-GBpc-EUC-H'" font-size="12">大前锋</text>
	<text transform="matrix(1 0 0 1 147.5672 63.7148)" font-family="'AdobeSongStd-Light-GBpc-EUC-H'" font-size="12">小前&amp;后卫</text>
	<text transform="matrix(1 0 0 1 212.8121 63.7148)" font-family="'AdobeSongStd-Light-GBpc-EUC-H'" font-size="12">后卫</text>
	<text transform="matrix(1 0 0 1 261.8427 63.7148)" font-family="'AdobeSongStd-Light-GBpc-EUC-H'" font-size="12">周琦</text>
</g>
</svg>
