<?xml version="1.0" encoding="utf-8"?>
<!-- Generator: Adobe Illustrator 17.0.0, SVG Export Plug-In . SVG Version: 6.00 Build 0)  -->
<!DOCTYPE svg PUBLIC "-//W3C//DTD SVG 1.1//EN" "http://www.w3.org/Graphics/SVG/1.1/DTD/svg11.dtd">
<svg version="1.1" id="图层_1" xmlns="http://www.w3.org/2000/svg" xmlns:xlink="http://www.w3.org/1999/xlink" x="0px" y="0px"
	 width="154.129px" height="66.203px" viewBox="0 0 154.129 66.203" enable-background="new 0 0 154.129 66.203"
	 xml:space="preserve">
<line fill="none" stroke="#727171" stroke-width="6.1874" x1="20.045" y1="18.52" x2="20.045" y2="44.962"/>
<line fill="none" stroke="#C9CACA" stroke-width="6.1874" x1="20.045" y1="44.962" x2="20.045" y2="64.139"/>
<g>
	<text transform="matrix(1 0 0 1 1.1562 26.8311)" fill="#231815" font-family="'HYYuanLongHei-CEJ'" font-size="7.4225">胜</text>
</g>
<g>
	<text transform="matrix(1 0 0 1 1.4658 63.21)" fill="#231815" font-family="'HYYuanLongHei-CEJ'" font-size="7.4225">负</text>
</g>
<g>
	<text transform="matrix(1 0 0 1 28.0107 26.8311)" fill="#231815" font-family="'HYYuanLongHei-CEJ'" font-size="7.4225">比分</text>
</g>
<g>
	<text transform="matrix(1 0 0 1 57.165 36.6182)" fill="#595757" font-family="'HYYuanLongHei-CEJ'" font-size="6.6729">新疆</text>
</g>
<g>
	<text transform="matrix(1 0 0 1 85.1308 36.6182)" fill="#595757" font-family="'HYYuanLongHei-CEJ'" font-size="6.6729">广东</text>
</g>
<g>
	<text transform="matrix(1 0 0 1 113.2275 36.6182)" fill="#595757" font-family="'HYYuanLongHei-CEJ'" font-size="6.6729">辽宁</text>
</g>
<g>
	<text transform="matrix(1 0 0 1 140.8681 36.6182)" fill="#595757" font-family="'HYYuanLongHei-CEJ'" font-size="6.6729">深圳</text>
</g>
<g>
	<text transform="matrix(1 0 0 1 57.165 64.8809)" fill="#595757" font-family="'HYYuanLongHei-CEJ'" font-size="6.6729">上海</text>
</g>
<g>
	<text transform="matrix(1 0 0 1 85.1308 64.8809)" fill="#595757" font-family="'HYYuanLongHei-CEJ'" font-size="6.6729">广厦</text>
</g>
<g>
	<text transform="matrix(1 0 0 1 112.8115 64.8809)" fill="#595757" font-family="'HYYuanLongHei-CEJ'" font-size="6.6729"> 山东</text>
</g>
<g>
	<text transform="matrix(1 0 0 1 140.8681 64.8809)" fill="#595757" font-family="'HYYuanLongHei-CEJ'" font-size="6.6729">四川</text>
</g>
<g>
	<text transform="matrix(1 0 0 1 28.0107 64.1387)" fill="#231815" font-family="'HYYuanLongHei-CEJ'" font-size="7.4225">比分</text>
</g>
<text transform="matrix(0.9972 0 0 1 12.9111 7.4795)" font-family="'AdobeHeitiStd-Regular-GBpc-EUC-H'" font-size="4.1706"> </text>
<text transform="matrix(1 0 0 1 13.8427 7.4795)" fill="#231815" font-family="'HYYuanLongHei-CEJ'" font-size="7.4225">轮次</text>
<rect x="57.581" y="14.053" fill="#3478A8" width="10.988" height="11.373"/>
<rect x="85.638" y="14.053" fill="#13482D" width="10.988" height="11.373"/>
<rect x="113.695" y="14.053" fill="#FFB612" width="10.988" height="11.373"/>
<rect x="141.751" y="14.053" fill="#B20040" width="10.988" height="11.373"/>
<rect x="57.581" y="44.049" fill="#225B9A" width="10.988" height="11.373"/>
<rect x="85.638" y="44.049" fill="#E7392D" width="10.988" height="11.373"/>
<rect x="113.695" y="44.049" fill="#227476" width="10.988" height="11.373"/>
<rect x="141.751" y="44.049" fill="#270000" width="10.988" height="11.373"/>
</svg>
