<?xml version="1.0" encoding="utf-8"?>
<!-- Generator: Adobe Illustrator 17.0.0, SVG Export Plug-In . SVG Version: 6.00 Build 0)  -->
<!DOCTYPE svg PUBLIC "-//W3C//DTD SVG 1.1//EN" "http://www.w3.org/Graphics/SVG/1.1/DTD/svg11.dtd">
<svg version="1.1" id="图层_1" xmlns="http://www.w3.org/2000/svg" xmlns:xlink="http://www.w3.org/1999/xlink" x="0px" y="0px"
	 width="423.529px" height="415.686px" viewBox="0 0 423.529 415.686" enable-background="new 0 0 423.529 415.686"
	 xml:space="preserve">
<g>
	
		<rect x="146.243" y="125.092" transform="matrix(0.7071 -0.7071 0.7071 0.7071 -74.1043 208.8153)" fill="#F22525" width="137.535" height="137.535"/>
	<line fill="none" stroke="#727171" stroke-width="0.6661" x1="215.009" y1="361.765" x2="262.989" y2="361.765"/>
	<line fill="none" stroke="#727171" stroke-width="0.6661" x1="262.989" y1="361.765" x2="276.088" y2="348.666"/>
	
		<text transform="matrix(1 0 0 1 308.3484 249.0606)" fill="#3E3A39" font-family="'HYYuanLongHei-CEJ-GBpc-EUC-H'" font-size="17.0861">新疆队比分</text>
	
		<text transform="matrix(1 0 0 1 293.7361 343.8912)" fill="#3E3A39" font-family="'HYYuanLongHei-CEJ-GBpc-EUC-H'" font-size="17.0861">周琦得分</text>
	
		<rect x="146.242" y="196.115" transform="matrix(0.7071 -0.7071 0.7071 0.7071 -124.3256 229.6169)" fill="#DCDDDD" width="137.535" height="137.535"/>
	
		<rect x="181.084" y="280.229" transform="matrix(0.7071 -0.7071 0.7071 0.7071 -159.1662 244.0491)" fill="#727171" width="67.853" height="67.853"/>
	<line fill="none" stroke="#727171" stroke-width="0.6661" x1="217.632" y1="220.348" x2="287.105" y2="220.348"/>
	<line fill="none" stroke="#727171" stroke-width="0.6661" x1="287.105" y1="220.348" x2="298.187" y2="231.43"/>
	
		<text transform="matrix(1 0 0 1 74.5506 192.9373)" fill="#3E3A39" font-family="'HYYuanLongHei-CEJ-GBpc-EUC-H'" font-size="15.9862">胜</text>
	
		<text transform="matrix(1 0 0 1 74.5506 270.2381)" fill="#3E3A39" font-family="'HYYuanLongHei-CEJ-GBpc-EUC-H'" font-size="15.9862">负</text>
	<g>
		<g>
			<line fill="none" stroke="#C9CACA" stroke-width="1.223" x1="47.231" y1="94.583" x2="47.231" y2="375.386"/>
			<g>
				<polygon fill="#C9CACA" points="42.702,98.018 47.231,96.093 51.76,98.018 47.231,87.281 				"/>
			</g>
		</g>
	</g>
	<g>
		<g>
			<line fill="none" stroke="#C9CACA" stroke-width="1.223" x1="47.231" y1="375.386" x2="395.006" y2="375.386"/>
			<g>
				<polygon fill="#C9CACA" points="391.571,379.915 393.495,375.386 391.571,370.857 402.307,375.386 				"/>
			</g>
		</g>
	</g>
	<text transform="matrix(1 0 0 1 172.3602 405.4766)" font-family="'HYYuanLongHei-CEJ-GBpc-EUC-H'" font-size="17.0861">常规赛轮次</text>
	<text transform="matrix(0 -1 1 0 26.5389 259.5464)" font-family="'HYYuanLongHei-CEJ-GBpc-EUC-H'" font-size="17.0861">实时排名</text>
	<g>
		<text transform="matrix(1 0 0 1 140.242 33.356)" fill="#231815" font-family="'FZLTXHK'" font-size="26.0907">如何阅读图表：</text>
	</g>
</g>
</svg>
