<?xml version="1.0" encoding="utf-8"?>
<!-- Generator: Adobe Illustrator 17.0.0, SVG Export Plug-In . SVG Version: 6.00 Build 0)  -->
<!DOCTYPE svg PUBLIC "-//W3C//DTD SVG 1.1//EN" "http://www.w3.org/Graphics/SVG/1.1/DTD/svg11.dtd">
<svg version="1.1" id="图层_1" xmlns="http://www.w3.org/2000/svg" xmlns:xlink="http://www.w3.org/1999/xlink" x="0px" y="0px"
	 width="1920px" height="1080px" viewBox="0 0 1920 1080" enable-background="new 0 0 1920 1080" xml:space="preserve">
<line fill="none" stroke="#CCCCCC" stroke-width="0.665" x1="490.355" y1="692.813" x2="490.355" y2="270.616"/>
<text transform="matrix(1 0 0 1 484.4843 719.4062)" font-family="'ArialMT'" font-size="12">10</text>
<line fill="none" stroke="#CCCCCC" stroke-width="0.665" x1="978.353" y1="692.813" x2="978.353" y2="270.616"/>
<text transform="matrix(1.0542 0 0 1 972.5765 719.4062)" font-family="'ArialMT'" font-size="12">20</text>
<line fill="none" stroke="#CCCCCC" stroke-width="0.665" x1="1466.351" y1="692.813" x2="1466.351" y2="270.616"/>
<text transform="matrix(1 0 0 1 1460.4789 719.4062)" font-family="'ArialMT'" font-size="12">30</text>
<line fill="none" stroke="#CCCCCC" stroke-width="0.7533" x1="42.404" y1="534.501" x2="1906.605" y2="534.501"/>
<line fill="none" stroke="#CCCCCC" stroke-width="0.7533" x1="42.404" y1="534.498" x2="1906.605" y2="534.498"/>
<g>
	<text transform="matrix(1 0 0 1 17.3382 537.876)" font-family="'ArialMT'" font-size="10.5554">6</text>
</g>
<line fill="none" stroke="#CCCCCC" stroke-width="0.7533" x1="42.404" y1="587.27" x2="1906.605" y2="587.27"/>
<g>
	<text transform="matrix(1 0 0 1 17.3382 590.6484)" font-family="'ArialMT'" font-size="10.5554">7</text>
</g>
<line fill="none" stroke="#F22525" stroke-width="1.33" x1="42.404" y1="640.042" x2="1906.605" y2="640.042"/>
<g>
	<text transform="matrix(1 0 0 1 17.3382 643.4209)" font-family="'ArialMT'" font-size="10.5554">8</text>
</g>
<line fill="none" stroke="#CCCCCC" stroke-width="0.7533" x1="42.404" y1="692.813" x2="1906.605" y2="692.813"/>
<g>
	<text transform="matrix(1 0 0 1 17.3382 696.1934)" font-family="'ArialMT'" font-size="10.5554">9</text>
</g>
<line fill="none" stroke="#CCCCCC" stroke-width="0.7533" x1="42.404" y1="481.724" x2="1906.605" y2="481.724"/>
<g>
	<text transform="matrix(1 0 0 1 17.3382 485.1035)" font-family="'ArialMT'" font-size="10.5554">5</text>
</g>
<line fill="none" stroke="#CCCCCC" stroke-width="0.7533" x1="42.404" y1="428.947" x2="1906.605" y2="428.947"/>
<g>
	<text transform="matrix(1 0 0 1 17.3382 432.3262)" font-family="'ArialMT'" font-size="10.5554">4</text>
</g>
<line fill="none" stroke="#CCCCCC" stroke-width="0.7533" x1="42.404" y1="376.17" x2="1906.605" y2="376.17"/>
<g>
	<text transform="matrix(1 0 0 1 17.3382 379.5498)" font-family="'ArialMT'" font-size="10.5554">3</text>
</g>
<line fill="none" stroke="#CCCCCC" stroke-width="0.7533" x1="42.404" y1="323.393" x2="1906.605" y2="323.393"/>
<g>
	<text transform="matrix(1 0 0 1 17.3382 326.7725)" font-family="'ArialMT'" font-size="10.5554">2</text>
</g>
<line fill="none" stroke="#CCCCCC" stroke-width="0.7533" x1="42.404" y1="270.616" x2="1906.605" y2="270.616"/>
<g>
	<circle fill="#BF6969" fill-opacity="0.9" cx="99.957" cy="270.616" r="14.023"/>
</g>
<g>
	<circle fill="#BF6969" fill-opacity="0.9" cx="148.756" cy="270.616" r="14.59"/>
</g>
<g>
	<circle fill="#BF6969" fill-opacity="0.9" cx="197.556" cy="270.616" r="14.023"/>
</g>
<g>
	<circle fill="#BF6969" fill-opacity="0.9" cx="246.356" cy="270.616" r="14.652"/>
</g>
<g>
	<circle fill="#BF6969" fill-opacity="0.9" cx="295.156" cy="270.616" r="14.404"/>
</g>
<g>
	<circle fill="#BF6969" fill-opacity="0.9" cx="343.956" cy="270.616" r="13.366"/>
</g>
<g>
	<circle fill="#69BFBF" fill-opacity="0.9" cx="392.755" cy="376.17" r="12.387"/>
</g>
<g>
	<circle fill="#69BFBF" fill-opacity="0.9" cx="441.555" cy="428.947" r="12.816"/>
</g>
<g>
	<circle fill="#BF6969" fill-opacity="0.9" cx="490.355" cy="428.947" r="15.833"/>
</g>
<g>
	<circle fill="#BF6969" fill-opacity="0.9" cx="539.155" cy="376.17" r="14.215"/>
</g>
<g>
	<circle fill="#69BFBF" fill-opacity="0.9" cx="587.955" cy="534.501" r="13.231"/>
</g>
<g>
	<circle fill="#BF6969" fill-opacity="0.9" cx="636.754" cy="481.724" r="14.341"/>
</g>
<g>
	<circle fill="#BF6969" fill-opacity="0.9" cx="685.554" cy="428.947" r="12.745"/>
</g>
<g>
	<circle fill="#BF6969" fill-opacity="0.9" cx="734.354" cy="428.947" r="14.774"/>
</g>
<g>
	<circle fill="#BF6969" fill-opacity="0.9" cx="783.154" cy="428.947" r="15.016"/>
</g>
<g>
	<circle fill="#BF6969" fill-opacity="0.9" cx="831.954" cy="428.947" r="14.151"/>
</g>
<g>
	<circle fill="#BF6969" fill-opacity="0.9" cx="880.753" cy="376.17" r="14.713"/>
</g>
<g>
	<circle fill="#BF6969" fill-opacity="0.9" cx="929.553" cy="376.17" r="13.699"/>
</g>
<g>
	<circle fill="#69BFBF" fill-opacity="0.9" cx="978.353" cy="376.17" r="13.094"/>
</g>
<g>
	<circle fill="#BF6969" fill-opacity="0.9" cx="1027.153" cy="376.17" r="15.371"/>
</g>
<g>
	<circle fill="#69BFBF" fill-opacity="0.9" cx="1075.953" cy="376.17" r="13.231"/>
</g>
<g>
	<circle fill="#BF6969" fill-opacity="0.9" cx="1124.752" cy="376.17" r="15.604"/>
</g>
<g>
	<circle fill="#BF6969" fill-opacity="0.9" cx="1174.231" cy="376.17" r="13.699"/>
</g>
<g>
	<circle fill="#BF6969" fill-opacity="0.9" cx="1222.352" cy="376.17" r="14.023"/>
</g>
<g>
	<circle fill="#BF6969" fill-opacity="0.9" cx="1271.152" cy="323.393" r="15.604"/>
</g>
<g>
	<circle fill="#BF6969" fill-opacity="0.9" cx="1319.952" cy="323.393" r="15.254"/>
</g>
<g>
	<circle fill="#BF6969" fill-opacity="0.9" cx="1368.751" cy="323.393" r="14.278"/>
</g>
<g>
	<circle fill="#BF6969" fill-opacity="0.9" cx="1417.551" cy="323.393" r="15.604"/>
</g>
<g>
	<circle fill="#69BFBF" fill-opacity="0.9" cx="1466.351" cy="323.393" r="13.433"/>
</g>
<g>
	<circle fill="#BF6969" fill-opacity="0.9" cx="1515.151" cy="323.393" r="14.023"/>
</g>
<g>
	<circle fill="#BF6969" fill-opacity="0.9" cx="1563.951" cy="270.616" r="15.776"/>
</g>
<g>
	<circle fill="#BF6969" fill-opacity="0.9" cx="1612.75" cy="270.616" r="13.959"/>
</g>
<g>
	<circle fill="#BF6969" fill-opacity="0.9" cx="1661.55" cy="270.616" r="15.254"/>
</g>
<g>
	<circle fill="#BF6969" fill-opacity="0.9" cx="1710.35" cy="270.616" r="14.088"/>
</g>
<g>
	<circle fill="#BF6969" fill-opacity="0.9" cx="1759.15" cy="270.616" r="13.433"/>
</g>
<g>
	<circle fill="#BF6969" fill-opacity="0.9" cx="1807.949" cy="270.616" r="14.59"/>
</g>
<g>
	<circle fill="#BF6969" fill-opacity="0.9" cx="1856.749" cy="270.616" r="14.895"/>
</g>
<g>
	<circle fill="#BF6969" fill-opacity="0.9" cx="51.157" cy="270.616" r="14.088"/>
</g>
<g>
	<circle cx="99.957" cy="270.616" r="1.056"/>
</g>
<g>
	<circle cx="1905.549" cy="270.616" r="1.056"/>
</g>
<g>
	<circle cx="148.756" cy="270.616" r="1.056"/>
</g>
<g>
	<circle cx="197.556" cy="270.616" r="1.056"/>
</g>
<g>
	<circle cx="246.356" cy="270.616" r="1.056"/>
</g>
<g>
	<circle cx="295.156" cy="270.616" r="1.056"/>
</g>
<g>
	<circle cx="343.956" cy="270.616" r="1.056"/>
</g>
<g>
	<circle cx="392.755" cy="376.17" r="1.056"/>
</g>
<g>
	<circle cx="441.555" cy="428.947" r="1.056"/>
</g>
<g>
	<circle cx="490.355" cy="428.947" r="1.056"/>
</g>
<g>
	<circle cx="539.155" cy="376.17" r="1.056"/>
</g>
<g>
	<circle cx="587.955" cy="534.501" r="1.056"/>
</g>
<g>
	<circle cx="636.754" cy="481.724" r="1.056"/>
</g>
<g>
	<circle cx="685.554" cy="428.947" r="1.056"/>
</g>
<g>
	<circle cx="734.354" cy="428.947" r="1.056"/>
</g>
<g>
	<circle cx="783.154" cy="428.947" r="1.056"/>
</g>
<g>
	<circle cx="831.954" cy="428.947" r="1.056"/>
</g>
<g>
	<circle cx="880.753" cy="376.17" r="1.056"/>
</g>
<g>
	<circle cx="929.553" cy="376.17" r="1.056"/>
</g>
<g>
	<circle cx="978.353" cy="376.17" r="1.056"/>
</g>
<g>
	<circle cx="1027.153" cy="376.17" r="1.056"/>
</g>
<g>
	<circle cx="1075.953" cy="376.17" r="1.056"/>
</g>
<g>
	<circle cx="1124.752" cy="376.17" r="1.056"/>
</g>
<g>
	<circle cx="1173.552" cy="376.17" r="1.056"/>
</g>
<g>
	<circle cx="1222.352" cy="376.17" r="1.056"/>
</g>
<g>
	<circle cx="1271.152" cy="323.393" r="1.056"/>
</g>
<g>
	<circle cx="1319.952" cy="323.393" r="1.056"/>
</g>
<g>
	<circle cx="1368.751" cy="323.393" r="1.056"/>
</g>
<g>
	<circle cx="1417.551" cy="323.393" r="1.056"/>
</g>
<g>
	<circle cx="1466.351" cy="323.393" r="1.056"/>
</g>
<g>
	<circle cx="1515.151" cy="323.393" r="1.056"/>
</g>
<g>
	<circle cx="1563.951" cy="270.616" r="1.056"/>
</g>
<g>
	<circle cx="1612.75" cy="270.616" r="1.056"/>
</g>
<g>
	<circle cx="1661.55" cy="270.616" r="1.056"/>
</g>
<g>
	<circle cx="1710.35" cy="270.616" r="1.056"/>
</g>
<g>
	<circle cx="1759.15" cy="270.616" r="1.056"/>
</g>
<g>
	<circle cx="1807.949" cy="270.616" r="1.056"/>
</g>
<g>
	<circle cx="1856.749" cy="270.616" r="1.056"/>
</g>
<g>
	<circle cx="51.157" cy="270.616" r="1.056"/>
</g>
<rect x="380.368" y="363.783" transform="matrix(0.7071 -0.7071 0.7071 0.7071 -150.9569 387.8976)" fill="#DCDDDD" width="24.774" height="24.774"/>
<rect x="428.74" y="416.131" transform="matrix(0.7071 -0.7071 0.7071 0.7071 -173.9827 437.8623)" fill="#DCDDDD" width="25.631" height="25.631"/>
<rect x="574.724" y="521.27" transform="matrix(0.7071 -0.7071 0.7071 0.7071 -205.7411 572.2983)" fill="#DCDDDD" width="26.461" height="26.461"/>
<rect x="965.259" y="363.076" transform="matrix(0.7071 -0.7071 0.7071 0.7071 20.5607 801.9777)" fill="#DCDDDD" width="26.187" height="26.187"/>
<rect x="1062.722" y="362.939" transform="matrix(0.7071 -0.7071 0.7071 0.7071 49.1469 870.991)" fill="#DCDDDD" width="26.461" height="26.461"/>
<rect x="1452.918" y="309.96" transform="matrix(0.7071 -0.7071 0.7071 0.7071 200.8109 1131.5864)" fill="#DCDDDD" width="26.866" height="26.866"/>
<rect x="37.069" y="256.593" transform="matrix(0.7071 -0.7071 0.7071 0.7071 -176.4163 115.4537)" fill="#F22525" width="28.175" height="28.175"/>
<rect x="85.933" y="256.721" transform="matrix(-0.7071 0.7071 -0.7071 -0.7071 362.0817 391.5094)" fill="#F22525" width="28.047" height="28.047"/>
<rect x="134.166" y="256.026" transform="matrix(0.7071 -0.7071 0.7071 0.7071 -147.7975 184.4791)" fill="#F22525" width="29.241" height="29.241"/>
<rect x="183.533" y="256.593" transform="matrix(0.7071 -0.7071 0.7071 0.7071 -133.4917 218.955)" fill="#F22525" width="28.047" height="28.047"/>
<rect x="231.704" y="255.965" transform="matrix(0.7071 -0.7071 0.7071 0.7071 -119.1985 253.4616)" fill="#F22525" width="29.303" height="29.303"/>
<rect x="280.752" y="256.213" transform="matrix(0.7071 -0.7071 0.7071 0.7071 -104.9054 287.9683)" fill="#F22525" width="28.807" height="28.807"/>
<rect x="330.59" y="257.25" transform="matrix(0.7071 -0.7071 0.7071 0.7071 -90.6123 322.475)" fill="#F22525" width="26.732" height="26.732"/>
<rect x="474.522" y="413.114" transform="matrix(0.7071 -0.7071 0.7071 0.7071 -159.6896 472.369)" fill="#F22525" width="31.666" height="31.666"/>
<rect x="524.94" y="361.955" transform="matrix(0.7071 -0.7071 0.7071 0.7071 -108.0775 491.4176)" fill="#F22525" width="28.43" height="28.43"/>
<rect x="622.413" y="467.383" transform="matrix(0.7071 -0.7071 0.7071 0.7071 -154.1291 591.347)" fill="#F22525" width="28.682" height="28.682"/>
<rect x="672.809" y="416.202" transform="matrix(0.7071 -0.7071 0.7071 0.7071 -102.5171 610.3956)" fill="#F22525" width="25.49" height="25.49"/>
<rect x="719.58" y="414.173" transform="matrix(0.7071 -0.7071 0.7071 0.7071 -88.2239 644.9023)" fill="#F22525" width="29.548" height="29.548"/>
<rect x="768.138" y="413.931" transform="matrix(0.7071 -0.7071 0.7071 0.7071 -73.9308 679.409)" fill="#F22525" width="30.032" height="30.032"/>
<rect x="817.802" y="414.796" transform="matrix(0.7071 -0.7071 0.7071 0.7071 -59.6377 713.9156)" fill="#F22525" width="28.303" height="28.303"/>
<rect x="866.041" y="361.457" transform="matrix(0.7071 -0.7071 0.7071 0.7071 -8.0256 732.9643)" fill="#F22525" width="29.426" height="29.426"/>
<rect x="915.854" y="362.471" transform="matrix(0.7071 -0.7071 0.7071 0.7071 6.2675 767.471)" fill="#F22525" width="27.397" height="27.397"/>
<rect x="1011.781" y="360.799" transform="matrix(0.7071 -0.7071 0.7071 0.7071 34.8537 836.4843)" fill="#F22525" width="30.743" height="30.743"/>
<rect x="1109.149" y="360.566" transform="matrix(0.7071 -0.7071 0.7071 0.7071 63.4401 905.4977)" fill="#F22525" width="31.208" height="31.208"/>
<rect x="1160.532" y="362.471" transform="matrix(0.7071 -0.7071 0.7071 0.7071 77.932 940.4843)" fill="#F22525" width="27.397" height="27.397"/>
<rect x="1208.328" y="362.146" transform="matrix(0.7071 -0.7071 0.7071 0.7071 92.0263 974.511)" fill="#F22525" width="28.047" height="28.047"/>
<rect x="1255.548" y="307.789" transform="matrix(0.7071 -0.7071 0.7071 0.7071 143.6383 993.5597)" fill="#F22525" width="31.208" height="31.208"/>
<rect x="1304.698" y="308.139" transform="matrix(0.7071 -0.7071 0.7071 0.7071 157.9315 1028.0663)" fill="#F22525" width="30.507" height="30.507"/>
<rect x="1354.473" y="309.115" transform="matrix(0.7071 -0.7071 0.7071 0.7071 172.2246 1062.573)" fill="#F22525" width="28.556" height="28.556"/>
<rect x="1401.947" y="307.789" transform="matrix(0.7071 -0.7071 0.7071 0.7071 186.5177 1097.0797)" fill="#F22525" width="31.208" height="31.208"/>
<rect x="1501.127" y="309.37" transform="matrix(0.7071 -0.7071 0.7071 0.7071 215.104 1166.093)" fill="#F22525" width="28.047" height="28.047"/>
<rect x="1548.174" y="254.84" transform="matrix(0.7071 -0.7071 0.7071 0.7071 266.716 1185.1417)" fill="#F22525" width="31.552" height="31.552"/>
<rect x="1598.791" y="256.657" transform="matrix(0.7071 -0.7071 0.7071 0.7071 281.0092 1219.6484)" fill="#F22525" width="27.918" height="27.918"/>
<rect x="1646.296" y="255.362" transform="matrix(0.7071 -0.7071 0.7071 0.7071 295.3023 1254.155)" fill="#F22525" width="30.507" height="30.507"/>
<rect x="1696.262" y="256.529" transform="matrix(0.7071 -0.7071 0.7071 0.7071 309.5954 1288.6617)" fill="#F22525" width="28.175" height="28.175"/>
<rect x="1745.717" y="257.183" transform="matrix(0.7071 -0.7071 0.7071 0.7071 323.8885 1323.1685)" fill="#F22525" width="26.866" height="26.866"/>
<rect x="1793.359" y="256.026" transform="matrix(0.7071 -0.7071 0.7071 0.7071 338.1816 1357.675)" fill="#F22525" width="29.18" height="29.18"/>
<rect x="1841.854" y="255.721" transform="matrix(0.7071 -0.7071 0.7071 0.7071 352.4748 1392.1818)" fill="#F22525" width="29.791" height="29.791"/>
<rect x="435.233" y="431.807" transform="matrix(0.7071 -0.7071 0.7071 0.7071 -180.4757 440.5519)" fill="#727171" width="12.645" height="12.645"/>
<rect x="582.554" y="540.116" transform="matrix(0.7071 -0.7071 0.7071 0.7071 -213.5304 575.5248)" fill="#727171" width="10.802" height="10.802"/>
<rect x="973.862" y="383.846" transform="matrix(0.7071 -0.7071 0.7071 0.7071 11.9575 805.5413)" fill="#727171" width="8.981" height="8.981"/>
<rect x="1070.552" y="381.842" transform="matrix(0.7071 -0.7071 0.7071 0.7071 41.3173 874.2342)" fill="#727171" width="10.802" height="10.802"/>
<rect x="1461.664" y="331.075" transform="matrix(0.7071 -0.7071 0.7071 0.7071 192.0645 1135.2094)" fill="#727171" width="9.374" height="9.374"/>
<g>
	
		<rect x="46.47" y="279.262" transform="matrix(0.7071 -0.7071 0.7071 0.7071 -185.7983 119.3399)" fill="#F49A9A" width="9.374" height="9.374"/>
	
		<rect x="95.887" y="280.778" transform="matrix(0.7071 -0.7071 0.7071 0.7071 -172.1409 154.1099)" fill="#F49A9A" width="8.14" height="8.14"/>
	
		<rect x="143.556" y="278.694" transform="matrix(0.7071 -0.7071 0.7071 0.7071 -157.1867 188.3682)" fill="#F49A9A" width="10.463" height="10.463"/>
	
		<rect x="191.378" y="275.532" transform="matrix(0.7071 -0.7071 0.7071 0.7071 -141.3365 222.2044)" fill="#F49A9A" width="12.357" height="12.357"/>
	
		<rect x="339.269" y="278.203" transform="matrix(0.7071 -0.7071 0.7071 0.7071 -99.2914 326.07)" fill="#F49A9A" width="9.374" height="9.374"/>
	
		<rect x="483.104" y="433.832" transform="matrix(0.7071 -0.7071 0.7071 0.7071 -168.2713 475.9236)" fill="#F49A9A" width="14.503" height="14.503"/>
	
		<rect x="534.869" y="385.927" transform="matrix(0.7071 -0.7071 0.7071 0.7071 -118.007 495.5305)" fill="#F49A9A" width="8.571" height="8.571"/>
	
		<rect x="632.068" y="490.69" transform="matrix(0.7071 -0.7071 0.7071 0.7071 -163.7832 595.3459)" fill="#F49A9A" width="9.374" height="9.374"/>
	
		<rect x="777.922" y="437.552" transform="matrix(0.7071 -0.7071 0.7071 0.7071 -83.715 683.4618)" fill="#F49A9A" width="10.463" height="10.463"/>
	
		<rect x="826.388" y="435.524" transform="matrix(0.7071 -0.7071 0.7071 0.7071 -68.2238 717.4722)" fill="#F49A9A" width="11.13" height="11.13"/>
	
		<rect x="876.067" y="385.662" transform="matrix(0.7071 -0.7071 0.7071 0.7071 -18.0517 737.1173)" fill="#F49A9A" width="9.374" height="9.374"/>
	
		<rect x="924.866" y="384.228" transform="matrix(0.7071 -0.7071 0.7071 0.7071 -2.7443 771.2039)" fill="#F49A9A" width="9.374" height="9.374"/>
	
		<rect x="1020.974" y="382.992" transform="matrix(0.7071 -0.7071 0.7071 0.7071 25.661 840.2922)" fill="#F49A9A" width="12.357" height="12.357"/>
	
		<rect x="1118.721" y="383.677" transform="matrix(0.7071 -0.7071 0.7071 0.7071 53.8672 909.463)" fill="#F49A9A" width="12.062" height="12.062"/>
	
		<rect x="1168.83" y="382.504" transform="matrix(0.7071 -0.7071 0.7071 0.7071 69.6342 943.9214)" fill="#F49A9A" width="10.802" height="10.802"/>
	
		<rect x="1216.951" y="382.963" transform="matrix(0.7071 -0.7071 0.7071 0.7071 83.4037 978.0826)" fill="#F49A9A" width="10.802" height="10.802"/>
	
		<rect x="1266.866" y="335.115" transform="matrix(0.7071 -0.7071 0.7071 0.7071 132.3197 998.248)" fill="#F49A9A" width="8.571" height="8.571"/>
	
		<rect x="1313.629" y="329.701" transform="matrix(0.7071 -0.7071 0.7071 0.7071 149.0004 1031.7659)" fill="#F49A9A" width="12.645" height="12.645"/>
	
		<rect x="1364.261" y="332.744" transform="matrix(0.7071 -0.7071 0.7071 0.7071 162.4372 1066.6272)" fill="#F49A9A" width="8.981" height="8.981"/>
	
		<rect x="1410.95" y="329.505" transform="matrix(0.7071 -0.7071 0.7071 0.7071 177.528 1100.8035)" fill="#F49A9A" width="13.203" height="13.203"/>
	
		<rect x="1508.972" y="328.309" transform="matrix(0.7071 -0.7071 0.7071 0.7071 207.2591 1169.3425)" fill="#F49A9A" width="12.357" height="12.357"/>
	
		<rect x="1558.55" y="279.888" transform="matrix(0.7071 -0.7071 0.7071 0.7071 256.3408 1189.4392)" fill="#F49A9A" width="10.802" height="10.802"/>
	
		<rect x="1608.26" y="279.511" transform="matrix(0.7071 -0.7071 0.7071 0.7071 271.5443 1223.5688)" fill="#F49A9A" width="8.981" height="8.981"/>
	
		<rect x="1703.481" y="273.956" transform="matrix(0.7071 -0.7071 0.7071 0.7071 302.3766 1291.6519)" fill="#F49A9A" width="13.737" height="13.737"/>
	
		<rect x="1753.585" y="276.178" transform="matrix(0.7071 -0.7071 0.7071 0.7071 316.0206 1326.4275)" fill="#F49A9A" width="11.13" height="11.13"/>
	
		<rect x="1803.074" y="279.48" transform="matrix(0.7071 -0.7071 0.7071 0.7071 328.4669 1361.6991)" fill="#F49A9A" width="9.75" height="9.75"/>
	
		<rect x="1850.87" y="277.486" transform="matrix(0.7071 -0.7071 0.7071 0.7071 343.4593 1395.9161)" fill="#F49A9A" width="11.76" height="11.76"/>
</g>
<g>
	<text transform="matrix(1 0 0 1 17.3382 273.9941)" font-family="'ArialMT'" font-size="10.5554">1</text>
</g>
<text transform="matrix(1 0 0 1 103.3885 660.9775)" fill="#9FA0A0" font-family="'HYTieXianHei-EEJ'" font-size="18.8708"> 常规赛晋级资格</text>
<path fill="none" stroke="#727171" stroke-width="2.66" d="M71.08,270.68"/>
<text transform="matrix(1 0 0 1 813.2122 793.2954)" font-family="'HYTieXianHei-EEJ'" font-size="21">新疆队16-17赛季常规赛排名</text>
</svg>
