<?xml version="1.0" encoding="utf-8"?>
<!-- Generator: Adobe Illustrator 17.0.0, SVG Export Plug-In . SVG Version: 6.00 Build 0)  -->
<!DOCTYPE svg PUBLIC "-//W3C//DTD SVG 1.1//EN" "http://www.w3.org/Graphics/SVG/1.1/DTD/svg11.dtd">
<svg version="1.1" id="图层_1" xmlns="http://www.w3.org/2000/svg" xmlns:xlink="http://www.w3.org/1999/xlink" x="0px" y="0px"
	 width="1920px" height="1080px" viewBox="0 0 1920 1080" enable-background="new 0 0 1920 1080" xml:space="preserve">
<g>
	<text transform="matrix(1 0 0 1 720.3132 801.4784)" font-family="'HYTieXianHei-EEJ'" font-size="21">周琦16-17赛季场均数据与联盟同位置球员对比</text>
	<line fill="none" stroke="#DAD7D7" stroke-width="0.4037" x1="214.802" y1="354.505" x2="214.802" y2="653.21"/>
	<text transform="matrix(1 0 0 1 209.9572 681.5229)" fill="#716D6D" font-family="'ArialMT'" font-size="14.8705">0</text>
	<line fill="none" stroke="#DAD7D7" stroke-width="0.4037" x1="335.091" y1="354.505" x2="335.091" y2="653.21"/>
	<text transform="matrix(1 0 0 1 330.2463 681.5229)" fill="#716D6D" font-family="'ArialMT'" font-size="14.8705">2</text>
	<line fill="none" stroke="#DAD7D7" stroke-width="0.4037" x1="456.188" y1="354.505" x2="456.188" y2="653.21"/>
	<text transform="matrix(1 0 0 1 451.3449 681.5229)" fill="#716D6D" font-family="'ArialMT'" font-size="14.8705">4</text>
	<line fill="none" stroke="#DAD7D7" stroke-width="0.4037" x1="576.477" y1="354.505" x2="576.477" y2="653.21"/>
	<text transform="matrix(1 0 0 1 571.634 681.5229)" fill="#716D6D" font-family="'ArialMT'" font-size="14.8705">6</text>
	<line fill="none" stroke="#DAD7D7" stroke-width="0.4037" x1="697.574" y1="354.505" x2="697.574" y2="653.21"/>
	<text transform="matrix(1 0 0 1 692.7297 681.5229)" fill="#716D6D" font-family="'ArialMT'" font-size="14.8705">8</text>
	<line fill="none" stroke="#DAD7D7" stroke-width="0.4037" x1="818.671" y1="354.505" x2="818.671" y2="653.21"/>
	<text transform="matrix(1 0 0 1 813.8273 681.5229)" fill="#716D6D" font-family="'ArialMT'" font-size="14.8705">10</text>
	<line fill="none" stroke="#DAD7D7" stroke-width="0.4037" x1="938.96" y1="354.505" x2="938.96" y2="653.21"/>
	<text transform="matrix(1 0 0 1 934.114 681.5229)" fill="#716D6D" font-family="'ArialMT'" font-size="14.8705">12</text>
	<line fill="none" stroke="#DAD7D7" stroke-width="0.4037" x1="1060.057" y1="354.505" x2="1060.057" y2="653.21"/>
	<text transform="matrix(1 0 0 1 1055.2117 681.5229)" fill="#716D6D" font-family="'ArialMT'" font-size="14.8705">14</text>
	<line fill="none" stroke="#DAD7D7" stroke-width="0.4037" x1="1180.346" y1="354.505" x2="1180.346" y2="653.21"/>
	<text transform="matrix(1 0 0 1 1175.4998 681.5229)" fill="#716D6D" font-family="'ArialMT'" font-size="14.8705">16</text>
	<line fill="none" stroke="#DAD7D7" stroke-width="0.439" x1="1301.443" y1="357.189" x2="1301.443" y2="653.21"/>
	<text transform="matrix(1 0 0 1 1296.5984 681.5229)" fill="#716D6D" font-family="'ArialMT'" font-size="14.8705">18</text>
	<line fill="none" stroke="#DAD7D7" stroke-width="0.441" x1="1422.539" y1="354.505" x2="1422.539" y2="653.21"/>
	<text transform="matrix(1 0 0 1 1417.6941 681.5229)" fill="#716D6D" font-family="'ArialMT'" font-size="14.8705">20</text>
	<line fill="none" stroke="#DAD7D7" stroke-width="0.441" x1="1542.829" y1="354.505" x2="1542.829" y2="653.21"/>
	<text transform="matrix(1 0 0 1 1537.9832 681.5229)" fill="#716D6D" font-family="'ArialMT'" font-size="14.8705">22</text>
	<line fill="none" stroke="#DAD7D7" stroke-width="0.441" x1="1663.925" y1="354.505" x2="1663.925" y2="653.21"/>
	<text transform="matrix(1 0 0 1 1659.0798 681.5229)" fill="#716D6D" font-family="'ArialMT'" font-size="14.8705">24</text>
	<line fill="none" stroke="#DAD7D7" stroke-width="0.4037" x1="1784.215" y1="273.774" x2="1784.215" y2="653.21"/>
	<text transform="matrix(1 0 0 1 1779.3708 681.5229)" fill="#716D6D" font-family="'ArialMT'" font-size="14.8705">26</text>
	<text transform="matrix(1 0 0 1 231.756 357.187)" fill="#716D6D" font-family="'ArialMT'" font-size="16.2223">Min</text>
	<text transform="matrix(1 0 0 1 486.0588 337.8159)" fill="#716D6D" font-family="'ArialMT'" font-size="9.6877">Avg</text>
	<text transform="matrix(1 0 0 1 1211.8308 358.5405)" fill="#716D6D" font-family="'ArialMT'" font-size="16.2223">Max</text>
	
		<text transform="matrix(1 0 0 1 810.5969 327.2397)" fill="#716D6D" font-family="'AdobeSongStd-Light-GBpc-EUC-H'" font-size="9.6877">周琦</text>
	<g>
		<text transform="matrix(1 0 0 1 135.7853 360.1558)" fill="#231815" font-family="'HYTieXianHei-EEJ'" font-size="16.2223">篮板</text>
	</g>
	<line fill="none" stroke="#847F7F" stroke-width="1.6146" x1="264.855" y1="354.505" x2="1204.565" y2="354.505"/>
	<line fill="none" stroke="#DCDDDD" stroke-width="15.6502" x1="337.513" y1="354.505" x2="779.92" y2="354.505"/>
	<circle stroke="#FFFFFF" stroke-width="0.4037" cx="264.855" cy="354.505" r="4.037"/>
	<circle fill="#595757" stroke="#FFFFFF" stroke-width="2" cx="494.132" cy="354.505" r="7.266"/>
	<circle stroke="#FFFFFF" stroke-width="0.4037" cx="1204.565" cy="354.505" r="4.037"/>
	<circle fill="#3261C7" stroke="#FFFFFF" stroke-width="0.4037" cx="818.671" cy="354.505" r="4.037"/>
	<g>
		<text transform="matrix(1 0 0 1 135.7853 408.5942)" fill="#231815" font-family="'HYTieXianHei-EEJ'" font-size="16.2223">得分</text>
	</g>
	<line fill="none" stroke="#847F7F" stroke-width="1.6146" x1="294.726" y1="402.944" x2="1724.474" y2="402.944"/>
	<line fill="none" stroke="#DCDDDD" stroke-width="15.6502" x1="381.915" y1="402.944" x2="1211.831" y2="402.944"/>
	<circle stroke="#FFFFFF" stroke-width="0.4037" cx="294.726" cy="402.944" r="4.037"/>
	<circle fill="#595757" stroke="#FFFFFF" stroke-width="2" cx="666.089" cy="402.944" r="7.266"/>
	<circle fill="#595757" stroke="#FFFFFF" stroke-width="3.1783" cx="1496.299" cy="747.086" r="11.546"/>
	<circle stroke="#FFFFFF" stroke-width="0.4037" cx="1724.474" cy="402.944" r="4.037"/>
	<circle fill="#3261C7" stroke="#FFFFFF" stroke-width="0.4037" cx="1180.346" cy="402.944" r="4.037"/>
	<g>
		<text transform="matrix(1 0 0 1 135.7853 457.0327)" fill="#231815" font-family="'HYTieXianHei-EEJ'" font-size="16.2223">助攻</text>
	</g>
	<line fill="none" stroke="#847F7F" stroke-width="1.6146" x1="214.802" y1="451.383" x2="504.627" y2="451.383"/>
	<line fill="none" stroke="#DCDDDD" stroke-width="15.6502" x1="229.334" y1="451.383" x2="285.038" y2="451.383"/>
	<circle stroke="#FFFFFF" stroke-width="0.4037" cx="214.802" cy="451.383" r="4.037"/>
	<circle fill="#595757" stroke="#FFFFFF" stroke-width="2" cx="252.746" cy="451.383" r="7.266"/>
	<circle stroke="#FFFFFF" stroke-width="0.4037" cx="504.627" cy="451.383" r="4.037"/>
	<circle fill="#3261C7" stroke="#FFFFFF" stroke-width="0.4037" cx="286.653" cy="451.383" r="4.037"/>
	<g>
		<text transform="matrix(1 0 0 1 135.7853 505.4712)" fill="#231815" font-family="'HYTieXianHei-EEJ'" font-size="16.2223">抢断</text>
	</g>
	<line fill="none" stroke="#847F7F" stroke-width="1.6146" x1="214.802" y1="499.821" x2="353.66" y2="499.821"/>
	<line fill="none" stroke="#DCDDDD" stroke-width="15.6502" x1="229.334" y1="499.821" x2="268.085" y2="499.821"/>
	<circle stroke="#FFFFFF" stroke-width="0.4037" cx="214.802" cy="499.821" r="4.037"/>
	<circle fill="#595757" stroke="#FFFFFF" stroke-width="2" cx="243.058" cy="499.821" r="7.266"/>
	<circle stroke="#FFFFFF" stroke-width="0.4037" cx="353.66" cy="499.821" r="4.037"/>
	<circle fill="#3261C7" stroke="#FFFFFF" stroke-width="0.4037" cx="286.653" cy="499.821" r="4.037"/>
	<g>
		<text transform="matrix(1 0 0 1 135.7853 553.9087)" fill="#231815" font-family="'HYTieXianHei-EEJ'" font-size="16.2223">盖帽</text>
	</g>
	<line fill="none" stroke="#847F7F" stroke-width="1.6146" x1="214.802" y1="548.26" x2="359.311" y2="548.26"/>
	<line fill="none" stroke="#DCDDDD" stroke-width="15.6502" x1="222.068" y1="548.26" x2="263.241" y2="548.26"/>
	<circle stroke="#FFFFFF" stroke-width="0.4037" cx="214.802" cy="548.26" r="4.037"/>
	<circle fill="#595757" stroke="#FFFFFF" stroke-width="2" cx="238.214" cy="548.26" r="7.266"/>
	<circle stroke="#FFFFFF" stroke-width="0.4037" cx="359.311" cy="548.26" r="4.037"/>
	<circle fill="#3261C7" stroke="#FFFFFF" stroke-width="0.4037" cx="353.66" cy="548.26" r="4.037"/>
	<g>
		<text transform="matrix(1 0 0 1 135.7853 602.3472)" fill="#231815" font-family="'HYTieXianHei-EEJ'" font-size="16.2223">失误</text>
	</g>
	<line fill="none" stroke="#847F7F" stroke-width="1.6146" x1="214.802" y1="596.699" x2="425.51" y2="596.699"/>
	<line fill="none" stroke="#DCDDDD" stroke-width="15.6502" x1="250.324" y1="596.699" x2="341.55" y2="596.699"/>
	<circle stroke="#FFFFFF" stroke-width="0.4037" cx="214.802" cy="596.699" r="4.037"/>
	<circle stroke="#FFFFFF" stroke-width="0.4037" cx="425.51" cy="596.699" r="4.037"/>
	<circle fill="#3261C7" stroke="#FFFFFF" stroke-width="0.4037" cx="335.091" cy="596.699" r="4.037"/>
	<g>
		<text transform="matrix(1 0 0 1 135.7853 650.7856)" fill="#231815" font-family="'HYTieXianHei-EEJ'" font-size="16.2223">犯规</text>
	</g>
	<line fill="none" stroke="#847F7F" stroke-width="1.6146" x1="235.792" y1="645.137" x2="461.839" y2="645.137"/>
	<line fill="none" stroke="#DCDDDD" stroke-width="15.6502" x1="321.367" y1="645.137" x2="403.713" y2="645.137"/>
	<line fill="none" stroke="#DCDDDD" stroke-width="15.6502" x1="1639.29" y1="745.939" x2="1721.636" y2="745.939"/>
	<circle stroke="#FFFFFF" stroke-width="0.4037" cx="235.792" cy="645.137" r="4.037"/>
	<circle fill="#595757" stroke="#FFFFFF" stroke-width="0.4037" cx="357.696" cy="645.137" r="7.266"/>
	<circle stroke="#FFFFFF" stroke-width="0.4037" cx="461.839" cy="645.137" r="4.037"/>
	<circle fill="#3261C7" stroke="#FFFFFF" stroke-width="0.4037" cx="359.311" cy="645.137" r="4.037"/>
	
		<rect x="809.473" y="345.847" transform="matrix(0.7071 -0.7071 0.7071 0.7071 -11.271 682.8776)" fill="#E52C2C" width="18.395" height="18.395"/>
	
		<rect x="277.859" y="442.185" transform="matrix(0.7071 -0.7071 0.7071 0.7071 -235.0989 335.1865)" fill="#E52C2C" width="18.395" height="18.395"/>
	
		<rect x="325.894" y="587.501" transform="matrix(0.7071 -0.7071 0.7071 0.7071 -323.7837 411.7144)" fill="#E52C2C" width="18.395" height="18.395"/>
	
		<rect x="350.517" y="635.94" transform="matrix(0.7071 -0.7071 0.7071 0.7071 -350.8231 443.3129)" fill="#E52C2C" width="18.395" height="18.395"/>
	
		<rect x="344.462" y="539.062" transform="matrix(0.7071 -0.7071 0.7071 0.7071 -284.0939 410.6567)" fill="#E52C2C" width="18.395" height="18.395"/>
	
		<rect x="277.455" y="490.624" transform="matrix(0.7071 -0.7071 0.7071 0.7071 -269.4684 349.0884)" fill="#E52C2C" width="18.395" height="18.395"/>
	
		<rect x="1171.149" y="393.746" transform="matrix(0.7071 -0.7071 0.7071 0.7071 60.7909 952.6503)" fill="#E52C2C" width="18.395" height="18.395"/>
	
		<rect x="1487.101" y="775.589" transform="matrix(0.7071 -0.7071 0.7071 0.7071 -116.6725 1287.9017)" fill="#E52C2C" width="18.395" height="18.395"/>
	<circle fill="#595757" stroke="#FFFFFF" stroke-width="2" cx="274.543" cy="596.699" r="7.266"/>
	<text transform="matrix(1 0 0 1 1527.1152 751.6289)" font-family="'HYTieXianHei-EEJ'" font-size="13"> 联盟均值</text>
	<text transform="matrix(1 0 0 1 1527.1152 792.0752)" font-family="'HYTieXianHei-EEJ'" font-size="13"> 周琦数据</text>
	<text transform="matrix(1 0 0 1 1638.6646 792.0752)" font-family="'HYTieXianHei-EEJ'" font-size="13">同位置球员正常范围</text>
</g>
</svg>
