<?xml version="1.0" encoding="utf-8"?>
<!-- Generator: Adobe Illustrator 17.0.0, SVG Export Plug-In . SVG Version: 6.00 Build 0)  -->
<!DOCTYPE svg PUBLIC "-//W3C//DTD SVG 1.1//EN" "http://www.w3.org/Graphics/SVG/1.1/DTD/svg11.dtd">
<svg version="1.1" id="图层_1" xmlns="http://www.w3.org/2000/svg" xmlns:xlink="http://www.w3.org/1999/xlink" x="0px" y="0px"
	 width="601.93px" height="488.794px" viewBox="0 0 601.93 488.794" enable-background="new 0 0 601.93 488.794"
	 xml:space="preserve">
<rect x="157.313" y="68.464" transform="matrix(-0.7071 0.7071 -0.7071 -0.7071 387.6846 9.4963)" opacity="0.8" fill="#DCDDDD" stroke="#FFFFFF" stroke-width="0.7054" width="69.126" height="33.152"/>
<g>
	<text transform="matrix(0.7071 -0.7071 0.7071 0.7071 187.6614 93.1956)" fill="#727171" font-family="'FZLTXHK'" font-size="10">亚当斯</text>
</g>
<rect x="206.605" y="375.644" transform="matrix(-0.7071 0.7071 -0.7071 -0.7071 712.0703 561.4383)" opacity="0.8" fill="#DCDDDD" stroke="#FFFFFF" stroke-width="0.7054" width="66.304" height="105.1"/>
<g>
	<text transform="matrix(0.7071 -0.7071 0.7071 0.7071 229.543 442.3514)" fill="#727171" font-family="'FZLTXHK'" font-size="10">俞长栋</text>
</g>
<rect x="96.128" y="283.153" transform="matrix(-0.7071 0.7071 -0.7071 -0.7071 445.354 450.9609)" opacity="0.8" fill="#DCDDDD" stroke="#FFFFFF" stroke-width="0.7054" width="66.304" height="69.126"/>
<g>
	<text transform="matrix(0.7071 -0.7071 0.7071 0.7071 117.0068 333.9295)" fill="#727171" font-family="'FZLTXHK'" font-size="10">可兰白克</text>
</g>
<rect x="242.897" y="37.533" transform="matrix(-0.7071 0.7071 -0.7071 -0.7071 696.1648 99.1832)" opacity="0.9" fill="#F22525" stroke="#FFFFFF" stroke-width="0.7054" width="169.288" height="312.478"/>
<text transform="matrix(0.7071 -0.7071 0.7071 0.7071 319.3839 205.8708)" fill="#FFFFFF" font-family="'FZLTXHK'" font-size="17">周琦</text>
<rect x="59.554" y="166.223" transform="matrix(-0.7071 0.7071 -0.7071 -0.7071 289.9257 245.507)" opacity="0.8" fill="#DCDDDD" stroke="#FFFFFF" stroke-width="0.7054" width="69.126" height="33.152"/>
<g>
	<text transform="matrix(0.7071 -0.7071 0.7071 0.7071 89.9023 190.9543)" fill="#727171" font-family="'FZLTXHK'" font-size="10">孙鸣阳</text>
</g>
<rect x="173.766" y="136.29" transform="matrix(-0.7071 0.7071 -0.7071 -0.7071 597.4083 337.6021)" opacity="0.8" fill="#DCDDDD" stroke="#FFFFFF" stroke-width="0.7054" width="110.037" height="312.478"/>
<g>
	<text transform="matrix(0.7071 -0.7071 0.7071 0.7071 224.5703 300.6844)" fill="#727171" font-family="'FZLTXHK'" font-size="10">布莱切</text>
</g>
<rect x="206.192" y="19.585" transform="matrix(-0.7071 0.7071 -0.7071 -0.7071 436.564 -108.5091)" opacity="0.8" fill="#DCDDDD" stroke="#FFFFFF" stroke-width="0.7054" width="69.126" height="33.152"/>
<g>
	<text transform="matrix(0.7071 -0.7071 0.7071 0.7071 236.5409 44.3156)" fill="#727171" font-family="'FZLTXHK'" font-size="10">张桐林</text>
</g>
<rect x="47.248" y="234.274" transform="matrix(-0.7071 0.7071 -0.7071 -0.7071 327.3486 402.0815)" opacity="0.8" fill="#DCDDDD" stroke="#FFFFFF" stroke-width="0.7054" width="66.304" height="69.126"/>
<g>
	<text transform="matrix(0.7071 -0.7071 0.7071 0.7071 71.1854 280.9934)" fill="#727171" font-family="'FZLTXHK'" font-size="10">本特尔</text>
</g>
<rect x="108.433" y="117.344" transform="matrix(-0.7071 0.7071 -0.7071 -0.7071 338.8051 127.5016)" opacity="0.8" fill="#DCDDDD" stroke="#FFFFFF" stroke-width="0.7054" width="69.126" height="33.152"/>
<g>
	<text transform="matrix(0.7071 -0.7071 0.7071 0.7071 140.8385 140.0157)" fill="#727171" font-family="'FZLTXHK'" font-size="10">李根</text>
</g>
<rect x="145.007" y="332.033" transform="matrix(-0.7071 0.7071 -0.7071 -0.7071 563.3594 499.8403)" opacity="0.8" fill="#DCDDDD" stroke="#FFFFFF" stroke-width="0.7054" width="66.304" height="69.126"/>
<g>
	<text transform="matrix(0.7071 -0.7071 0.7071 0.7071 165.8872 382.8089)" fill="#727171" font-family="'FZLTXHK'" font-size="10">西热力江</text>
</g>
<rect x="10.674" y="215.102" transform="matrix(-0.7071 0.7071 -0.7071 -0.7071 241.0463 363.5125)" opacity="0.8" fill="#DCDDDD" stroke="#FFFFFF" stroke-width="0.7054" width="69.126" height="33.152"/>
<g>
	<text transform="matrix(0.7071 -0.7071 0.7071 0.7071 25.8491 255.0076)" fill="#727171" font-family="'FZLTXHK'" font-size="10">阿布都沙拉木</text>
</g>
<text transform="matrix(1 0 0 1 468.8497 483.0018)" fill="#3E3A39" font-family="'HYTieXianHei-EEJ'" font-size="24">场均封盖</text>
<g>
	<g>
		<path fill="none" stroke="#898989" d="M489.429,447.303c-1.973-42.002-43.024-75.633-93.952-76.733"/>
		<g>
			<path fill="#898989" d="M489.396,446.946c-0.958-0.901-2.81-1.288-4.086-1.286c1.751,1.222,3.295,2.833,4.193,4.811
				c0.741-2.028,2.276-3.66,3.893-5.058C492.034,445.564,490.387,445.948,489.396,446.946z"/>
		</g>
		<g>
			
				<rect x="392.903" y="367.893" transform="matrix(0.0209 -0.9998 0.9998 0.0209 16.8122 758.3672)" fill="#898989" width="5.413" height="5.413"/>
		</g>
	</g>
</g>
<text transform="matrix(1 0 0 1 378.1642 61.8201)"><tspan x="0" y="0" font-family="'FZLTXHK'" font-size="20">16-17赛季</tspan><tspan x="0" y="24" font-family="'FZLTXHK'" font-size="20">周琦场均贡献2.3次封盖</tspan><tspan x="0" y="48" font-family="'FZLTXHK'" font-size="20">位列新疆队第一</tspan></text>
</svg>
