<?xml version="1.0" encoding="utf-8"?>
<!-- Generator: Adobe Illustrator 17.0.0, SVG Export Plug-In . SVG Version: 6.00 Build 0)  -->
<!DOCTYPE svg PUBLIC "-//W3C//DTD SVG 1.1//EN" "http://www.w3.org/Graphics/SVG/1.1/DTD/svg11.dtd">
<svg version="1.1" id="图层_1" xmlns="http://www.w3.org/2000/svg" xmlns:xlink="http://www.w3.org/1999/xlink" x="0px" y="0px"
	 width="1815.686px" height="517.647px" viewBox="0 0 1815.686 517.647" enable-background="new 0 0 1815.686 517.647"
	 xml:space="preserve">
<rect x="267.009" y="238.925" transform="matrix(-0.7071 0.7071 -0.7071 -0.7071 861.5792 237.3584)" opacity="0.8" fill="#DCDDDD" stroke="#FFFFFF" stroke-width="0.7054" width="229.244" height="116.386"/>
<g>
	<text transform="matrix(0.7071 -0.7071 0.7071 0.7071 377.4139 305.2735)" fill="#727171" font-family="'FZLTXHK'" font-size="10">亚当斯</text>
</g>
<rect x="36.646" y="233.209" transform="matrix(-0.7071 0.7071 -0.7071 -0.7071 342.0156 367.7779)" opacity="0.8" fill="#DCDDDD" stroke="#FFFFFF" stroke-width="0.7054" width="116.386" height="43.027"/>
<g>
	<text transform="matrix(0.7071 -0.7071 0.7071 0.7071 90.6193 262.878)" fill="#727171" font-family="'FZLTXHK'" font-size="10">俞长栋</text>
</g>
<g transform="translate(5,5)" opacity="0.8">
	
		<rect x="20.62" y="244.618" transform="matrix(-0.7071 0.7071 -0.7071 -0.7071 226.5159 428.5628)" fill="#DCDDDD" stroke="#FFFFFF" stroke-width="0.7054" width="7.759" height="33.152"/>
	<title>卡米然斯地克江:</title>
</g>
<rect x="107.471" y="295.57" transform="matrix(-0.7071 0.7071 -0.7071 -0.7071 513.003 438.6031)" opacity="0.8" fill="#DCDDDD" stroke="#FFFFFF" stroke-width="0.7054" width="116.386" height="59.956"/>
<g>
	<text transform="matrix(0.7071 -0.7071 0.7071 0.7071 159.3878 335.7607)" fill="#727171" font-family="'FZLTXHK'" font-size="10">可兰白克</text>
</g>
<rect x="216.916" y="63.583" transform="matrix(-0.7071 0.7071 -0.7071 -0.7071 560.0225 6.6445)" opacity="0.9" fill="#F22525" width="123.439" height="111.448"/>
<text transform="matrix(0.7071 -0.7071 0.7071 0.7071 266.4739 138.4054)" fill="#FFFFFF" font-family="'FZLTXHK'" font-size="17">周琦</text>
<g transform="translate(16,5)" opacity="0.8">
	
		<rect x="15.107" y="239.132" transform="matrix(-0.7071 0.7071 -0.7071 -0.7071 213.2242 423.0955)" fill="#DCDDDD" stroke="#FFFFFF" stroke-width="0.7054" width="7.759" height="33.152"/>
	<title>唐才育:</title>
</g>
<rect x="39.116" y="219.193" transform="matrix(-0.7071 0.7071 -0.7071 -0.7071 269.012 360.1105)" opacity="0.8" fill="#DCDDDD" stroke="#FFFFFF" stroke-width="0.7054" width="41.617" height="33.152"/>
<g>
	<text transform="matrix(0.7071 -0.7071 0.7071 0.7071 51.7053 246.9251)" fill="#727171" font-family="'FZLTXHK'" font-size="10">孙鸣阳</text>
</g>
<rect x="195.934" y="183.721" transform="matrix(-0.7071 0.7071 -0.7071 -0.7071 689.9898 166.2838)" opacity="0.8" fill="#DCDDDD" stroke="#FFFFFF" stroke-width="0.7054" width="229.244" height="84.644"/>
<g>
	<text transform="matrix(0.7071 -0.7071 0.7071 0.7071 306.339 234.2)" fill="#727171" font-family="'FZLTXHK'" font-size="10">布莱切</text>
</g>
<rect x="69.066" y="262.808" transform="matrix(-0.7071 0.7071 -0.7071 -0.7071 420.2845 400.198)" opacity="0.8" fill="#DCDDDD" stroke="#FFFFFF" stroke-width="0.7054" width="116.386" height="48.67"/>
<g>
	<text transform="matrix(0.7071 -0.7071 0.7071 0.7071 123.04 295.2987)" fill="#727171" font-family="'FZLTXHK'" font-size="10">张桐林</text>
</g>
<rect x="144.683" y="144.633" transform="matrix(-0.7071 0.7071 -0.7071 -0.7071 478.9725 202.3167)" opacity="0.8" fill="#DCDDDD" stroke="#FFFFFF" stroke-width="0.7054" width="105.805" height="111.448"/>
<g>
	<text transform="matrix(0.7071 -0.7071 0.7071 0.7071 193.3671 208.512)" fill="#727171" font-family="'FZLTXHK'" font-size="10">本特尔</text>
</g>
<rect x="207.724" y="376.778" transform="matrix(-0.7071 0.7071 -0.7071 -0.7071 755.0344 538.8559)" opacity="0.8" fill="#DCDDDD" stroke="#FFFFFF" stroke-width="0.7054" width="116.386" height="98.046"/>
<g>
	<text transform="matrix(0.7071 -0.7071 0.7071 0.7071 263.7563 431.8994)" fill="#727171" font-family="'FZLTXHK'" font-size="10">李根</text>
</g>
<rect x="186.864" y="42.878" transform="matrix(-0.7071 0.7071 -0.7071 -0.7071 445.327 -65.5518)" opacity="0.8" fill="#DCDDDD" stroke="#FFFFFF" stroke-width="0.7054" width="98.751" height="33.152"/>
<g>
	<text transform="matrix(0.7071 -0.7071 0.7071 0.7071 232.0213 67.6086)" fill="#727171" font-family="'FZLTXHK'" font-size="10">王子瑞</text>
</g>
<g transform="translate(27,5)" opacity="0.8">
	
		<rect x="9.18" y="232.648" transform="matrix(-0.7071 0.7071 -0.7071 -0.7071 200.9301 415.2199)" fill="#DCDDDD" stroke="#FFFFFF" stroke-width="0.7054" width="10.581" height="33.152"/>
	<title>王政博:</title>
</g>
<rect x="117.036" y="112.706" transform="matrix(-0.7071 0.7071 -0.7071 -0.7071 375.4993 103.0274)" opacity="0.8" fill="#DCDDDD" stroke="#FFFFFF" stroke-width="0.7054" width="98.751" height="33.152"/>
<g>
	<text transform="matrix(0.7071 -0.7071 0.7071 0.7071 162.1935 137.4364)" fill="#727171" font-family="'FZLTXHK'" font-size="10">罗旭东</text>
</g>
<rect x="150.864" y="337.552" transform="matrix(-0.7071 0.7071 -0.7071 -0.7071 617.7629 481.9962)" opacity="0.8" fill="#DCDDDD" stroke="#FFFFFF" stroke-width="0.7054" width="116.386" height="62.778"/>
<g>
	<text transform="matrix(0.7071 -0.7071 0.7071 0.7071 202.7812 379.1541)" fill="#727171" font-family="'FZLTXHK'" font-size="10">西热力江</text>
</g>
<rect x="62.862" y="176.05" transform="matrix(-0.7071 0.7071 -0.7071 -0.7071 312.1555 255.9527)" opacity="0.8" fill="#DCDDDD" stroke="#FFFFFF" stroke-width="0.7054" width="80.412" height="33.152"/>
<g>
	<text transform="matrix(0.7071 -0.7071 0.7071 0.7071 85.6764 214.9537)" fill="#727171" font-family="'FZLTXHK'" font-size="10">阿布都沙拉木</text>
</g>
<rect x="820.857" y="75.61" transform="matrix(-0.7071 0.7071 -0.7071 -0.7071 1594.8674 -404.2961)" opacity="0.8" fill="#DCDDDD" stroke="#FFFFFF" stroke-width="0.7054" width="120.618" height="105.1"/>
<text transform="matrix(0.7071 -0.7071 0.7071 0.7071 876.9492 136.3143)" fill="#727171" font-family="'FZLTXHK'" font-size="10">亚当斯</text>
<rect x="736.928" y="327.338" transform="matrix(-0.7071 0.7071 -0.7071 -0.7071 1608.2791 63.9797)" opacity="0.8" fill="#DCDDDD" stroke="#FFFFFF" stroke-width="0.7054" width="107.921" height="75.474"/>
<text transform="matrix(0.7071 -0.7071 0.7071 0.7071 786.6719 373.2313)" fill="#727171" font-family="'FZLTXHK'" font-size="10">俞长栋</text>
<rect x="623.801" y="248.201" fill="#BF6969" stroke="#FFFFFF" stroke-width="0.7054" width="0" height="52.197"/>
<rect x="775.48" y="42.209" transform="matrix(-0.7071 0.7071 -0.7071 -0.7071 1464.8457 -470.1441)" opacity="0.8" fill="#DCDDDD" stroke="#FFFFFF" stroke-width="0.7054" width="108.626" height="52.197"/>
<text transform="matrix(0.7071 -0.7071 0.7071 0.7071 823.5182 78.5191)" fill="#727171" font-family="'FZLTXHK'" font-size="10">可兰白克</text>
<rect x="790.742" y="193.184" transform="matrix(-0.7071 0.7071 -0.7071 -0.7071 1722.0486 -234.525)" opacity="0.9" fill="#F22525" stroke="#FFFFFF" stroke-width="0.7054" width="237.709" height="92.403"/>
<text transform="matrix(0.7071 -0.7071 0.7071 0.7071 896.4354 257.4843)" fill="#FFFFFF" font-family="'FZLTXHK'" font-size="17">周琦</text>
<rect x="623.801" y="248.201" fill="#BF6969" stroke="#FFFFFF" stroke-width="0.7054" width="0" height="52.197"/>
<rect x="622.969" y="225.756" transform="matrix(-0.7071 0.7071 -0.7071 -0.7071 1281.2985 -27.0219)" opacity="0.8" fill="#DCDDDD" stroke="#FFFFFF" stroke-width="0.7054" width="46.554" height="52.197"/>
<text transform="matrix(0.7071 -0.7071 0.7071 0.7071 639.0275 263.0105)" fill="#727171" font-family="'FZLTXHK'" font-size="10">孙鸣阳</text>
<rect x="857.328" y="258.006" transform="matrix(-0.7071 0.7071 -0.7071 -0.7071 1882.8009 -167.9393)" opacity="0.8" fill="#DCDDDD" stroke="#FFFFFF" stroke-width="0.7054" width="237.709" height="95.93"/>
<text transform="matrix(0.7071 -0.7071 0.7071 0.7071 971.9658 314.1262)" fill="#727171" font-family="'FZLTXHK'" font-size="10">布莱切</text>
<rect x="738.578" y="159.653" transform="matrix(-0.7071 0.7071 -0.7071 -0.7071 1510.8248 -201.3991)" opacity="0.8" fill="#DCDDDD" stroke="#FFFFFF" stroke-width="0.7054" width="117.091" height="105.1"/>
<text transform="matrix(0.7071 -0.7071 0.7071 0.7071 792.906 220.3575)" fill="#727171" font-family="'FZLTXHK'" font-size="10">张桐林</text>
<rect x="798.776" y="377.194" transform="matrix(-0.7071 0.7071 -0.7071 -0.7071 1757.5919 125.8273)" opacity="0.8" fill="#DCDDDD" stroke="#FFFFFF" stroke-width="0.7054" width="107.921" height="99.457"/>
<text transform="matrix(0.7071 -0.7071 0.7071 0.7071 848.52 435.08)" fill="#727171" font-family="'FZLTXHK'" font-size="10">本特尔</text>
<rect x="645.903" y="246.541" transform="matrix(-0.7071 0.7071 -0.7071 -0.7071 1388.524 -27.0457)" opacity="0.8" fill="#DCDDDD" stroke="#FFFFFF" stroke-width="0.7054" width="107.921" height="55.019"/>
<text transform="matrix(0.7071 -0.7071 0.7071 0.7071 697.7031 280.1469)" fill="#727171" font-family="'FZLTXHK'" font-size="10">李根</text>
<rect x="655.268" y="191.341" transform="matrix(-0.7071 0.7071 -0.7071 -0.7071 1315.7135 -110.1073)" opacity="0.8" fill="#DCDDDD" stroke="#FFFFFF" stroke-width="0.7054" width="50.786" height="52.197"/>
<text transform="matrix(0.7071 -0.7071 0.7071 0.7071 673.4432 228.5948)" fill="#727171" font-family="'FZLTXHK'" font-size="10">王子瑞</text>
<rect x="622.561" y="245.208" transform="matrix(-0.7071 0.7071 -0.7071 -0.7071 1261.8464 19.9395)" opacity="0.8" fill="#DCDDDD" stroke="#FFFFFF" stroke-width="0.7054" width="8.464" height="52.197"/>
<rect x="733.589" y="104.555" transform="matrix(-0.7071 0.7071 -0.7071 -0.7071 1402.4995 -319.627)" opacity="0.8" fill="#DCDDDD" stroke="#FFFFFF" stroke-width="0.7054" width="67.715" height="52.197"/>
<text transform="matrix(0.7071 -0.7071 0.7071 0.7071 758.229 143.8088)" fill="#727171" font-family="'FZLTXHK'" font-size="10">罗旭东</text>
<rect x="687.799" y="284.205" transform="matrix(-0.7071 0.7071 -0.7071 -0.7071 1489.6716 14.851)" opacity="0.8" fill="#DCDDDD" stroke="#FFFFFF" stroke-width="0.7054" width="107.921" height="63.483"/>
<text transform="matrix(0.7071 -0.7071 0.7071 0.7071 735.4853 326.1595)" fill="#727171" font-family="'FZLTXHK'" font-size="10">西热力江</text>
<rect x="689.32" y="150.941" transform="matrix(-0.7071 0.7071 -0.7071 -0.7071 1356.114 -207.6423)" opacity="0.8" fill="#DCDDDD" stroke="#FFFFFF" stroke-width="0.7054" width="63.483" height="52.197"/>
<text transform="matrix(0.7071 -0.7071 0.7071 0.7071 701.6697 199.3676)" fill="#727171" font-family="'FZLTXHK'" font-size="10">阿布都沙拉木</text>
<rect x="1382.215" y="79.912" transform="matrix(-0.7071 0.7071 -0.7071 -0.7071 2486.8181 -837.0977)" opacity="0.8" fill="#DCDDDD" stroke="#FFFFFF" stroke-width="0.7054" width="69.126" height="33.152"/>
<g>
	
		<text transform="matrix(0.7071 -0.7071 0.7071 0.7071 1412.5638 104.6435)" fill="#727171" font-family="'FZLTXHK'" font-size="10">亚当斯</text>
</g>
<rect x="1431.507" y="387.092" transform="matrix(-0.7071 0.7071 -0.7071 -0.7071 2811.2036 -285.1556)" opacity="0.8" fill="#DCDDDD" stroke="#FFFFFF" stroke-width="0.7054" width="66.304" height="105.1"/>
<g>
	
		<text transform="matrix(0.7071 -0.7071 0.7071 0.7071 1454.4453 453.7993)" fill="#727171" font-family="'FZLTXHK'" font-size="10">俞长栋</text>
</g>
<rect x="1245.7" y="250.99" fill="#BF6969" stroke="#FFFFFF" stroke-width="0.7054" width="0" height="33.152"/>
<rect x="1321.03" y="294.601" transform="matrix(-0.7071 0.7071 -0.7071 -0.7071 2544.4875 -395.6331)" opacity="0.8" fill="#DCDDDD" stroke="#FFFFFF" stroke-width="0.7054" width="66.304" height="69.126"/>
<g>
	
		<text transform="matrix(0.7071 -0.7071 0.7071 0.7071 1341.9092 345.3773)" fill="#727171" font-family="'FZLTXHK'" font-size="10">可兰白克</text>
</g>
<rect x="1467.799" y="48.981" transform="matrix(-0.7071 0.7071 -0.7071 -0.7071 2795.2983 -747.4109)" opacity="0.9" fill="#F22525" stroke="#FFFFFF" stroke-width="0.7054" width="169.288" height="312.478"/>
<text transform="matrix(0.7071 -0.7071 0.7071 0.7071 1544.2863 217.3186)" fill="#FFFFFF" font-family="'FZLTXHK'" font-size="17">周琦</text>
<rect x="1245.7" y="250.99" fill="#BF6969" stroke="#FFFFFF" stroke-width="0.7054" width="0" height="33.152"/>
<rect x="1284.456" y="177.671" transform="matrix(-0.7071 0.7071 -0.7071 -0.7071 2389.0591 -601.087)" opacity="0.8" fill="#DCDDDD" stroke="#FFFFFF" stroke-width="0.7054" width="69.126" height="33.152"/>
<g>
	
		<text transform="matrix(0.7071 -0.7071 0.7071 0.7071 1314.8047 202.4021)" fill="#727171" font-family="'FZLTXHK'" font-size="10">孙鸣阳</text>
</g>
<rect x="1398.668" y="147.737" transform="matrix(-0.7071 0.7071 -0.7071 -0.7071 2696.5417 -508.9918)" opacity="0.8" fill="#DCDDDD" stroke="#FFFFFF" stroke-width="0.7054" width="110.037" height="312.478"/>
<g>
	
		<text transform="matrix(0.7071 -0.7071 0.7071 0.7071 1449.4727 312.1323)" fill="#727171" font-family="'FZLTXHK'" font-size="10">布莱切</text>
</g>
<rect x="1431.094" y="31.032" transform="matrix(-0.7071 0.7071 -0.7071 -0.7071 2535.6973 -955.1031)" opacity="0.8" fill="#DCDDDD" stroke="#FFFFFF" stroke-width="0.7054" width="69.126" height="33.152"/>
<g>
	<text transform="matrix(0.7071 -0.7071 0.7071 0.7071 1461.4434 55.7634)" fill="#727171" font-family="'FZLTXHK'" font-size="10">张桐林</text>
</g>
<rect x="1272.15" y="245.722" transform="matrix(-0.7071 0.7071 -0.7071 -0.7071 2426.4822 -444.5126)" opacity="0.8" fill="#DCDDDD" stroke="#FFFFFF" stroke-width="0.7054" width="66.304" height="69.126"/>
<g>
	
		<text transform="matrix(0.7071 -0.7071 0.7071 0.7071 1296.0878 292.4413)" fill="#727171" font-family="'FZLTXHK'" font-size="10">本特尔</text>
</g>
<rect x="1333.335" y="128.791" transform="matrix(-0.7071 0.7071 -0.7071 -0.7071 2437.9387 -719.0924)" opacity="0.8" fill="#DCDDDD" stroke="#FFFFFF" stroke-width="0.7054" width="69.126" height="33.152"/>
<g>
	
		<text transform="matrix(0.7071 -0.7071 0.7071 0.7071 1365.7408 151.4636)" fill="#727171" font-family="'FZLTXHK'" font-size="10">李根</text>
</g>
<rect x="1245.7" y="250.99" fill="#BF6969" stroke="#FFFFFF" stroke-width="0.7054" width="0" height="33.152"/>
<rect x="1245.7" y="250.99" fill="#BF6969" stroke="#FFFFFF" stroke-width="0.7054" width="0" height="33.152"/>
<rect x="1245.7" y="250.99" fill="#BF6969" stroke="#FFFFFF" stroke-width="0.7054" width="0" height="33.152"/>
<rect x="1369.909" y="343.481" transform="matrix(-0.7071 0.7071 -0.7071 -0.7071 2662.4929 -346.7536)" opacity="0.8" fill="#DCDDDD" stroke="#FFFFFF" stroke-width="0.7054" width="66.304" height="69.126"/>
<g>
	
		<text transform="matrix(0.7071 -0.7071 0.7071 0.7071 1390.7896 394.2567)" fill="#727171" font-family="'FZLTXHK'" font-size="10">西热力江</text>
</g>
<rect x="1235.576" y="226.55" transform="matrix(-0.7071 0.7071 -0.7071 -0.7071 2340.1797 -483.0816)" opacity="0.8" fill="#DCDDDD" stroke="#FFFFFF" stroke-width="0.7054" width="69.126" height="33.152"/>
<g>
	
		<text transform="matrix(0.7071 -0.7071 0.7071 0.7071 1250.7515 266.4555)" fill="#727171" font-family="'FZLTXHK'" font-size="10">阿布都沙拉木</text>
</g>
<text transform="matrix(1 0 0 1 463.8192 494.4496)" fill="#3E3A39" font-family="'HYTieXianHei-EEJ'" font-size="24">场均得分</text>
<g>
	<g>
		<path fill="none" stroke="#898989" d="M484.398,458.751c-1.973-42.002-43.024-75.633-93.952-76.733"/>
		<g>
			<path fill="#898989" d="M484.365,458.393c-0.958-0.901-2.81-1.288-4.086-1.286c1.751,1.222,3.295,2.833,4.194,4.811
				c0.741-2.028,2.276-3.66,3.893-5.058C487.003,457.012,485.355,457.396,484.365,458.393z"/>
		</g>
		<g>
			
				<rect x="387.871" y="379.341" transform="matrix(0.0209 -0.9998 0.9998 0.0209 0.458 764.5628)" fill="#898989" width="5.413" height="5.413"/>
		</g>
	</g>
</g>
<text transform="matrix(1 0 0 1 1073.4866 494.4496)" fill="#3E3A39" font-family="'HYTieXianHei-EEJ'" font-size="24">场均篮板</text>
<g>
	<g>
		<path fill="none" stroke="#898989" d="M1094.067,458.751c-1.974-42.002-43.024-75.633-93.953-76.733"/>
		<g>
			<path fill="#898989" d="M1094.033,458.393c-0.958-0.901-2.81-1.288-4.086-1.286c1.751,1.222,3.295,2.833,4.194,4.811
				c0.741-2.028,2.276-3.66,3.893-5.058C1096.671,457.012,1095.024,457.396,1094.033,458.393z"/>
		</g>
		<g>
			
				<rect x="997.54" y="379.341" transform="matrix(0.0209 -0.9998 0.9998 0.0209 597.351 1374.0801)" fill="#898989" width="5.413" height="5.413"/>
		</g>
	</g>
</g>
<text transform="matrix(1 0 0 1 1693.751 494.4496)" fill="#3E3A39" font-family="'HYTieXianHei-EEJ'" font-size="24">场均封盖</text>
<g>
	<g>
		<path fill="none" stroke="#898989" d="M1714.331,458.751c-1.973-42.002-43.024-75.633-93.952-76.733"/>
		<g>
			<path fill="#898989" d="M1714.298,458.393c-0.958-0.901-2.81-1.288-4.086-1.286c1.751,1.222,3.295,2.833,4.193,4.811
				c0.741-2.028,2.276-3.66,3.893-5.058C1716.936,457.012,1715.289,457.396,1714.298,458.393z"/>
		</g>
		<g>
			
				<rect x="1617.805" y="379.341" transform="matrix(0.0209 -0.9998 0.9998 0.0209 1204.6362 1994.2094)" fill="#898989" width="5.413" height="5.413"/>
		</g>
	</g>
</g>
<text transform="matrix(1 0 0 1 409.5304 73.268)"><tspan x="0" y="0" font-family="'FZLTXHK'" font-size="20">16-17赛季</tspan><tspan x="0" y="24" font-family="'FZLTXHK'" font-size="20">周琦场均贡献15.9分</tspan><tspan x="0" y="48" font-family="'FZLTXHK'" font-size="20">位列新疆队第三</tspan></text>
<text transform="matrix(1 0 0 1 1002.3521 73.268)"><tspan x="0" y="0" font-family="'FZLTXHK'" font-size="20">16-17赛季</tspan><tspan x="0" y="24" font-family="'FZLTXHK'" font-size="20">周琦场均贡献10个篮板</tspan><tspan x="0" y="48" font-family="'FZLTXHK'" font-size="20">位列新疆队第二</tspan></text>
<text transform="matrix(1 0 0 1 1603.0654 73.268)"><tspan x="0" y="0" font-family="'FZLTXHK'" font-size="20">16-17赛季</tspan><tspan x="0" y="24" font-family="'FZLTXHK'" font-size="20">周琦场均贡献2.3次封盖</tspan><tspan x="0" y="48" font-family="'FZLTXHK'" font-size="20">位列新疆队第一</tspan></text>
</svg>
