<?xml version="1.0" encoding="utf-8"?>
<!-- Generator: Adobe Illustrator 17.0.0, SVG Export Plug-In . SVG Version: 6.00 Build 0)  -->
<!DOCTYPE svg PUBLIC "-//W3C//DTD SVG 1.1//EN" "http://www.w3.org/Graphics/SVG/1.1/DTD/svg11.dtd">
<svg version="1.1" id="图层_1" xmlns="http://www.w3.org/2000/svg" xmlns:xlink="http://www.w3.org/1999/xlink" x="0px" y="0px"
	 width="1061.185px" height="1110.319px" viewBox="0 0 1061.185 1110.319" enable-background="new 0 0 1061.185 1110.319"
	 xml:space="preserve">
<circle fill="#595757" stroke="#FFFFFF" stroke-width="2.9271" cx="590.772" cy="54.994" r="10.634"/>
<line fill="none" stroke="#DCDDDD" stroke-width="14.4131" x1="811.811" y1="54.994" x2="887.647" y2="54.994"/>
<rect x="683.692" y="46.523" transform="matrix(0.7071 -0.7071 0.7071 0.7071 163.8434 505.5404)" fill="#F7931E" width="16.941" height="16.941"/>
<g>
	
		<text transform="matrix(0.9972 0 0 1 619.1547 59.1793)" fill="#595757" font-family="'AdobeHeitiStd-Regular-GBpc-EUC-H'" font-size="14.6841"> 中值</text>
</g>
<g>
	
		<text transform="matrix(0.9972 0 0 1 720.5453 61.7082)" fill="#595757" font-family="'AdobeHeitiStd-Regular-GBpc-EUC-H'" font-size="14.6841"> 周琦数据</text>
</g>
<g>
	
		<text transform="matrix(0.9972 0 0 1 897.0736 61.7082)" fill="#595757" font-family="'AdobeHeitiStd-Regular-GBpc-EUC-H'" font-size="14.6841">同位置球员正常范围</text>
</g>
<text transform="matrix(1 0 0 1 1000.3019 142.3256)" fill="#716D6D" font-family="'ArialMT'" font-size="13.8143">3.10</text>
<text transform="matrix(1 0 0 1 874.13 142.3256)" fill="#716D6D" font-family="'ArialMT'" font-size="13.8143">3.20</text>
<text transform="matrix(1 0 0 1 747.9611 142.3256)" fill="#716D6D" font-family="'ArialMT'" font-size="13.8143">3.30</text>
<text transform="matrix(1 0 0 1 622.712 142.3256)" fill="#716D6D" font-family="'ArialMT'" font-size="13.8143">3.40</text>
<text transform="matrix(1 0 0 1 496.5402 142.3256)" fill="#716D6D" font-family="'ArialMT'" font-size="13.8143">3.50</text>
<text transform="matrix(1 0 0 1 370.3673 142.3256)" fill="#716D6D" font-family="'ArialMT'" font-size="13.8143">3.60</text>
<text transform="matrix(1 0 0 1 245.1173 142.3256)" fill="#716D6D" font-family="'ArialMT'" font-size="13.8143">3.70</text>
<text transform="matrix(1 0 0 1 118.9494 142.3256)" fill="#716D6D" font-family="'ArialMT'" font-size="13.8143">3.80</text>
<text transform="matrix(1 0 0 1 1009.5089 103.6439)" fill="#716D6D" font-family="'AdobeSongStd-Light-GBpc-EUC-H'" font-size="11.0515">最快</text>
<text transform="matrix(1 0 0 1 681.6515 103.6439)" fill="#716D6D" font-family="'ArialMT'" font-size="11.0515">Mid</text>
<text transform="matrix(1 0 0 1 116.1837 103.6439)" enable-background="new    "><tspan x="0" y="0" fill="#716D6D" font-family="'ArialMT'" font-size="11.0515"> </tspan><tspan x="3.07" y="0" fill="#716D6D" font-family="'AdobeSongStd-Light-GBpc-EUC-H'" font-size="11.0515">最慢（秒）</tspan></text>
<g>
	
		<text transform="matrix(0.9972 0 0 1 83.382 76.0912)" fill="#3E3A39" font-family="'AdobeHeitiStd-Regular-GBpc-EUC-H'" font-size="21.3523">冲刺跑</text>
</g>
<line fill="none" stroke="#847F7F" stroke-width="1.8419" x1="1018.725" y1="114.696" x2="125.398" y2="114.696"/>
<line fill="none" stroke="#DCDDDD" stroke-width="13.8143" x1="804.142" y1="114.696" x2="565.615" y2="114.696"/>
<circle stroke="#FFFFFF" stroke-width="0.4605" cx="1018.724" cy="114.696" r="4.605"/>
<circle fill="#595757" stroke="#FFFFFF" stroke-width="1.8419" cx="690.865" cy="114.696" r="8.289"/>
<circle stroke="#FFFFFF" stroke-width="0.4605" cx="125.398" cy="114.696" r="4.605"/>
<circle fill="#3261C7" stroke="#FFFFFF" stroke-width="0.4605" cx="565.615" cy="114.696" r="4.605"/>
<text transform="matrix(1 0 0 1 1000.3019 241.9633)" fill="#716D6D" font-family="'ArialMT'" font-size="13.8143">10.26</text>
<text transform="matrix(1 0 0 1 887.0265 241.9633)" fill="#716D6D" font-family="'ArialMT'" font-size="13.8143">10.66</text>
<text transform="matrix(1 0 0 1 774.6681 241.9633)" fill="#716D6D" font-family="'ArialMT'" font-size="13.8143">11.06</text>
<text transform="matrix(1 0 0 1 662.3136 241.9633)" fill="#716D6D" font-family="'ArialMT'" font-size="13.8143">11.46</text>
<text transform="matrix(1 0 0 1 549.9552 241.9633)" fill="#716D6D" font-family="'ArialMT'" font-size="13.8143">11.86</text>
<text transform="matrix(1 0 0 1 437.6007 241.9633)" fill="#716D6D" font-family="'ArialMT'" font-size="13.8143">12.26</text>
<text transform="matrix(1 0 0 1 325.2433 241.9633)" fill="#716D6D" font-family="'ArialMT'" font-size="13.8143">12.66</text>
<text transform="matrix(1 0 0 1 212.8878 241.9633)" fill="#716D6D" font-family="'ArialMT'" font-size="13.8143">13.06</text>
<text transform="matrix(1 0 0 1 100.5304 241.9633)" fill="#716D6D" font-family="'ArialMT'" font-size="13.8143">13.46</text>
<text transform="matrix(1 0 0 1 1009.5089 203.2826)" fill="#716D6D" font-family="'AdobeSongStd-Light-GBpc-EUC-H'" font-size="11.0515">最快</text>
<text transform="matrix(1 0 0 1 598.7657 203.2826)" fill="#716D6D" font-family="'ArialMT'" font-size="11.0515">Mid</text>
<text transform="matrix(1 0 0 1 116.1837 203.2826)" enable-background="new    "><tspan x="0" y="0" fill="#716D6D" font-family="'ArialMT'" font-size="11.0515"> </tspan><tspan x="3.07" y="0" fill="#716D6D" font-family="'AdobeSongStd-Light-GBpc-EUC-H'" font-size="11.0515">最慢（秒）</tspan></text>
<g>
	
		<text transform="matrix(0.9972 0 0 1 84.2521 175.7328)" fill="#3E3A39" font-family="'AdobeHeitiStd-Regular-GBpc-EUC-H'" font-size="21.3523">绕桩变向</text>
</g>
<g>
	<text transform="matrix(0.9972 0 0 1 22.7648 214.3344)"><tspan x="0" y="0" fill="#3E3A39" font-family="'AdobeHeitiStd-Regular-GBpc-EUC-H'" font-size="21.3523">敏</tspan><tspan x="0" y="25.623" fill="#3E3A39" font-family="'AdobeHeitiStd-Regular-GBpc-EUC-H'" font-size="21.3523">捷</tspan></text>
</g>
<g>
	<text transform="matrix(0.9972 0 0 1 22.7648 421.0707)"><tspan x="0" y="0" fill="#3E3A39" font-family="'AdobeHeitiStd-Regular-GBpc-EUC-H'" font-size="21.3523">爆</tspan><tspan x="0" y="25.623" fill="#3E3A39" font-family="'AdobeHeitiStd-Regular-GBpc-EUC-H'" font-size="21.3523">发</tspan></text>
</g>
<g>
	<text transform="matrix(0.9972 0 0 1 22.7648 583.4808)"><tspan x="0" y="0" fill="#3E3A39" font-family="'AdobeHeitiStd-Regular-GBpc-EUC-H'" font-size="21.3523">力</tspan><tspan x="0" y="25.623" fill="#3E3A39" font-family="'AdobeHeitiStd-Regular-GBpc-EUC-H'" font-size="21.3523">量</tspan></text>
</g>
<g>
	<text transform="matrix(0.9972 0 0 1 22.7648 824.6483)"><tspan x="0" y="0" fill="#3E3A39" font-family="'AdobeHeitiStd-Regular-GBpc-EUC-H'" font-size="21.3523">身</tspan><tspan x="0" y="25.623" fill="#3E3A39" font-family="'AdobeHeitiStd-Regular-GBpc-EUC-H'" font-size="21.3523">体</tspan><tspan x="0" y="51.245" fill="#3E3A39" font-family="'AdobeHeitiStd-Regular-GBpc-EUC-H'" font-size="21.3523">指</tspan><tspan x="0" y="76.868" fill="#3E3A39" font-family="'AdobeHeitiStd-Regular-GBpc-EUC-H'" font-size="21.3523">标</tspan></text>
</g>
<g>
	<text transform="matrix(0.9972 0 0 1 22.7648 67.1078)"><tspan x="0" y="0" fill="#3E3A39" font-family="'AdobeHeitiStd-Regular-GBpc-EUC-H'" font-size="21.3523">速</tspan><tspan x="0" y="25.623" fill="#3E3A39" font-family="'AdobeHeitiStd-Regular-GBpc-EUC-H'" font-size="21.3523">度</tspan></text>
</g>
<line fill="none" stroke="#847F7F" stroke-width="1.8419" x1="1018.724" y1="214.335" x2="125.398" y2="214.335"/>
<line fill="none" stroke="#DCDDDD" stroke-width="13.8143" x1="714.809" y1="215.256" x2="501.148" y2="215.256"/>
<circle stroke="#FFFFFF" stroke-width="0.4605" cx="1018.724" cy="214.335" r="4.605"/>
<circle fill="#595757" stroke="#FFFFFF" stroke-width="1.8419" cx="607.978" cy="214.335" r="8.289"/>
<circle stroke="#FFFFFF" stroke-width="0.4605" cx="125.398" cy="214.335" r="4.605"/>
<circle fill="#3261C7" stroke="#FFFFFF" stroke-width="0.4605" cx="734.149" cy="214.335" r="4.605"/>
<text transform="matrix(1 0 0 1 1001.2238 350.3441)" fill="#716D6D" font-family="'ArialMT'" font-size="13.8143">2.69</text>
<text transform="matrix(1 0 0 1 895.3116 350.3441)" fill="#716D6D" font-family="'ArialMT'" font-size="13.8143">2.79</text>
<text transform="matrix(1 0 0 1 790.3234 350.3441)" fill="#716D6D" font-family="'ArialMT'" font-size="13.8143">2.89</text>
<text transform="matrix(1 0 0 1 685.3351 350.3441)" fill="#716D6D" font-family="'ArialMT'" font-size="13.8143">2.99</text>
<text transform="matrix(1 0 0 1 580.3468 350.3441)" fill="#716D6D" font-family="'ArialMT'" font-size="13.8143">3.09</text>
<text transform="matrix(1 0 0 1 475.3566 350.3441)" fill="#716D6D" font-family="'ArialMT'" font-size="13.8143">3.19</text>
<text transform="matrix(1 0 0 1 370.3673 350.3441)" fill="#716D6D" font-family="'ArialMT'" font-size="13.8143">3.29</text>
<text transform="matrix(1 0 0 1 265.383 350.3441)" fill="#716D6D" font-family="'ArialMT'" font-size="13.8143">3.39</text>
<text transform="matrix(1 0 0 1 160.3908 350.3441)" fill="#716D6D" font-family="'ArialMT'" font-size="13.8143">3.49</text>
<text transform="matrix(1 0 0 1 1010.4298 311.6654)" fill="#716D6D" font-family="'AdobeSongStd-Light-GBpc-EUC-H'" font-size="11.0515">最快</text>
<text transform="matrix(1 0 0 1 558.2452 311.6654)" fill="#716D6D" font-family="'ArialMT'" font-size="11.0515">Mid</text>
<text transform="matrix(1 0 0 1 117.1095 311.6654)" enable-background="new    "><tspan x="0" y="0" fill="#716D6D" font-family="'ArialMT'" font-size="11.0515"> </tspan><tspan x="3.07" y="0" fill="#716D6D" font-family="'AdobeSongStd-Light-GBpc-EUC-H'" font-size="11.0515">最慢（秒）</tspan></text>
<g>
	
		<text transform="matrix(0.9972 0 0 1 82.2873 284.1156)" fill="#3E3A39" font-family="'AdobeHeitiStd-Regular-GBpc-EUC-H'" font-size="21.3523">折返跑</text>
</g>
<line fill="none" stroke="#847F7F" stroke-width="1.8419" x1="1019.644" y1="322.717" x2="126.318" y2="322.717"/>
<line fill="none" stroke="#DCDDDD" stroke-width="13.8143" x1="703.757" y1="322.717" x2="420.102" y2="322.717"/>
<circle stroke="#FFFFFF" stroke-width="0.4605" cx="1019.644" cy="322.717" r="4.605"/>
<circle fill="#595757" stroke="#FFFFFF" stroke-width="1.8419" cx="567.455" cy="322.717" r="8.289"/>
<circle stroke="#FFFFFF" stroke-width="0.4605" cx="126.318" cy="322.717" r="4.605"/>
<circle fill="#3261C7" stroke="#FFFFFF" stroke-width="0.4605" cx="798.615" cy="322.717" r="4.605"/>
<line fill="none" stroke="#DAD7D7" stroke-width="0.4605" x1="125.397" y1="420.728" x2="125.397" y2="429.937"/>
<text transform="matrix(1 0 0 1 106.9777 448.3539)" fill="#716D6D" font-family="'ArialMT'" font-size="13.8143">20.5</text>
<line fill="none" stroke="#DAD7D7" stroke-width="0.4605" x1="234.991" y1="420.728" x2="234.991" y2="429.937"/>
<text transform="matrix(1 0 0 1 216.5714 448.3539)" fill="#716D6D" font-family="'ArialMT'" font-size="13.8143">22.6</text>
<line fill="none" stroke="#DAD7D7" stroke-width="0.4605" x1="345.506" y1="420.728" x2="345.506" y2="429.937"/>
<text transform="matrix(1 0 0 1 327.0861 448.3539)" fill="#716D6D" font-family="'ArialMT'" font-size="13.8143">24.7</text>
<line fill="none" stroke="#DAD7D7" stroke-width="0.4605" x1="456.02" y1="420.728" x2="456.02" y2="429.937"/>
<text transform="matrix(1 0 0 1 437.6007 448.3539)" fill="#716D6D" font-family="'ArialMT'" font-size="13.8143">26.8</text>
<line fill="none" stroke="#DAD7D7" stroke-width="0.4605" x1="566.535" y1="420.728" x2="566.535" y2="429.937"/>
<text transform="matrix(1 0 0 1 548.1154 448.3539)" fill="#716D6D" font-family="'ArialMT'" font-size="13.8143">28.9</text>
<line fill="none" stroke="#DAD7D7" stroke-width="0.4605" x1="677.049" y1="420.728" x2="677.049" y2="429.937"/>
<text transform="matrix(1 0 0 1 658.63 448.3539)" fill="#716D6D" font-family="'ArialMT'" font-size="13.8143">31</text>
<line fill="none" stroke="#DAD7D7" stroke-width="0.4605" x1="786.643" y1="420.728" x2="786.643" y2="429.937"/>
<text transform="matrix(1 0 0 1 768.2208 448.3539)" fill="#716D6D" font-family="'ArialMT'" font-size="13.8143">33.1</text>
<line fill="none" stroke="#DAD7D7" stroke-width="0.4605" x1="897.158" y1="420.728" x2="897.158" y2="429.937"/>
<text transform="matrix(1 0 0 1 878.7355 448.3539)" fill="#716D6D" font-family="'ArialMT'" font-size="13.8143">35.2</text>
<line fill="none" stroke="#DAD7D7" stroke-width="0.4605" x1="1007.672" y1="420.728" x2="1007.672" y2="429.937"/>
<text transform="matrix(1 0 0 1 989.2501 448.3539)" fill="#716D6D" font-family="'ArialMT'" font-size="13.8143">37.3</text>
<text transform="matrix(1 0 0 1 116.1837 409.6761)" fill="#716D6D" font-family="'AdobeSongStd-Light-GBpc-EUC-H'" font-size="11.0515">最低（英寸）</text>
<text transform="matrix(1 0 0 1 536.1417 409.6761)" fill="#716D6D" font-family="'ArialMT'" font-size="11.0515">Mid</text>
<text transform="matrix(1 0 0 1 1009.5089 409.6761)" fill="#716D6D" font-family="'AdobeSongStd-Light-GBpc-EUC-H'" font-size="11.0515">最高</text>
<g>
	
		<text transform="matrix(0.9972 0 0 1 82.2853 382.1254)" fill="#3E3A39" font-family="'AdobeHeitiStd-Regular-GBpc-EUC-H'" font-size="21.3523">垂直纵跳</text>
</g>
<line fill="none" stroke="#847F7F" stroke-width="1.8419" x1="125.397" y1="420.728" x2="1018.724" y2="420.728"/>
<line fill="none" stroke="#DCDDDD" stroke-width="13.8143" x1="413.656" y1="420.728" x2="650.342" y2="420.728"/>
<circle stroke="#FFFFFF" stroke-width="0.4605" cx="125.397" cy="420.728" r="4.605"/>
<circle fill="#595757" stroke="#FFFFFF" stroke-width="1.8419" cx="545.353" cy="420.728" r="8.289"/>
<circle stroke="#FFFFFF" stroke-width="0.4605" cx="1018.724" cy="420.728" r="4.605"/>
<circle fill="#3261C7" stroke="#FFFFFF" stroke-width="0.4605" cx="702.836" cy="420.728" r="4.605"/>
<line fill="none" stroke="#DAD7D7" stroke-width="0.4605" x1="125.397" y1="528.695" x2="125.397" y2="537.905"/>
<text transform="matrix(1 0 0 1 106.9777 556.3207)" fill="#716D6D" font-family="'ArialMT'" font-size="13.8143">25</text>
<line fill="none" stroke="#DAD7D7" stroke-width="0.4605" x1="234.07" y1="528.695" x2="234.07" y2="537.905"/>
<text transform="matrix(1 0 0 1 215.6486 556.3207)" fill="#716D6D" font-family="'ArialMT'" font-size="13.8143">26.9</text>
<line fill="none" stroke="#DAD7D7" stroke-width="0.4605" x1="343.663" y1="528.695" x2="343.663" y2="537.905"/>
<text transform="matrix(1 0 0 1 325.2433 556.3207)" fill="#716D6D" font-family="'ArialMT'" font-size="13.8143">28.8</text>
<line fill="none" stroke="#DAD7D7" stroke-width="0.4605" x1="453.257" y1="528.695" x2="453.257" y2="537.905"/>
<text transform="matrix(1 0 0 1 434.8371 556.3207)" fill="#716D6D" font-family="'ArialMT'" font-size="13.8143">30.7</text>
<line fill="none" stroke="#DAD7D7" stroke-width="0.4605" x1="562.851" y1="528.695" x2="562.851" y2="537.905"/>
<text transform="matrix(1 0 0 1 544.4288 556.3207)" fill="#716D6D" font-family="'ArialMT'" font-size="13.8143">32.6</text>
<line fill="none" stroke="#DAD7D7" stroke-width="0.4605" x1="672.444" y1="528.695" x2="672.444" y2="537.905"/>
<text transform="matrix(1 0 0 1 654.0236 556.3207)" fill="#716D6D" font-family="'ArialMT'" font-size="13.8143">34.5</text>
<line fill="none" stroke="#DAD7D7" stroke-width="0.4605" x1="782.038" y1="528.695" x2="782.038" y2="537.905"/>
<text transform="matrix(1 0 0 1 763.6183 556.3207)" fill="#716D6D" font-family="'ArialMT'" font-size="13.8143">36.4</text>
<line fill="none" stroke="#DAD7D7" stroke-width="0.4605" x1="891.632" y1="528.695" x2="891.632" y2="537.905"/>
<text transform="matrix(1 0 0 1 873.212 556.3207)" fill="#716D6D" font-family="'ArialMT'" font-size="13.8143">38.3</text>
<line fill="none" stroke="#DAD7D7" stroke-width="0.4605" x1="1001.225" y1="528.695" x2="1001.225" y2="537.905"/>
<text transform="matrix(1 0 0 1 982.8038 556.3207)" fill="#716D6D" font-family="'ArialMT'" font-size="13.8143">40.2</text>
<text transform="matrix(1 0 0 1 116.1837 517.6439)" fill="#716D6D" font-family="'AdobeSongStd-Light-GBpc-EUC-H'" font-size="11.0515">最低（英寸）</text>
<text transform="matrix(1 0 0 1 548.1154 517.6439)" fill="#716D6D" font-family="'ArialMT'" font-size="11.0515">Mid</text>
<text transform="matrix(1 0 0 1 1009.5089 517.6439)" fill="#716D6D" font-family="'AdobeSongStd-Light-GBpc-EUC-H'" font-size="11.0515">最高</text>
<g>
	
		<text transform="matrix(0.9972 0 0 1 83.4923 490.0912)" fill="#3E3A39" font-family="'AdobeHeitiStd-Regular-GBpc-EUC-H'" font-size="21.3523">助跑跳</text>
</g>
<line fill="none" stroke="#847F7F" stroke-width="1.8419" x1="125.397" y1="528.695" x2="1018.723" y2="528.695"/>
<line fill="none" stroke="#DCDDDD" stroke-width="13.8143" x1="442.206" y1="528.695" x2="730.465" y2="528.695"/>
<circle stroke="#FFFFFF" stroke-width="0.4605" cx="125.397" cy="528.695" r="4.605"/>
<circle fill="#595757" stroke="#FFFFFF" stroke-width="1.8419" cx="557.325" cy="528.695" r="8.289"/>
<circle stroke="#FFFFFF" stroke-width="0.4605" cx="1018.723" cy="528.695" r="4.605"/>
<circle fill="#3261C7" stroke="#FFFFFF" stroke-width="0.4605" cx="528.775" cy="528.695" r="4.605"/>
<line fill="none" stroke="#DAD7D7" stroke-width="0.4605" x1="125.397" y1="633.409" x2="125.397" y2="642.619"/>
<text transform="matrix(1 0 0 1 106.9777 661.037)" fill="#716D6D" font-family="'ArialMT'" font-size="13.8143">0</text>
<line fill="none" stroke="#DAD7D7" stroke-width="0.4605" x1="236.832" y1="633.409" x2="236.832" y2="642.619"/>
<text transform="matrix(1 0 0 1 218.4113 661.037)" fill="#716D6D" font-family="'ArialMT'" font-size="13.8143">3.25</text>
<line fill="none" stroke="#DAD7D7" stroke-width="0.4605" x1="348.268" y1="633.409" x2="348.268" y2="642.619"/>
<text transform="matrix(1 0 0 1 329.8468 661.037)" fill="#716D6D" font-family="'ArialMT'" font-size="13.8143">6.5</text>
<line fill="none" stroke="#DAD7D7" stroke-width="0.4605" x1="459.703" y1="633.409" x2="459.703" y2="642.619"/>
<text transform="matrix(1 0 0 1 441.2843 661.037)" fill="#716D6D" font-family="'ArialMT'" font-size="13.8143">9.75</text>
<line fill="none" stroke="#DAD7D7" stroke-width="0.4605" x1="572.06" y1="633.409" x2="572.06" y2="642.619"/>
<text transform="matrix(1 0 0 1 553.6388 661.037)" fill="#716D6D" font-family="'ArialMT'" font-size="13.8143">13</text>
<line fill="none" stroke="#DAD7D7" stroke-width="0.4605" x1="683.496" y1="633.409" x2="683.496" y2="642.619"/>
<text transform="matrix(1 0 0 1 665.0763 661.037)" fill="#716D6D" font-family="'ArialMT'" font-size="13.8143">16.25</text>
<line fill="none" stroke="#DAD7D7" stroke-width="0.4605" x1="794.931" y1="633.409" x2="794.931" y2="642.619"/>
<text transform="matrix(1 0 0 1 776.5118 661.037)" fill="#716D6D" font-family="'ArialMT'" font-size="13.8143">19.5</text>
<line fill="none" stroke="#DAD7D7" stroke-width="0.4605" x1="906.367" y1="633.409" x2="906.367" y2="642.619"/>
<text transform="matrix(1 0 0 1 887.9454 661.037)" fill="#716D6D" font-family="'ArialMT'" font-size="13.8143">22.75</text>
<line fill="none" stroke="#DAD7D7" stroke-width="0.4605" x1="1018.723" y1="633.409" x2="1018.723" y2="642.619"/>
<text transform="matrix(1 0 0 1 1000.3019 661.037)" fill="#716D6D" font-family="'ArialMT'" font-size="13.8143">26</text>
<text transform="matrix(1 0 0 1 116.1837 622.3539)" fill="#716D6D" font-family="'AdobeSongStd-Light-GBpc-EUC-H'" font-size="11.0515">最少（84kg重复推起次数）</text>
<text transform="matrix(1 0 0 1 545.3497 622.3539)" fill="#716D6D" font-family="'ArialMT'" font-size="11.0515">Mid</text>
<text transform="matrix(1 0 0 1 1009.5089 622.3539)" fill="#716D6D" font-family="'AdobeSongStd-Light-GBpc-EUC-H'" font-size="11.0515">最多</text>
<g>
	
		<text transform="matrix(0.9972 0 0 1 83.2082 594.808)" fill="#3E3A39" font-family="'AdobeHeitiStd-Regular-GBpc-EUC-H'" font-size="21.3523">卧推</text>
</g>
<line fill="none" stroke="#847F7F" stroke-width="1.8419" x1="125.397" y1="633.409" x2="1018.723" y2="633.409"/>
<line fill="none" stroke="#DCDDDD" stroke-width="13.8143" x1="433.917" y1="633.409" x2="674.286" y2="633.409"/>
<circle stroke="#FFFFFF" stroke-width="0.4605" cx="125.397" cy="633.409" r="4.605"/>
<circle fill="#595757" stroke="#FFFFFF" stroke-width="1.8419" cx="554.562" cy="633.409" r="8.289"/>
<circle stroke="#FFFFFF" stroke-width="0.4605" cx="1018.723" cy="633.409" r="4.605"/>
<line fill="none" stroke="#DAD7D7" stroke-width="0.4605" x1="126.778" y1="739.273" x2="126.778" y2="748.483"/>
<text transform="matrix(1 0 0 1 108.3586 766.8964)" fill="#716D6D" font-family="'ArialMT'" font-size="13.8143">1.9939</text>
<line fill="none" stroke="#DAD7D7" stroke-width="0.4605" x1="236.372" y1="739.273" x2="236.372" y2="748.483"/>
<text transform="matrix(1 0 0 1 217.9523 766.8964)" fill="#716D6D" font-family="'ArialMT'" font-size="13.8143">2.0189</text>
<line fill="none" stroke="#DAD7D7" stroke-width="0.4605" x1="345.965" y1="739.273" x2="345.965" y2="748.483"/>
<text transform="matrix(1 0 0 1 327.5461 766.8964)" fill="#716D6D" font-family="'ArialMT'" font-size="13.8143">2.0439</text>
<line fill="none" stroke="#DAD7D7" stroke-width="0.4605" x1="456.48" y1="739.273" x2="456.48" y2="748.483"/>
<text transform="matrix(1 0 0 1 438.0587 766.8964)" fill="#716D6D" font-family="'ArialMT'" font-size="13.8143">2.0689</text>
<line fill="none" stroke="#DAD7D7" stroke-width="0.4605" x1="566.073" y1="739.273" x2="566.073" y2="748.483"/>
<text transform="matrix(1 0 0 1 547.6534 766.8964)" fill="#716D6D" font-family="'ArialMT'" font-size="13.8143">2.0939</text>
<line fill="none" stroke="#DAD7D7" stroke-width="0.4605" x1="675.667" y1="739.273" x2="675.667" y2="748.483"/>
<text transform="matrix(1 0 0 1 657.2472 766.8964)" fill="#716D6D" font-family="'ArialMT'" font-size="13.8143">2.1189</text>
<line fill="none" stroke="#DAD7D7" stroke-width="0.4605" x1="786.182" y1="739.273" x2="786.182" y2="748.483"/>
<text transform="matrix(1 0 0 1 767.7618 766.8964)" fill="#716D6D" font-family="'ArialMT'" font-size="13.8143">2.1439</text>
<line fill="none" stroke="#DAD7D7" stroke-width="0.4605" x1="895.775" y1="739.273" x2="895.775" y2="748.483"/>
<text transform="matrix(1 0 0 1 877.3536 766.8964)" fill="#716D6D" font-family="'ArialMT'" font-size="13.8143">2.1689</text>
<line fill="none" stroke="#DAD7D7" stroke-width="0.4605" x1="1005.369" y1="739.273" x2="1005.369" y2="748.483"/>
<text transform="matrix(1 0 0 1 986.9493 766.8964)" fill="#716D6D" font-family="'ArialMT'" font-size="13.8143">2.1939</text>
<text transform="matrix(1 0 0 1 117.5685 728.2177)" fill="#716D6D" font-family="'AdobeSongStd-Light-GBpc-EUC-H'" font-size="11.0515">最低（米）</text>
<text transform="matrix(1 0 0 1 508.0519 728.2177)" fill="#716D6D" font-family="'ArialMT'" font-size="11.0515">Mid</text>
<text transform="matrix(1 0 0 1 1010.8947 728.2177)" fill="#716D6D" font-family="'AdobeSongStd-Light-GBpc-EUC-H'" font-size="11.0515">最高</text>
<g>
	
		<text transform="matrix(0.9972 0 0 1 82.2853 700.6737)" fill="#3E3A39" font-family="'AdobeHeitiStd-Regular-GBpc-EUC-H'" font-size="21.3523">穿鞋身高</text>
</g>
<line fill="none" stroke="#847F7F" stroke-width="1.8419" x1="126.778" y1="739.273" x2="1020.104" y2="739.273"/>
<line fill="none" stroke="#DCDDDD" stroke-width="13.8143" x1="377.278" y1="739.273" x2="656.327" y2="739.273"/>
<circle stroke="#FFFFFF" stroke-width="0.4605" cx="126.778" cy="739.273" r="4.605"/>
<circle fill="#595757" stroke="#FFFFFF" stroke-width="1.8419" cx="517.263" cy="739.273" r="8.289"/>
<circle stroke="#FFFFFF" stroke-width="0.4605" cx="1020.104" cy="739.273" r="4.605"/>
<circle fill="#3261C7" stroke="#FFFFFF" stroke-width="0.4605" cx="991.555" cy="739.273" r="4.605"/>
<line fill="none" stroke="#DAD7D7" stroke-width="0.4605" x1="126.316" y1="1067.398" x2="126.316" y2="1076.607"/>
<text transform="matrix(1 0 0 1 107.8966 1095.0253)" fill="#716D6D" font-family="'ArialMT'" font-size="13.8143">0.032</text>
<line fill="none" stroke="#DAD7D7" stroke-width="0.4605" x1="237.752" y1="1067.398" x2="237.752" y2="1076.607"/>
<text transform="matrix(1 0 0 1 219.3322 1095.0253)" fill="#716D6D" font-family="'ArialMT'" font-size="13.8143">0.054</text>
<line fill="none" stroke="#DAD7D7" stroke-width="0.4605" x1="349.187" y1="1067.398" x2="349.187" y2="1076.607"/>
<text transform="matrix(1 0 0 1 330.7658 1095.0253)" fill="#716D6D" font-family="'ArialMT'" font-size="13.8143">0.076</text>
<line fill="none" stroke="#DAD7D7" stroke-width="0.4605" x1="460.623" y1="1067.398" x2="460.623" y2="1076.607"/>
<text transform="matrix(1 0 0 1 442.2003 1095.0253)" fill="#716D6D" font-family="'ArialMT'" font-size="13.8143">0.098</text>
<line fill="none" stroke="#DAD7D7" stroke-width="0.4605" x1="572.979" y1="1067.398" x2="572.979" y2="1076.607"/>
<text transform="matrix(1 0 0 1 554.5597 1095.0253)" fill="#716D6D" font-family="'ArialMT'" font-size="13.8143">0.12</text>
<line fill="none" stroke="#DAD7D7" stroke-width="0.4605" x1="684.415" y1="1067.398" x2="684.415" y2="1076.607"/>
<text transform="matrix(1 0 0 1 665.9923 1095.0253)" fill="#716D6D" font-family="'ArialMT'" font-size="13.8143">0.142</text>
<line fill="none" stroke="#DAD7D7" stroke-width="0.4605" x1="795.851" y1="1067.398" x2="795.851" y2="1076.607"/>
<text transform="matrix(1 0 0 1 777.4308 1095.0253)" fill="#716D6D" font-family="'ArialMT'" font-size="13.8143">0.164</text>
<line fill="none" stroke="#DAD7D7" stroke-width="0.4605" x1="907.286" y1="1067.398" x2="907.286" y2="1076.607"/>
<text transform="matrix(1 0 0 1 888.8663 1095.0253)" fill="#716D6D" font-family="'ArialMT'" font-size="13.8143">0.186</text>
<line fill="none" stroke="#DAD7D7" stroke-width="0.4605" x1="1019.643" y1="1067.398" x2="1019.643" y2="1076.607"/>
<text transform="matrix(1 0 0 1 1001.2238 1095.0253)" fill="#716D6D" font-family="'ArialMT'" font-size="13.8143">0.208</text>
<text transform="matrix(1 0 0 1 117.1095 1056.3446)" fill="#716D6D" font-family="'AdobeSongStd-Light-GBpc-EUC-H'" font-size="11.0515">最低</text>
<text transform="matrix(1 0 0 1 352.8683 1056.3446)" fill="#716D6D" font-family="'ArialMT'" font-size="11.0515">Mid</text>
<text transform="matrix(1 0 0 1 1010.4298 1056.3446)" fill="#716D6D" font-family="'AdobeSongStd-Light-GBpc-EUC-H'" font-size="11.0515">最高</text>
<g>
	
		<text transform="matrix(0.9972 0 0 1 82.6339 1028.7968)" fill="#3E3A39" font-family="'AdobeHeitiStd-Regular-GBpc-EUC-H'" font-size="21.3523">体脂率</text>
</g>
<line fill="none" stroke="#847F7F" stroke-width="1.8419" x1="126.316" y1="1067.398" x2="1019.643" y2="1067.398"/>
<line fill="none" stroke="#DCDDDD" stroke-width="13.8143" x1="272.748" y1="1067.398" x2="480.884" y2="1067.398"/>
<circle stroke="#FFFFFF" stroke-width="0.4605" cx="126.316" cy="1067.398" r="4.605"/>
<circle fill="#595757" stroke="#FFFFFF" stroke-width="1.8419" cx="362.081" cy="1067.398" r="8.289"/>
<circle stroke="#FFFFFF" stroke-width="0.4605" cx="1019.643" cy="1067.398" r="4.605"/>
<circle fill="#3261C7" stroke="#FFFFFF" stroke-width="0.4605" cx="207.36" cy="1067.398" r="4.605"/>
<line fill="none" stroke="#DAD7D7" stroke-width="0.4605" x1="124.935" y1="956.67" x2="124.935" y2="965.879"/>
<text transform="matrix(1 0 0 1 106.5128 984.3016)" fill="#716D6D" font-family="'ArialMT'" font-size="13.8143">82.64</text>
<line fill="none" stroke="#DAD7D7" stroke-width="0.4605" x1="239.134" y1="956.67" x2="239.134" y2="965.879"/>
<text transform="matrix(1 0 0 1 220.7111 984.3016)" fill="#716D6D" font-family="'ArialMT'" font-size="13.8143">89.64</text>
<line fill="none" stroke="#DAD7D7" stroke-width="0.4605" x1="353.332" y1="956.67" x2="353.332" y2="965.879"/>
<text transform="matrix(1 0 0 1 334.9113 984.3016)" fill="#716D6D" font-family="'ArialMT'" font-size="13.8143">96.64</text>
<line fill="none" stroke="#DAD7D7" stroke-width="0.4605" x1="468.451" y1="956.67" x2="468.451" y2="965.879"/>
<text transform="matrix(1 0 0 1 450.0294 984.3016)" fill="#716D6D" font-family="'ArialMT'" font-size="13.8143">103.64</text>
<line fill="none" stroke="#DAD7D7" stroke-width="0.4605" x1="582.65" y1="956.67" x2="582.65" y2="965.879"/>
<text transform="matrix(1 0 0 1 564.2296 984.3016)" fill="#716D6D" font-family="'ArialMT'" font-size="13.8143">110.64</text>
<line fill="none" stroke="#DAD7D7" stroke-width="0.4605" x1="696.848" y1="956.67" x2="696.848" y2="965.879"/>
<text transform="matrix(1 0 0 1 678.4279 984.3016)" fill="#716D6D" font-family="'ArialMT'" font-size="13.8143">117.64</text>
<line fill="none" stroke="#DAD7D7" stroke-width="0.4605" x1="811.968" y1="956.67" x2="811.968" y2="965.879"/>
<text transform="matrix(1 0 0 1 793.548 984.3016)" fill="#716D6D" font-family="'ArialMT'" font-size="13.8143">124.64</text>
<line fill="none" stroke="#DAD7D7" stroke-width="0.4605" x1="926.166" y1="956.67" x2="926.166" y2="965.879"/>
<text transform="matrix(1 0 0 1 907.7433 984.3016)" fill="#716D6D" font-family="'ArialMT'" font-size="13.8143">131.64</text>
<line fill="none" stroke="#DAD7D7" stroke-width="0.4605" x1="1040.365" y1="956.67" x2="1040.365" y2="965.879"/>
<text transform="matrix(1 0 0 1 1002.6378 984.3016)" fill="#716D6D" font-family="'ArialMT'" font-size="13.8143">138.64</text>
<text transform="matrix(1 0 0 1 115.7248 945.62)" fill="#716D6D" font-family="'AdobeSongStd-Light-GBpc-EUC-H'" font-size="11.0515">最轻（公斤）</text>
<text transform="matrix(1 0 0 1 533.838 945.62)" fill="#716D6D" font-family="'ArialMT'" font-size="11.0515">Mid</text>
<text transform="matrix(1 0 0 1 1009.0509 945.62)" fill="#716D6D" font-family="'AdobeSongStd-Light-GBpc-EUC-H'" font-size="11.0515">最重</text>
<g>
	
		<text transform="matrix(0.9972 0 0 1 81.9982 918.0692)" fill="#3E3A39" font-family="'AdobeHeitiStd-Regular-GBpc-EUC-H'" font-size="21.3523">体重</text>
</g>
<line fill="none" stroke="#847F7F" stroke-width="1.8419" x1="124.935" y1="956.67" x2="1018.262" y2="956.67"/>
<line fill="none" stroke="#DCDDDD" stroke-width="13.8143" x1="441.744" y1="956.67" x2="610.278" y2="956.67"/>
<circle stroke="#FFFFFF" stroke-width="0.4605" cx="124.935" cy="956.67" r="4.605"/>
<circle fill="#595757" stroke="#FFFFFF" stroke-width="1.8419" cx="543.049" cy="956.67" r="8.289"/>
<circle stroke="#FFFFFF" stroke-width="0.4605" cx="1018.261" cy="956.67" r="4.605"/>
<circle fill="#3261C7" stroke="#FFFFFF" stroke-width="0.4605" cx="392.012" cy="956.67" r="4.605"/>
<line fill="none" stroke="#DAD7D7" stroke-width="0.4605" x1="124.937" y1="843.297" x2="124.937" y2="852.507"/>
<text transform="matrix(1 0 0 1 106.5128 870.9257)" fill="#716D6D" font-family="'ArialMT'" font-size="13.8143">2.05105</text>
<line fill="none" stroke="#DAD7D7" stroke-width="0.4605" x1="269.527" y1="843.297" x2="269.527" y2="852.507"/>
<text transform="matrix(1 0 0 1 251.1046 870.9257)" fill="#716D6D" font-family="'ArialMT'" font-size="13.8143">2.15105</text>
<line fill="none" stroke="#DAD7D7" stroke-width="0.4605" x1="414.117" y1="843.297" x2="414.117" y2="852.507"/>
<text transform="matrix(1 0 0 1 395.6984 870.9257)" fill="#716D6D" font-family="'ArialMT'" font-size="13.8143">2.25105</text>
<line fill="none" stroke="#DAD7D7" stroke-width="0.4605" x1="559.628" y1="843.297" x2="559.628" y2="852.507"/>
<text transform="matrix(1 0 0 1 541.2101 870.9257)" fill="#716D6D" font-family="'ArialMT'" font-size="13.8143">2.35105</text>
<line fill="none" stroke="#DAD7D7" stroke-width="0.4605" x1="704.218" y1="843.297" x2="704.218" y2="852.507"/>
<text transform="matrix(1 0 0 1 685.7931 870.9257)" fill="#716D6D" font-family="'ArialMT'" font-size="13.8143">2.45105</text>
<line fill="none" stroke="#DAD7D7" stroke-width="0.4605" x1="849.729" y1="843.297" x2="849.729" y2="852.507"/>
<text transform="matrix(1 0 0 1 831.3097 870.9257)" fill="#716D6D" font-family="'ArialMT'" font-size="13.8143">2.55105</text>
<line fill="none" stroke="#DAD7D7" stroke-width="0.4605" x1="994.319" y1="843.297" x2="994.319" y2="852.507"/>
<text transform="matrix(1 0 0 1 975.8986 870.9257)" fill="#716D6D" font-family="'ArialMT'" font-size="13.8143">2.65105</text>
<text transform="matrix(1 0 0 1 115.7248 832.245)" fill="#716D6D" font-family="'AdobeSongStd-Light-GBpc-EUC-H'" font-size="11.0515">最短（米）</text>
<text transform="matrix(1 0 0 1 309.1281 832.245)" fill="#716D6D" font-family="'ArialMT'" font-size="11.0515">Mid</text>
<text transform="matrix(1 0 0 1 1009.0509 832.245)" fill="#716D6D" font-family="'AdobeSongStd-Light-GBpc-EUC-H'" font-size="11.0515">最长</text>
<g>
	
		<text transform="matrix(0.9972 0 0 1 83.4923 804.6942)" fill="#3E3A39" font-family="'AdobeHeitiStd-Regular-GBpc-EUC-H'" font-size="21.3523">臂展</text>
</g>
<line fill="none" stroke="#847F7F" stroke-width="1.8419" x1="124.937" y1="843.297" x2="1018.264" y2="843.297"/>
<line fill="none" stroke="#DCDDDD" stroke-width="13.8143" x1="252.95" y1="843.297" x2="380.042" y2="843.297"/>
<circle stroke="#FFFFFF" stroke-width="0.4605" cx="124.937" cy="843.297" r="4.605"/>
<circle fill="#595757" stroke="#FFFFFF" stroke-width="1.8419" cx="318.338" cy="843.297" r="8.289"/>
<circle stroke="#FFFFFF" stroke-width="0.4605" cx="1018.264" cy="843.297" r="4.605"/>
<circle fill="#3261C7" stroke="#FFFFFF" stroke-width="0.4605" cx="529.237" cy="843.297" r="4.605"/>
<rect x="557.143" y="106.225" transform="matrix(0.7071 -0.7071 0.7071 0.7071 84.5623 433.5428)" fill="#F7931E" width="16.941" height="16.941"/>
<rect x="725.679" y="205.864" transform="matrix(0.7071 -0.7071 0.7071 0.7071 63.47 581.8991)" fill="#F7931E" width="16.941" height="16.941"/>
<rect x="790.144" y="314.246" transform="matrix(0.7071 -0.7071 0.7071 0.7071 5.7136 659.2276)" fill="#F7931E" width="16.941" height="16.941"/>
<rect x="694.366" y="412.257" transform="matrix(0.7071 -0.7071 0.7071 0.7071 -91.6434 620.2086)" fill="#F7931E" width="16.941" height="16.941"/>
<rect x="520.305" y="520.225" transform="matrix(0.7071 -0.7071 0.7071 0.7071 -218.9692 528.7519)" fill="#F7931E" width="16.941" height="16.941"/>
<rect x="983.084" y="730.803" transform="matrix(0.7071 -0.7071 0.7071 0.7071 -232.3254 917.6632)" fill="#F7931E" width="16.941" height="16.941"/>
<rect x="521.035" y="834.827" transform="matrix(0.7071 -0.7071 0.7071 0.7071 -441.2127 621.4132)" fill="#F7931E" width="16.941" height="16.941"/>
<rect x="383.542" y="948.199" transform="matrix(0.7071 -0.7071 0.7071 0.7071 -561.6501 557.3965)" fill="#F7931E" width="16.941" height="16.941"/>
<rect x="198.89" y="1058.927" transform="matrix(0.7071 -0.7071 0.7071 0.7071 -694.0298 459.2595)" fill="#F7931E" width="16.941" height="16.941"/>
<rect x="60.012" y="156.192" fill="#005FAF" width="12.456" height="131.113"/>
<rect x="60.012" y="362.713" fill="#005FAF" width="12.456" height="131.113"/>
<rect x="60.012" y="675.146" fill="#005FAF" width="12.456" height="404.231"/>
<rect x="60.012" y="562.994" fill="#005FAF" width="12.456" height="48.524"/>
<rect x="60.012" y="48.894" fill="#005FAF" width="12.456" height="48.524"/>
<g>
	
		<text transform="matrix(0.9972 0 0 1 463.2076 58.1792)" fill="#595757" font-family="'AdobeHeitiStd-Regular-GBpc-EUC-H'" font-size="14.6841">如何阅读图表：</text>
</g>
</svg>
